{"glyphs":{"0":{"ha":659,"x_min":0,"x_max":0,"o":"m 330 0 b 603 479 544 0 603 294 l 603 485 b 330 970 602 669 559 968 l 328 970 b 56 485 100 970 58 668 l 56 475 b 330 0 56 291 116 0 z m 178 834 b 172 836 176 834 174 835 b 168 844 170 838 168 841 b 170 850 168 846 168 848 b 303 943 199 895 250 929 l 306 943 b 315 932 312 943 315 938 b 308 923 315 928 313 924 b 186 839 259 911 213 880 b 178 834 184 836 181 834 z m 139 754 l 135 755 b 129 764 131 756 129 760 l 130 768 b 149 812 135 782 142 798 b 157 818 150 816 153 818 b 168 808 163 818 168 813 l 166 804 b 148 761 160 789 153 774 b 139 754 147 757 143 754 z m 330 199 b 255 485 275 199 255 370 b 330 771 255 600 267 771 l 330 771 b 404 485 392 771 404 606 b 330 199 404 364 384 199 z m 370 159 b 362 161 367 159 364 159 b 359 169 360 163 359 166 b 362 176 359 171 360 174 b 418 326 393 207 415 257 b 429 336 418 332 423 336 b 438 326 434 336 438 332 l 438 325 b 376 161 435 252 412 197 b 370 159 375 159 372 159 z "},"1":{"ha":486,"x_min":0,"x_max":0,"o":"m 330 0 b 429 92 382 0 425 40 l 430 100 b 345 198 430 149 394 191 l 345 872 b 246 971 345 926 300 971 l 243 971 b 174 941 216 970 192 960 l 92 855 b 62 785 73 836 62 810 b 67 754 62 774 64 764 b 146 687 79 719 109 693 l 146 199 b 55 99 94 194 55 151 l 55 95 b 155 0 58 41 102 0 z m 119 819 b 112 821 116 819 114 819 b 109 829 110 823 109 826 b 111 836 109 831 109 833 l 188 922 b 195 925 189 924 192 925 b 205 915 201 925 205 920 b 202 908 205 913 204 910 l 126 822 b 119 819 124 820 121 819 z m 180 448 b 170 458 174 448 170 452 l 170 678 b 180 688 170 684 174 688 b 189 678 185 688 189 684 l 189 458 b 180 448 189 452 185 448 z m 178 356 b 168 366 173 357 168 360 l 168 367 b 169 414 168 384 168 393 b 179 423 169 419 174 423 b 189 414 184 423 189 419 l 188 366 b 178 356 188 361 183 356 z "},"2":{"ha":623,"x_min":0,"x_max":0,"o":"m 467 0 b 566 100 522 0 566 45 b 467 199 566 155 522 199 l 340 199 b 393 287 357 227 375 256 b 556 735 471 424 556 581 b 505 886 556 785 542 838 b 323 977 469 935 401 977 b 149 916 262 977 199 959 b 66 729 98 873 66 803 l 66 728 b 165 629 66 673 111 629 b 264 728 220 629 264 673 l 264 729 b 313 778 264 764 288 777 b 357 735 338 778 357 764 b 220 385 357 676 292 512 b 75 157 148 258 75 157 b 56 100 62 139 56 119 b 156 0 56 48 97 0 z m 140 840 b 135 841 138 840 136 840 b 130 850 132 843 130 846 b 132 855 130 851 131 853 b 298 954 168 909 233 948 l 316 954 b 363 947 332 954 348 951 b 371 937 368 945 371 941 l 370 934 b 360 927 369 929 365 927 l 357 927 b 314 933 343 931 329 933 b 149 844 250 933 184 897 b 140 840 146 841 144 840 z m 102 760 l 98 760 b 92 770 94 762 92 766 l 92 773 b 111 817 98 787 104 803 b 121 823 113 821 116 823 b 130 814 126 823 130 819 l 129 809 b 111 766 123 795 116 780 b 102 760 109 762 106 760 z m 224 317 b 218 319 222 317 220 317 b 214 327 216 321 214 323 b 216 332 214 329 214 331 b 347 609 264 404 302 472 b 356 616 348 613 352 616 b 366 606 361 616 366 611 l 366 603 b 232 321 320 465 281 393 b 224 317 231 319 227 317 z m 520 130 b 511 135 517 130 513 132 b 480 158 505 149 494 155 b 473 168 475 159 473 164 b 482 178 473 173 476 178 l 486 178 b 530 144 502 173 520 163 l 530 140 b 524 130 530 136 528 132 z "},"3":{"ha":642,"x_min":0,"x_max":0,"o":"m 322 0 b 526 116 409 0 484 52 b 585 331 567 178 585 252 l 585 339 b 523 496 584 401 558 455 b 578 673 557 542 578 604 l 578 683 b 517 878 577 754 558 822 b 332 972 476 932 406 972 b 127 867 235 972 163 916 b 78 770 92 819 78 770 b 75 743 75 761 75 751 b 148 646 75 699 103 658 b 174 643 157 644 165 643 b 270 717 218 643 258 672 b 328 774 280 754 302 773 b 380 678 363 774 380 728 b 358 608 380 632 370 618 b 314 592 347 598 329 592 b 216 492 260 591 216 547 b 314 393 216 438 260 394 b 386 324 350 393 386 373 b 318 199 386 264 366 199 b 252 264 280 199 262 228 b 155 340 239 309 199 340 b 130 337 146 340 138 339 b 56 241 85 326 56 286 b 59 215 56 233 57 224 b 109 111 59 215 72 163 b 322 0 146 60 222 0 z m 157 840 b 153 841 156 840 154 840 b 148 850 149 843 148 846 b 149 855 148 852 149 853 b 315 954 186 909 250 948 l 334 954 b 380 947 349 954 366 951 b 388 937 385 945 388 941 l 388 934 b 378 926 387 929 382 926 l 375 927 b 332 933 361 931 347 933 b 166 844 268 933 201 897 b 157 840 164 841 161 840 z m 119 760 l 115 760 b 109 769 111 762 109 766 l 110 773 b 128 817 115 787 122 803 b 138 823 130 821 134 823 b 148 814 144 823 148 819 l 146 809 b 128 766 140 795 134 780 b 119 760 127 762 123 760 z m 251 493 l 248 493 b 240 503 243 494 240 498 l 240 505 b 271 551 244 522 252 541 b 275 553 273 552 274 553 b 286 543 282 553 286 548 b 280 534 286 539 284 536 b 260 500 268 527 262 515 b 251 493 259 496 255 493 z m 387 182 b 380 184 384 182 382 183 b 376 192 377 186 376 189 b 379 199 376 195 377 197 b 413 297 400 222 413 269 l 413 301 b 422 311 413 307 417 311 l 424 311 b 433 302 429 311 433 307 l 433 297 b 394 186 433 264 420 216 b 387 182 392 183 389 182 z m 81 233 b 71 242 76 233 71 237 l 71 243 b 92 295 71 261 75 281 b 98 297 94 296 96 297 l 99 297 b 109 287 105 297 109 292 b 105 279 109 284 108 281 b 91 243 94 271 91 258 b 81 233 91 238 86 233 z "},"4":{"ha":713,"x_min":0,"x_max":0,"o":"m 557 -2 b 656 98 611 -2 656 43 l 656 874 b 556 974 656 929 611 974 l 555 974 b 457 874 501 973 457 928 l 457 431 l 288 427 l 410 839 b 415 869 414 849 415 859 b 316 968 415 922 372 968 l 313 968 b 220 895 269 966 232 937 l 59 354 b 55 326 56 345 55 335 b 154 227 55 273 98 227 l 457 232 l 457 98 b 557 -2 457 43 502 -2 z m 205 726 l 202 727 b 195 736 197 728 195 732 l 195 739 b 244 895 216 819 229 865 b 302 947 259 925 277 938 b 306 948 303 948 304 948 b 315 938 312 948 315 943 b 309 929 315 935 314 930 b 262 886 286 920 275 913 b 214 734 249 860 235 814 b 205 726 213 730 210 726 z m 498 532 b 488 542 492 532 488 536 l 486 763 b 495 772 486 768 490 772 b 505 762 500 772 505 768 l 508 542 b 498 532 508 536 503 532 z m 182 637 l 179 638 b 172 648 174 640 172 644 l 172 650 l 184 696 b 193 703 185 700 189 703 b 203 694 199 703 203 699 l 191 645 b 182 637 190 640 186 637 z m 497 440 b 488 449 492 440 488 444 l 488 497 b 498 507 488 503 492 507 b 508 497 503 507 508 503 b 507 450 507 477 507 467 b 497 440 507 445 503 440 z m 289 390 b 279 399 283 390 279 394 b 289 410 279 405 283 410 b 363 411 321 410 336 411 l 364 411 b 373 401 370 411 373 406 l 373 400 b 363 391 373 395 369 391 z "},"5":{"ha":664,"x_min":0,"x_max":0,"o":"m 312 -1 b 541 128 411 -1 494 58 b 608 366 587 199 607 283 b 537 591 608 451 585 530 b 332 694 490 652 414 694 b 296 690 319 694 308 692 l 306 775 l 482 775 b 582 874 537 775 582 820 b 482 974 582 929 537 974 l 217 974 b 118 886 167 974 124 936 l 79 536 l 79 525 b 142 432 79 484 103 447 b 177 425 153 427 165 425 b 258 466 208 425 238 441 b 317 494 273 484 296 494 l 321 494 b 409 367 375 494 409 426 b 316 199 409 267 368 199 b 254 250 282 199 259 216 b 155 337 246 300 204 337 l 142 336 b 56 237 92 330 56 286 b 56 223 56 233 56 228 b 98 114 56 223 63 169 b 312 -1 132 60 210 -1 z m 145 756 b 136 766 140 757 136 761 l 136 767 b 165 901 142 829 149 871 b 249 945 182 929 210 943 l 250 945 b 260 935 255 945 259 941 b 250 926 260 930 256 926 b 182 890 214 923 196 914 b 156 766 170 867 162 827 b 145 756 156 760 151 756 z m 136 659 l 135 659 b 126 669 130 660 126 664 l 131 717 b 140 726 131 722 136 726 b 151 716 146 726 151 722 l 146 668 b 136 659 146 663 142 659 z m 390 185 b 383 188 388 185 385 186 b 381 195 382 190 381 193 b 384 202 381 197 382 200 b 429 302 406 226 422 265 b 439 310 430 306 434 309 b 450 300 445 310 450 305 l 449 298 b 397 189 442 258 425 216 b 390 185 396 186 393 185 z m 86 234 b 77 243 81 234 77 238 l 77 244 b 98 296 77 262 81 282 b 104 298 100 297 102 298 l 104 298 b 115 288 111 298 115 293 b 111 280 115 285 113 282 b 96 244 100 271 96 258 b 86 234 96 239 92 234 z "},"6":{"ha":642,"x_min":0,"x_max":0,"o":"m 322 -1 b 530 117 412 -1 490 54 b 586 323 570 181 586 253 b 524 522 586 392 568 463 b 317 624 480 581 403 624 b 302 623 312 624 307 623 b 423 802 352 731 423 802 b 456 874 446 822 456 848 b 357 975 456 925 417 974 b 288 947 331 975 306 964 b 56 404 288 947 56 721 b 322 -1 56 165 135 -1 z m 195 746 b 191 747 194 746 193 746 b 186 756 188 749 186 752 l 187 761 b 271 886 209 801 239 848 b 319 932 288 904 304 920 b 364 949 334 943 349 949 b 367 949 365 949 366 949 b 376 939 372 949 376 944 l 376 938 b 366 929 376 933 371 929 l 363 929 b 332 916 355 929 345 925 b 287 873 317 905 302 890 b 205 751 256 837 225 790 b 195 746 203 747 199 746 z m 157 662 l 155 663 b 148 672 151 664 148 668 l 149 675 b 165 720 153 690 159 705 b 174 727 167 724 170 726 b 184 716 180 727 184 722 l 184 713 b 167 669 178 699 172 683 b 157 662 165 665 162 662 z m 417 560 b 412 562 416 560 414 561 b 329 587 394 575 359 586 b 319 597 323 588 319 593 b 329 607 319 602 323 607 l 330 607 b 423 578 364 606 400 595 b 427 570 426 576 427 573 b 426 565 427 568 427 566 b 417 560 424 562 420 560 z m 322 199 b 261 312 274 199 261 269 b 324 425 261 355 277 425 b 387 312 371 425 387 356 b 322 199 387 267 370 199 z m 374 170 b 368 173 372 170 370 171 b 364 180 366 175 364 178 b 367 187 364 183 366 185 b 410 288 389 212 404 251 b 420 296 411 293 415 296 b 429 287 425 296 429 292 l 429 285 b 382 174 424 245 408 202 b 374 170 380 172 377 170 z "},"7":{"ha":607,"x_min":0,"x_max":0,"o":"m 218 -1 b 314 71 262 -1 302 28 l 418 417 l 431 418 b 527 494 477 418 517 450 b 530 518 529 503 530 510 b 475 606 530 554 509 588 l 547 842 b 551 870 550 851 551 861 b 452 970 551 923 509 969 l 155 972 b 56 873 101 972 57 928 l 56 872 b 156 773 56 817 102 773 l 318 772 l 270 612 l 223 612 b 125 519 172 610 129 570 l 125 512 b 210 414 125 463 161 421 l 124 129 b 119 98 121 119 119 109 b 190 3 119 56 147 16 b 218 -1 199 1 209 -1 z m 172 937 b 162 937 168 937 165 937 b 153 947 157 937 153 942 l 153 948 b 163 957 154 953 158 957 l 186 957 b 203 958 192 958 198 958 l 213 958 b 222 947 218 957 222 952 l 222 946 b 212 938 221 941 216 938 l 210 938 b 187 937 207 938 197 938 z m 100 824 b 90 831 96 824 92 827 b 85 865 87 842 85 853 b 87 887 85 872 86 880 b 122 940 92 907 102 926 b 128 942 123 941 126 942 b 138 932 134 942 138 937 b 134 924 138 929 136 926 b 107 882 119 913 111 899 b 105 864 106 876 105 870 b 109 837 105 854 106 845 l 110 834 b 103 825 110 830 107 826 z m 159 528 l 156 528 b 149 536 151 528 149 532 l 149 539 b 179 586 152 556 160 576 b 184 587 180 587 182 587 b 194 577 190 587 194 582 b 189 568 194 574 193 570 b 168 535 176 562 171 549 b 159 528 167 530 163 528 z m 188 195 l 185 195 b 178 204 180 196 178 200 l 178 207 l 225 385 b 234 393 226 389 230 393 l 235 393 b 245 382 241 392 245 388 l 197 201 b 188 195 196 197 192 195 z "},"8":{"ha":642,"x_min":0,"x_max":0,"o":"m 312 0 b 494 78 383 0 444 31 b 586 282 546 126 586 198 b 517 472 586 357 555 423 b 470 525 502 492 486 509 b 492 549 477 533 485 541 b 566 741 531 597 564 663 b 567 745 567 742 567 743 b 333 972 566 857 470 972 b 146 900 260 972 192 947 b 82 734 102 853 83 791 l 82 730 b 151 552 82 658 114 597 l 172 528 b 123 476 155 513 139 496 b 56 279 85 426 56 357 b 305 0 56 129 167 5 z m 155 836 b 149 837 153 836 151 836 b 145 846 146 839 145 842 b 146 851 145 847 145 849 b 281 943 177 897 227 930 b 283 944 281 944 282 944 b 293 935 290 944 293 939 b 286 924 293 930 290 926 b 163 840 237 913 190 881 b 155 836 161 838 158 836 z m 116 755 l 113 756 b 106 766 109 758 106 762 l 106 769 b 125 813 112 783 119 799 b 135 819 127 817 131 819 b 144 809 141 819 144 814 l 144 805 b 125 762 137 791 130 776 b 116 755 124 758 120 755 z m 393 692 l 388 694 b 382 703 385 696 382 699 b 384 707 382 704 383 706 b 391 739 389 716 391 728 b 386 764 391 748 389 757 l 385 768 b 394 779 385 774 389 778 l 395 779 b 404 772 399 779 402 776 b 412 739 409 762 412 750 b 401 698 412 724 408 710 b 393 692 399 694 396 692 z m 322 660 b 281 741 298 682 281 705 b 324 773 281 758 298 773 b 368 741 351 773 368 759 b 322 660 368 703 345 680 z m 109 345 l 106 345 b 98 355 101 347 98 351 l 98 357 b 189 492 109 410 144 460 b 195 494 191 493 193 494 l 195 494 b 205 484 201 494 205 489 b 201 475 205 481 203 477 b 117 353 159 447 127 401 b 109 345 116 348 113 345 z m 321 199 b 254 279 289 199 254 227 b 319 394 254 326 275 354 b 387 282 368 349 387 318 b 321 199 387 233 352 199 z m 405 224 l 401 225 b 395 234 398 227 395 231 l 397 238 b 404 280 401 250 404 264 b 399 316 404 292 402 305 l 398 319 b 408 329 398 325 401 329 l 408 329 b 417 323 412 329 416 326 b 425 279 422 309 425 294 b 415 231 425 262 421 245 b 405 224 413 227 409 224 z "},"9":{"ha":643,"x_min":0,"x_max":0,"o":"m 295 -5 b 364 24 321 -4 346 6 b 587 562 364 24 587 250 l 587 571 b 319 970 583 807 503 970 l 314 970 b 108 850 224 969 147 914 b 56 652 71 788 56 719 l 56 643 b 121 446 57 574 75 504 b 325 347 165 388 241 347 l 329 347 b 344 348 334 347 339 347 b 226 168 296 239 226 168 b 195 96 204 147 195 121 b 294 -5 195 45 234 -5 z m 221 672 b 211 682 216 672 211 677 l 211 684 b 257 795 216 724 231 766 b 264 800 259 798 262 800 b 271 797 267 800 269 798 b 275 789 273 795 275 792 b 272 783 275 787 274 785 b 231 681 250 758 236 718 b 221 672 230 676 226 672 z m 317 363 l 316 363 b 222 390 282 364 245 374 b 218 399 220 392 218 395 b 220 404 218 400 218 402 b 228 408 222 407 224 408 b 233 407 229 408 231 408 b 317 383 252 394 286 384 b 326 373 323 382 326 378 b 317 363 326 368 323 363 z m 319 545 l 318 545 b 254 658 272 545 255 613 l 254 661 b 317 772 254 705 271 771 l 318 772 b 380 660 365 772 379 703 l 380 657 b 319 545 380 613 366 546 z m 288 20 b 285 21 286 20 286 20 b 275 31 279 21 275 26 b 286 41 276 37 281 41 l 288 41 b 319 55 296 41 307 45 b 363 98 334 65 349 81 b 444 221 394 135 423 182 b 453 227 446 224 449 227 l 457 226 b 463 217 460 224 463 220 l 461 212 b 379 85 440 172 410 123 b 332 39 363 67 347 50 b 288 20 317 28 302 20 z m 474 246 l 473 246 b 463 256 467 246 463 251 l 464 260 b 480 304 470 275 475 290 b 490 311 481 309 486 311 l 492 311 b 500 300 497 309 500 305 l 499 298 b 483 253 494 283 488 267 b 474 246 481 249 478 246 z "},"\u0000":{"ha":0,"x_min":0,"x_max":0,"o":""}," ":{"ha":271,"x_min":0,"x_max":0,"o":""},"!":{"ha":311,"x_min":0,"x_max":0,"o":"m 155 263 b 225 292 182 263 206 273 b 254 363 244 311 254 335 l 254 877 b 225 948 254 905 244 929 b 153 977 206 967 182 977 b 83 947 125 977 102 966 b 56 877 65 928 56 905 l 56 363 b 85 292 56 335 66 311 b 155 263 104 273 127 263 z m 91 636 b 81 646 84 636 81 640 l 81 866 b 90 876 81 873 84 876 b 100 866 97 876 100 873 l 100 646 b 91 636 100 640 97 636 z m 89 545 b 79 555 83 545 79 549 b 83 609 80 589 81 607 b 90 612 85 611 87 612 b 100 602 97 612 100 608 l 99 564 b 96 548 99 555 98 549 b 89 545 94 546 92 545 z m 155 0 b 225 33 182 0 205 11 b 254 111 245 54 254 80 b 225 189 254 141 245 167 b 155 220 205 210 182 220 b 85 189 127 220 104 210 b 56 111 65 167 56 141 b 85 33 56 80 65 54 b 155 0 104 11 127 0 z m 81 113 b 73 119 77 113 75 115 b 71 123 72 120 71 121 b 81 151 71 126 75 135 b 102 178 88 168 95 177 b 112 168 109 178 112 175 b 110 162 112 166 111 164 b 91 120 103 153 97 139 b 81 113 89 115 86 113 z "},"\"":{"ha":507,"x_min":0,"x_max":0,"o":"m 139 659 b 222 741 184 659 222 696 l 222 936 b 139 1019 222 981 184 1019 l 138 1019 b 56 936 93 1018 56 981 l 56 741 b 139 659 56 696 94 659 z m 369 659 b 427 683 392 659 411 667 b 452 741 444 699 452 719 l 452 936 b 427 994 452 959 444 978 b 369 1019 411 1010 392 1019 l 368 1019 b 309 994 345 1018 325 1009 b 286 936 294 978 286 958 l 286 741 b 311 683 286 719 294 699 b 369 659 327 667 346 659 z "},"#":{"ha":1136,"x_min":0,"x_max":0,"o":"m 550 -6 b 642 55 589 -6 626 17 l 726 250 l 873 250 b 972 349 928 250 972 295 b 873 449 972 404 928 449 l 812 449 l 852 539 l 981 539 b 1080 638 1036 539 1080 583 b 981 738 1080 693 1036 738 l 938 738 l 981 838 b 990 880 987 852 990 866 b 891 979 990 932 948 979 l 890 979 b 799 918 850 979 814 954 l 721 738 l 623 738 l 667 838 b 675 880 673 852 675 866 b 576 979 675 932 634 979 l 576 979 b 484 918 536 979 500 954 l 406 738 l 268 738 b 168 638 213 738 168 693 b 268 539 168 583 213 539 l 320 539 l 281 449 l 155 449 b 56 349 100 449 56 404 b 155 250 56 295 100 250 l 195 250 l 144 134 b 136 94 138 121 136 107 b 196 2 136 56 158 18 b 235 -6 209 -3 222 -6 b 327 55 274 -6 311 17 l 412 250 l 510 250 l 459 134 b 450 94 453 121 450 107 b 511 2 450 56 473 18 b 550 -6 524 -3 536 -6 z m 206 670 b 201 671 204 670 202 671 b 196 680 198 673 196 677 b 198 686 196 682 197 684 b 243 718 208 700 222 715 l 245 718 b 255 708 250 717 254 713 b 245 698 255 703 251 698 b 214 675 232 696 222 687 b 206 670 212 671 210 670 z m 103 382 b 98 384 101 382 99 383 b 93 393 95 386 93 389 b 95 398 93 394 94 396 b 140 430 104 412 119 427 l 142 430 b 152 420 147 430 152 425 b 143 410 152 415 148 410 b 111 387 129 408 119 399 b 103 382 109 384 106 382 z m 516 911 b 511 913 514 911 512 912 b 506 921 508 914 506 918 b 508 926 506 923 507 925 b 553 959 517 941 532 956 l 555 959 b 565 949 560 958 564 954 b 556 939 565 944 561 939 b 524 916 542 937 532 928 b 516 911 522 913 519 911 z m 452 760 l 449 760 b 443 769 445 762 443 766 l 444 773 l 492 892 b 501 899 494 896 497 899 b 511 888 507 899 511 894 l 511 884 l 462 766 b 452 760 460 762 456 760 z m 596 449 l 498 449 l 537 539 l 635 539 z m 832 911 b 827 913 831 911 829 912 b 823 922 824 915 823 918 b 824 926 823 923 823 925 b 870 959 833 941 848 956 l 871 959 b 881 949 877 958 881 954 l 881 947 b 872 939 881 943 877 939 b 841 916 858 937 849 928 b 832 911 839 913 836 911 z "},"$":{"ha":659,"x_min":0,"x_max":0,"o":"m 330 -140 b 429 -41 385 -140 429 -96 l 429 16 b 511 64 458 27 486 43 b 603 264 564 109 603 182 b 528 462 603 345 570 414 b 396 567 485 510 437 541 b 302 635 355 593 321 616 b 279 699 284 655 279 674 b 340 778 279 749 304 778 b 400 735 385 778 400 735 b 492 673 415 696 452 673 b 530 680 505 673 517 675 b 591 772 568 696 591 733 b 584 811 591 785 589 798 b 429 958 584 811 536 916 l 429 1020 b 330 1119 429 1075 385 1119 l 328 1119 b 230 1021 274 1118 230 1075 l 231 951 b 165 903 208 939 186 923 b 81 688 116 854 81 778 b 159 498 81 610 116 543 b 288 400 201 454 248 426 b 378 330 328 374 360 351 b 404 262 397 309 404 290 b 330 197 404 225 375 197 b 254 248 293 197 260 212 b 155 333 245 298 203 333 b 139 332 149 333 144 332 b 56 233 90 323 56 281 b 58 215 56 227 56 221 b 106 106 58 215 67 159 b 231 15 131 71 174 35 l 230 -43 b 330 -140 230 -96 275 -140 z m 113 659 l 112 659 b 102 669 106 660 102 664 l 103 671 b 111 718 105 686 109 702 b 121 726 113 722 117 726 l 121 726 b 131 716 127 726 131 721 l 131 714 b 123 668 128 699 125 682 b 113 659 123 663 118 659 z m 130 748 l 129 748 b 121 758 124 749 121 753 l 121 760 b 299 951 142 861 211 943 l 300 951 b 310 942 305 951 309 947 b 300 931 310 937 306 932 b 140 756 224 925 160 850 b 130 748 140 751 135 748 z m 98 182 b 90 188 94 182 91 184 b 81 229 85 200 81 214 b 83 243 81 233 82 238 b 112 298 85 262 94 283 b 119 301 114 300 116 301 b 128 291 124 301 128 296 b 125 283 128 288 127 286 b 102 240 111 271 104 256 l 101 229 b 108 195 101 217 104 205 l 109 191 b 102 182 109 187 106 184 z m 407 187 b 399 191 404 187 401 189 b 397 197 398 193 397 195 b 402 205 397 201 399 204 b 429 247 417 216 425 231 b 430 265 429 253 430 259 b 427 292 430 275 429 284 l 426 295 b 436 305 426 300 430 305 b 446 298 441 305 445 302 b 450 267 448 288 450 278 b 448 242 450 259 450 250 b 413 189 444 222 433 203 b 407 187 411 188 409 187 z "},"%":{"ha":882,"x_min":0,"x_max":0,"o":"m 677 242 b 680 240 677 242 678 241 b 684 233 680 239 682 236 b 692 195 689 224 692 211 l 691 182 b 671 135 686 160 680 144 b 665 130 668 132 666 130 b 662 128 663 129 663 128 b 660 130 661 128 661 129 b 655 138 659 132 657 134 b 647 176 650 147 647 160 l 648 188 b 668 235 652 210 659 226 b 674 241 671 238 673 240 b 677 242 675 241 676 242 z m 202 726 l 201 726 l 201 726 b 199 729 201 727 199 728 b 195 734 198 730 197 732 b 188 772 191 744 188 756 b 189 785 188 777 188 781 b 197 814 190 796 193 806 b 208 832 200 822 204 828 b 215 838 212 836 214 838 b 218 840 216 839 217 840 b 220 837 218 839 219 838 b 224 830 221 836 222 833 b 232 793 229 821 232 809 b 231 780 232 789 232 785 b 211 732 227 758 220 742 b 207 728 209 730 208 729 b 204 726 205 727 205 726 b 202 726 203 726 203 726 z m 155 -4 b 199 7 170 -4 185 -1 b 235 37 214 14 225 24 l 804 812 b 825 873 818 831 825 852 b 814 916 825 888 821 902 b 727 972 796 951 767 970 l 725 972 b 644 930 692 972 665 958 l 75 155 b 55 95 62 136 55 116 b 66 51 55 79 58 65 b 96 15 73 37 83 25 b 155 -4 115 2 134 -4 z m 661 -5 b 721 9 682 -5 703 0 b 768 45 739 18 755 31 b 822 164 798 77 816 117 b 825 198 824 176 825 186 b 802 294 825 233 817 264 b 759 346 791 314 777 332 b 695 374 741 360 720 370 b 679 374 690 374 684 374 b 619 361 657 374 637 370 b 571 326 601 352 585 340 b 517 205 542 293 524 253 b 515 173 515 195 515 184 b 537 76 515 138 522 106 b 580 24 547 56 562 39 b 644 -3 598 10 619 1 z m 201 593 b 261 607 222 593 243 597 b 308 642 279 616 295 628 b 363 762 338 675 356 715 b 365 794 364 772 365 783 b 342 892 365 829 357 861 b 299 943 332 911 317 929 b 235 971 281 958 260 967 b 219 972 230 972 224 972 b 159 958 198 972 178 967 b 112 923 141 949 125 937 b 57 803 81 890 63 850 b 55 770 56 792 55 781 b 78 673 55 736 62 703 b 121 622 88 654 102 636 b 184 594 138 608 159 598 z "},"&":{"ha":850,"x_min":0,"x_max":0,"o":"m 334 -18 b 559 75 427 -18 501 22 b 627 13 597 39 627 13 b 694 -13 646 -4 670 -13 b 769 22 722 -13 749 -1 b 793 87 785 41 793 64 b 758 163 793 115 781 143 b 681 233 758 163 726 191 b 743 366 722 305 743 366 b 749 400 747 377 749 389 b 682 494 749 441 723 479 b 650 499 671 497 661 499 b 555 431 608 499 569 473 b 534 382 555 431 548 410 b 534 383 534 382 534 382 b 471 456 512 407 492 431 b 551 528 498 478 526 501 b 638 723 596 576 638 642 b 391 968 638 867 516 968 b 129 704 251 968 129 852 b 198 496 129 627 159 561 b 142 443 178 479 159 463 b 56 246 96 394 56 328 b 334 -18 56 100 180 -18 z m 174 743 l 171 744 b 164 753 167 745 164 749 l 165 757 b 184 802 170 771 177 787 b 193 807 185 805 189 807 b 203 797 199 807 203 802 l 202 793 b 184 750 195 779 189 764 b 174 743 182 746 178 743 z m 109 304 l 106 304 b 99 313 102 306 99 309 l 100 317 b 199 446 115 370 152 417 b 205 447 201 446 203 447 b 214 437 211 447 214 442 b 210 429 214 434 213 431 b 119 311 167 402 132 359 b 109 304 117 307 114 304 z m 213 823 b 208 825 212 823 210 824 b 203 833 205 827 203 830 b 205 839 203 835 203 837 b 338 932 235 884 285 918 l 341 932 b 351 922 348 932 351 927 b 343 912 351 918 349 913 b 221 828 294 901 248 869 b 213 823 220 825 216 823 z m 334 180 b 254 246 285 180 254 221 b 288 309 254 262 261 279 b 315 333 295 316 306 325 b 418 217 351 289 382 254 b 334 180 390 195 361 180 z m 357 620 b 328 704 337 659 328 692 b 391 769 328 743 359 769 b 439 723 414 769 439 757 b 406 664 439 709 433 692 b 357 620 393 650 376 635 z m 450 681 b 446 682 449 681 448 681 b 441 690 443 684 441 687 b 442 695 441 692 441 694 b 450 726 447 704 450 715 b 444 752 450 735 448 745 l 443 756 b 452 766 443 761 447 766 b 462 760 456 766 460 764 b 469 726 467 749 469 738 b 460 686 469 712 466 698 b 450 681 458 682 454 681 z m 594 436 b 588 438 592 436 590 437 b 585 446 586 440 585 443 b 587 452 585 448 585 450 b 640 481 600 469 619 481 l 642 481 b 651 471 647 481 651 477 b 641 461 651 466 646 461 b 602 440 627 461 612 452 b 594 436 600 437 597 436 z "},"'":{"ha":278,"x_min":0,"x_max":0,"o":"m 139 659 b 222 741 184 659 222 696 l 222 936 b 139 1019 222 981 184 1019 l 138 1019 b 56 936 93 1018 56 981 l 56 741 b 139 659 56 696 94 659 z "},"(":{"ha":469,"x_min":0,"x_max":0,"o":"m 314 -132 b 373 -113 335 -132 355 -125 b 410 -60 391 -100 403 -83 b 414 -33 412 -51 414 -41 b 394 27 414 -10 407 9 b 340 63 381 45 363 57 l 341 63 b 336 68 340 64 338 65 b 325 82 332 71 329 75 b 288 176 312 102 299 134 b 254 477 265 266 254 366 l 254 495 b 294 813 256 618 269 724 b 331 908 307 857 319 888 b 341 922 335 914 338 919 l 345 925 b 395 962 366 932 382 945 b 413 1020 407 979 413 999 b 412 1034 413 1025 413 1029 b 378 1095 408 1059 397 1080 b 314 1119 360 1111 338 1119 l 311 1119 b 285 1115 302 1119 294 1118 b 212 1074 256 1106 231 1092 b 162 1013 192 1055 175 1035 b 102 866 136 969 116 920 b 56 497 73 755 57 632 l 56 477 b 65 294 56 415 59 354 b 95 125 71 234 81 178 b 157 -24 109 70 130 20 b 210 -87 171 -47 189 -68 b 285 -128 231 -105 256 -119 b 314 -132 295 -131 304 -132 z "},")":{"ha":469,"x_min":0,"x_max":0,"o":"m 155 -132 b 184 -128 165 -132 174 -131 b 260 -87 214 -119 239 -105 b 313 -24 281 -68 298 -47 b 374 125 340 20 361 70 b 405 294 389 178 399 234 b 414 477 411 354 414 415 l 414 497 b 368 866 413 632 397 755 b 308 1013 354 920 334 969 b 258 1074 295 1035 278 1055 b 184 1115 239 1092 214 1106 b 155 1119 176 1118 165 1119 b 91 1095 130 1119 109 1111 b 57 1033 73 1078 61 1058 l 56 1020 b 75 962 56 999 62 979 b 125 925 88 945 104 932 l 127 924 b 130 922 127 923 128 922 b 139 908 132 919 135 914 b 176 813 152 888 164 857 b 215 495 200 724 213 618 l 215 477 b 182 176 215 366 204 265 b 145 82 170 134 158 102 b 135 68 141 76 138 71 b 129 63 132 65 130 64 l 130 63 b 76 27 107 57 89 45 b 56 -33 63 9 56 -10 b 60 -60 56 -41 58 -51 b 97 -113 67 -83 79 -100 b 155 -132 115 -125 134 -132 z "},"*":{"ha":358,"x_min":0,"x_max":0,"o":"m 173 749 b 215 789 195 749 214 767 l 216 812 l 237 798 b 261 790 244 793 252 790 b 294 807 274 790 287 796 b 302 831 300 814 302 823 b 285 865 302 844 296 857 l 250 890 l 285 915 b 303 949 296 923 303 936 b 301 961 303 953 302 957 b 262 990 296 978 280 990 l 260 990 b 225 974 242 990 239 984 l 226 989 b 186 1031 226 1011 208 1029 l 184 1031 b 143 991 162 1031 144 1013 l 142 968 l 121 983 b 98 990 115 987 107 990 l 97 990 b 58 962 79 990 64 979 b 56 949 56 958 56 954 b 73 915 56 936 62 923 l 108 890 l 73 865 b 56 831 62 857 56 844 b 64 807 56 823 58 814 b 98 790 72 796 85 790 b 133 806 115 790 119 795 l 133 790 b 172 749 133 768 150 751 z "},"+":{"ha":733,"x_min":0,"x_max":0,"o":"m 366 170 b 466 269 421 170 466 214 l 466 381 l 578 381 b 677 481 633 381 677 426 b 579 580 677 535 633 580 l 466 580 l 466 692 b 366 791 466 747 421 791 l 365 791 b 267 692 311 791 267 746 l 267 580 l 154 580 b 56 481 100 580 56 535 b 155 381 56 426 100 381 l 267 381 l 267 268 b 366 170 267 214 312 170 z m 96 507 l 92 508 b 86 517 88 510 86 513 l 87 522 b 126 561 94 537 105 554 b 129 562 127 561 128 561 b 139 551 135 562 139 557 b 132 542 139 547 137 543 b 105 513 119 538 111 527 b 96 507 104 510 100 507 z m 303 715 l 299 716 b 293 725 295 718 293 722 l 294 729 b 333 768 300 745 312 762 b 336 769 334 769 335 769 l 336 769 b 346 759 342 769 346 764 b 338 749 346 755 344 751 b 312 722 325 745 317 734 b 303 715 311 718 307 715 z "},",":{"ha":313,"x_min":0,"x_max":0,"o":"m 132 -112 b 199 -85 160 -112 184 -98 b 230 -43 214 -71 222 -58 b 254 43 244 -16 251 13 b 256 77 256 54 256 66 b 248 134 256 96 254 115 b 218 185 243 151 235 169 b 147 214 201 202 174 214 l 146 214 b 75 161 113 214 85 193 b 72 140 73 154 72 147 b 106 77 72 115 84 91 l 106 60 b 98 30 105 47 101 37 b 56 -37 73 17 56 -9 b 58 -54 56 -43 57 -49 b 130 -112 66 -88 96 -112 z "},"-":{"ha":699,"x_min":0,"x_max":0,"o":"m 543 387 b 642 486 597 387 642 431 b 544 585 642 541 598 585 l 154 585 b 56 486 100 585 56 541 b 155 387 56 431 100 387 z m 102 509 l 98 509 b 92 518 95 511 92 515 l 94 523 b 133 562 100 538 112 555 l 136 562 b 146 553 142 562 146 557 b 138 543 146 549 144 545 b 112 515 125 539 117 528 b 102 509 111 511 106 509 z "},".":{"ha":311,"x_min":0,"x_max":0,"o":"m 155 221 b 56 111 100 221 56 172 b 155 0 56 50 100 0 b 254 111 210 0 254 50 b 155 221 254 172 210 221 z "},"/":{"ha":847,"x_min":0,"x_max":0,"o":"m 155 -62 b 240 -14 189 -62 222 -45 l 775 854 b 791 908 785 871 791 889 b 779 954 791 924 787 939 b 695 1007 763 985 730 1006 l 691 1007 b 606 959 656 1007 624 989 l 71 90 b 56 37 60 74 56 56 b 103 -47 56 4 73 -28 b 155 -62 119 -58 137 -62 z "},":":{"ha":311,"x_min":0,"x_max":0,"o":"m 155 481 b 254 591 210 481 254 530 b 155 702 254 652 210 702 b 56 591 100 702 56 652 b 155 481 56 530 100 481 z m 155 292 b 56 182 100 292 56 243 b 155 71 56 121 100 71 b 254 182 210 71 254 121 b 155 292 254 243 210 292 z "},";":{"ha":313,"x_min":0,"x_max":0,"o":"m 157 485 b 257 595 212 485 257 534 b 157 705 257 656 212 705 b 58 595 102 705 58 656 b 157 485 58 534 102 485 z m 132 -34 b 199 -7 160 -34 184 -20 b 230 35 214 7 222 20 b 254 121 244 62 251 91 b 257 155 256 132 257 143 b 248 212 257 174 254 193 b 218 263 243 229 235 247 b 148 292 201 280 174 292 l 146 292 b 75 239 114 292 85 271 b 72 218 73 232 72 225 b 106 155 72 193 84 169 l 107 145 l 106 138 b 98 108 105 125 101 115 b 56 41 73 95 56 68 b 58 24 56 35 57 29 b 130 -34 66 -10 96 -34 z "},"<":{"ha":722,"x_min":0,"x_max":0,"o":"m 566 166 b 655 221 603 166 638 186 b 667 266 663 235 667 251 b 611 355 667 302 646 338 l 374 476 l 611 596 b 667 686 646 613 667 648 b 664 709 667 693 666 701 b 566 785 653 754 612 785 b 521 774 550 785 534 781 l 110 564 b 56 476 77 547 56 513 b 110 387 56 438 77 404 l 521 178 b 566 166 536 170 551 166 z "},"=":{"ha":851,"x_min":0,"x_max":0,"o":"m 696 511 b 795 610 750 511 795 555 b 697 709 795 665 751 709 l 154 709 b 56 610 100 709 56 665 b 155 511 56 555 100 511 z m 109 633 l 105 633 b 99 642 102 635 99 639 l 100 647 b 140 686 107 663 119 680 l 143 686 b 153 677 149 686 153 682 b 145 667 153 673 151 669 b 119 639 132 663 124 652 b 109 633 117 635 113 633 z m 696 170 b 766 199 723 170 746 180 b 795 270 785 219 795 242 b 766 340 795 297 785 320 b 697 369 747 359 724 369 l 154 369 b 85 340 127 369 104 359 b 56 270 65 320 56 297 b 85 199 56 242 65 219 b 155 170 104 180 128 170 z m 109 292 l 105 293 b 99 302 101 295 99 298 l 100 307 b 115 330 104 315 109 322 b 140 346 121 337 130 342 l 143 346 b 150 343 146 346 149 345 b 153 336 152 341 153 339 b 145 327 153 332 150 329 b 119 298 132 322 123 313 b 109 292 117 294 113 292 z "},">":{"ha":722,"x_min":0,"x_max":0,"o":"m 156 166 b 201 178 172 166 187 170 l 612 387 b 667 476 646 404 667 438 b 612 564 667 513 646 547 l 201 774 b 153 785 186 781 170 785 b 58 707 108 785 68 752 b 56 686 56 700 56 693 b 111 596 56 648 77 613 l 348 476 l 111 355 b 56 265 77 338 56 302 b 66 221 56 250 59 235 b 156 166 84 186 119 166 z "},"?":{"ha":604,"x_min":0,"x_max":0,"o":"m 249 264 b 319 294 277 264 300 274 b 348 366 338 313 347 337 b 368 441 348 395 355 420 b 422 510 380 462 399 485 b 488 585 453 543 475 568 b 547 747 528 634 547 688 b 517 855 547 785 537 821 b 431 941 496 890 467 919 b 305 975 395 964 353 975 b 159 935 251 975 202 961 b 68 831 117 908 86 873 b 56 766 60 810 56 788 b 69 694 56 743 60 719 b 121 638 80 667 98 649 b 162 629 134 632 148 629 b 199 636 174 629 186 631 b 254 690 225 648 243 665 b 262 728 259 702 262 715 b 254 766 262 741 259 753 l 264 773 b 305 780 274 778 288 780 b 337 772 319 780 329 777 b 349 752 345 766 349 760 b 331 711 349 741 343 728 b 275 643 319 694 300 671 b 219 574 257 623 238 600 b 170 481 199 547 183 516 b 149 366 156 447 149 408 b 178 294 150 337 159 313 b 249 264 197 274 221 264 z m 108 827 b 98 834 103 827 100 829 l 98 836 b 100 842 98 838 99 840 b 247 952 133 899 182 937 l 250 953 b 259 943 256 952 259 949 b 251 933 259 937 256 935 b 117 832 192 918 147 884 b 108 827 115 829 113 827 z m 86 740 b 79 743 83 740 81 741 b 76 760 77 745 76 750 b 82 802 76 773 78 787 b 92 809 84 807 87 809 b 102 800 98 809 102 806 l 100 796 b 96 762 98 785 96 774 l 96 750 b 86 740 96 743 93 740 z m 229 507 l 227 507 b 216 517 220 507 216 511 b 218 522 216 519 217 521 b 337 675 246 570 286 621 b 354 694 343 682 349 688 b 361 696 357 696 359 696 b 372 686 368 696 372 693 b 352 662 372 684 365 676 b 235 512 302 610 264 560 b 229 507 234 510 232 508 z m 246 0 b 316 33 273 0 297 11 b 345 111 336 54 345 80 b 316 189 345 141 336 167 b 246 220 297 210 273 220 b 176 189 218 220 195 210 b 146 111 157 167 146 141 b 176 33 146 80 157 54 b 246 0 195 11 218 0 z m 170 113 b 165 114 169 113 168 113 b 161 117 164 115 163 115 b 160 123 161 119 160 121 b 169 150 160 125 163 134 b 191 178 176 168 184 178 b 201 169 197 178 201 174 b 199 162 201 167 200 164 b 180 120 192 153 186 139 b 170 113 178 115 175 113 z "},"@":{"ha":957,"x_min":0,"x_max":0,"o":"m 450 -5 b 730 79 583 -5 674 35 b 757 131 748 92 757 111 b 743 172 757 145 753 159 b 691 197 730 189 711 197 b 650 183 677 197 662 193 b 450 128 616 158 557 128 b 258 229 360 128 302 165 b 188 487 214 293 188 387 b 486 846 188 709 340 846 b 768 589 663 846 764 738 l 768 576 b 738 427 768 518 755 464 b 711 387 729 408 718 394 l 709 386 b 698 404 707 389 703 393 b 670 512 686 427 676 469 b 661 663 662 570 661 630 l 661 689 b 595 755 661 727 630 755 b 563 747 585 755 573 752 b 477 776 540 764 511 776 b 321 682 412 776 355 736 b 271 479 288 629 271 559 b 314 300 271 410 285 350 b 454 211 342 251 393 211 b 540 247 489 211 519 227 b 585 313 560 267 574 289 b 590 326 587 317 589 321 b 625 283 600 310 610 296 b 709 251 646 264 677 251 b 802 291 747 251 779 269 b 858 371 826 313 844 340 b 901 575 885 428 901 499 l 901 593 b 486 978 894 806 722 978 b 56 487 258 978 56 770 b 149 154 56 366 84 247 b 450 -5 214 60 319 -5 z m 450 345 b 404 479 437 349 404 388 b 434 612 404 541 418 587 b 477 644 450 638 463 644 b 503 618 486 644 492 637 b 517 582 511 602 515 588 b 465 370 507 507 490 420 b 450 345 459 357 453 349 z "},"A":{"ha":737,"x_min":0,"x_max":0,"o":"m 582 0 l 597 1 b 681 99 646 9 681 52 l 679 117 b 606 515 679 117 648 317 b 537 791 585 615 562 713 b 497 893 525 829 514 862 b 461 940 489 908 479 924 b 420 965 451 948 437 958 b 379 973 407 970 393 973 b 313 947 354 973 330 964 l 307 943 b 281 899 296 930 286 915 b 58 121 196 694 121 427 l 56 98 b 134 3 56 53 88 12 b 155 1 141 1 148 1 b 252 81 201 1 244 33 b 292 261 265 143 279 204 l 452 264 l 483 86 b 582 0 491 35 534 0 z m 250 736 l 247 736 b 240 746 243 738 240 743 l 240 749 b 279 869 251 786 262 830 b 351 956 296 908 318 941 l 357 956 b 366 946 362 956 366 951 b 358 936 366 942 363 938 b 297 861 333 926 314 899 b 260 743 281 825 271 781 b 250 736 258 739 254 736 z m 225 648 l 222 648 b 215 658 218 650 215 654 l 215 661 l 228 705 b 237 713 229 709 233 712 b 248 703 243 713 248 709 l 247 700 l 235 655 b 225 648 233 651 229 648 z m 343 461 l 384 597 b 414 463 395 553 404 510 z m 443 488 l 441 487 b 431 496 436 487 431 491 l 411 587 b 420 597 411 593 414 597 b 431 589 425 597 429 594 l 450 497 b 443 488 450 492 448 488 z "},"B":{"ha":627,"x_min":0,"x_max":0,"o":"m 174 0 l 197 1 b 352 24 232 1 290 3 b 498 115 401 39 455 66 b 570 315 542 164 570 235 b 490 512 570 391 540 463 b 559 708 530 562 559 628 b 397 952 559 824 484 920 b 275 974 357 968 316 974 b 150 955 230 974 189 966 b 73 859 109 945 74 906 b 56 494 58 772 56 640 b 73 104 56 349 60 202 l 73 100 b 174 0 73 44 121 0 z m 96 736 l 95 736 b 85 746 90 736 85 741 b 199 951 90 853 88 935 l 201 951 b 211 942 206 951 210 947 b 202 932 211 937 208 932 b 105 745 103 917 109 846 b 96 736 105 741 101 736 z m 256 590 b 264 774 257 661 260 726 l 282 774 b 360 707 328 774 360 756 b 256 590 360 627 310 603 z m 90 646 b 81 657 85 647 81 652 l 84 704 b 94 713 84 709 88 713 b 104 704 99 713 104 709 l 101 656 b 90 646 100 650 96 646 z m 331 576 b 321 585 325 576 321 579 b 328 595 321 590 323 594 b 380 677 357 604 380 646 b 390 687 380 682 385 687 b 400 677 395 687 400 682 b 334 576 400 639 373 588 z m 263 205 b 256 380 260 256 257 316 b 292 383 269 382 280 383 l 294 383 b 371 315 339 383 371 364 b 349 247 371 276 361 260 b 263 205 332 227 299 212 z m 337 200 b 327 210 331 200 328 203 b 334 220 327 214 330 218 b 387 301 362 228 387 269 b 397 311 387 307 391 311 b 406 302 401 311 406 307 b 337 200 404 263 384 208 z "},"C":{"ha":644,"x_min":0,"x_max":0,"o":"m 355 0 b 507 59 414 0 471 24 b 572 171 543 94 562 135 b 589 284 586 216 589 259 b 588 307 589 298 588 307 b 489 400 585 359 543 400 l 481 400 b 389 302 423 395 389 353 l 389 287 b 382 228 389 276 389 250 b 340 191 376 210 359 191 b 293 229 320 191 307 203 b 255 451 277 257 255 330 b 286 722 255 579 265 674 b 341 770 302 760 319 770 b 388 717 359 770 384 757 b 488 626 393 665 436 626 l 498 627 b 587 726 549 632 587 675 l 586 738 b 552 845 586 738 581 790 b 351 969 523 900 450 969 b 103 800 242 969 144 896 b 56 499 67 715 56 616 l 56 447 b 121 127 59 311 73 210 b 355 0 170 45 256 0 z m 119 733 l 117 733 b 109 743 112 734 109 738 l 110 745 b 307 933 136 853 220 926 l 308 933 b 318 924 313 933 318 929 l 318 922 b 309 913 318 918 314 914 b 129 741 232 907 153 841 b 119 733 127 736 123 733 z m 100 644 l 99 644 b 90 654 94 645 90 649 l 90 655 b 99 703 92 671 96 687 b 109 711 100 707 104 711 b 118 701 114 711 118 706 l 118 699 b 110 652 115 684 112 667 b 100 644 110 648 105 644 z m 416 314 l 413 314 b 406 323 408 315 406 319 l 406 326 b 439 371 411 343 420 361 b 444 372 441 372 443 372 b 454 362 450 372 454 367 b 448 353 454 359 452 355 b 425 321 435 347 429 335 b 416 314 424 317 420 314 z "},"D":{"ha":643,"x_min":0,"x_max":0,"o":"m 174 0 b 193 2 180 0 186 1 b 383 61 231 4 308 14 b 586 510 488 127 586 273 b 434 921 586 715 533 850 b 281 972 385 956 332 970 b 272 972 278 972 275 972 b 74 861 176 972 77 945 b 56 494 58 773 56 640 b 73 105 56 349 60 203 l 73 101 b 174 0 73 45 120 0 z m 102 736 l 101 736 b 92 746 96 736 92 741 b 205 951 96 853 94 935 l 207 951 b 217 942 212 951 216 947 b 208 932 217 937 214 932 b 111 745 109 917 115 846 b 102 736 111 741 107 736 z m 262 221 b 254 494 258 299 254 399 b 264 773 254 599 259 705 b 319 759 286 773 304 769 b 387 510 345 740 387 682 b 262 221 387 310 318 249 z m 98 647 l 96 647 b 87 657 91 647 87 652 l 90 704 b 100 713 90 709 94 713 b 110 704 105 713 110 709 l 107 656 b 98 647 106 651 102 647 z m 329 220 b 319 231 323 220 319 225 b 323 238 319 233 321 236 b 397 383 355 266 382 324 b 405 391 397 387 401 391 b 416 381 412 390 416 387 l 416 378 b 336 223 401 317 375 256 b 329 220 334 221 332 220 z "},"E":{"ha":606,"x_min":0,"x_max":0,"o":"m 259 -1 b 449 3 317 -1 387 3 l 450 3 b 550 102 505 3 550 47 b 450 201 550 157 505 201 l 449 201 b 262 198 381 201 311 198 b 258 358 260 243 258 299 l 420 361 b 519 460 475 361 519 406 l 519 462 b 420 559 518 516 474 559 l 259 557 b 266 770 260 639 263 715 b 446 768 307 770 363 768 l 448 768 b 547 867 503 768 547 812 b 448 966 547 922 503 966 l 446 966 b 258 969 368 966 307 969 b 238 968 251 969 245 969 b 161 960 212 968 191 968 b 109 932 147 956 129 950 b 73 858 90 915 75 884 l 73 860 b 56 448 62 774 56 609 b 70 105 56 316 60 186 l 69 106 b 129 20 74 63 109 30 b 178 4 150 9 164 7 b 259 -1 205 0 230 -1 z m 117 732 b 107 743 111 732 107 737 b 220 948 111 850 110 932 l 222 948 b 233 939 228 948 232 944 b 224 928 233 934 229 929 b 127 742 125 913 130 842 b 117 732 127 736 122 732 z m 113 644 l 112 644 b 102 654 106 644 102 648 b 106 701 104 671 104 681 b 115 710 106 706 110 710 l 116 710 b 125 701 121 710 125 705 l 122 653 b 113 644 122 648 118 644 z m 345 526 b 335 536 340 526 335 530 b 345 546 335 542 340 546 l 420 547 b 429 538 425 547 429 543 l 429 536 b 420 528 429 532 425 528 z m 522 110 b 512 117 517 110 513 113 b 485 152 509 130 498 143 b 444 165 472 160 456 165 l 442 165 b 431 176 436 165 432 170 b 441 186 431 181 436 186 b 496 169 460 186 479 180 b 532 123 512 157 526 142 l 532 120 b 524 111 532 116 529 112 z "},"F":{"ha":602,"x_min":0,"x_max":0,"o":"m 112 735 b 102 747 106 736 102 740 b 102 762 102 753 102 759 b 119 884 102 810 108 851 b 216 951 132 920 163 942 l 218 951 b 227 942 224 951 227 948 b 225 935 227 939 227 937 b 219 932 223 932 221 932 b 138 878 175 924 148 905 b 123 774 127 850 123 815 l 123 769 b 119 738 123 751 121 740 b 112 735 117 736 115 735 z m 493 476 b 482 486 487 476 484 479 b 470 509 482 493 478 501 b 445 524 462 517 454 522 b 437 534 439 525 437 528 b 448 544 437 541 441 544 b 484 524 461 541 473 534 b 503 487 495 513 501 501 b 493 476 503 479 499 476 z m 108 646 b 98 656 101 646 98 650 l 100 704 b 111 713 102 710 105 713 b 121 703 117 713 121 709 b 115 649 118 669 116 650 b 108 646 113 647 111 646 z m 169 0 b 243 34 200 2 224 14 b 268 99 260 52 268 74 l 267 111 b 258 361 261 169 258 252 l 420 363 b 490 393 448 363 471 374 b 519 464 510 413 519 436 b 490 534 519 492 509 515 b 420 562 470 553 447 562 l 259 559 b 266 772 261 644 263 715 l 448 770 b 517 800 475 770 498 780 b 547 870 537 819 547 842 b 518 940 547 897 537 920 b 448 969 498 960 475 969 b 317 970 391 969 347 970 b 229 972 291 971 262 972 b 161 962 208 972 186 968 b 108 933 146 960 128 950 b 73 861 87 913 75 888 b 56 435 62 762 56 620 b 69 90 56 302 60 186 b 102 25 73 63 84 42 b 169 0 121 8 143 0 z "},"G":{"ha":673,"x_min":0,"x_max":0,"o":"m 328 -1 b 503 68 395 -1 460 27 b 585 210 546 110 570 161 b 616 473 616 308 616 410 b 557 570 616 515 581 557 b 505 583 533 582 518 583 l 484 585 b 441 581 469 585 455 583 b 369 567 404 576 369 567 b 290 471 321 557 290 516 b 292 448 290 463 290 455 b 389 370 302 401 343 370 b 414 374 397 370 405 372 b 395 269 410 336 405 299 b 365 212 387 241 374 221 b 332 194 355 202 346 194 b 303 208 318 194 310 200 b 276 258 296 214 285 231 b 254 449 260 309 254 390 b 285 711 254 557 265 655 b 357 777 298 746 317 777 b 408 734 377 777 402 766 b 506 651 416 686 458 651 b 524 653 512 651 518 652 b 605 750 572 662 605 703 b 603 770 605 757 604 764 b 557 871 603 770 594 822 b 352 970 522 920 448 970 b 188 913 291 970 231 950 b 98 780 144 877 117 829 b 56 449 62 680 56 567 b 87 196 56 382 58 288 b 164 65 102 151 124 104 b 328 -1 204 26 264 -1 z m 127 734 l 124 734 b 116 744 119 735 116 739 l 116 746 b 294 937 137 847 206 930 l 295 937 b 305 928 300 937 304 933 b 296 918 305 922 301 918 b 136 743 219 911 155 837 b 127 734 135 737 131 734 z m 108 646 l 106 646 b 98 654 102 646 98 650 l 98 656 b 106 704 100 672 103 688 b 116 712 107 709 111 712 b 126 702 121 712 126 707 l 126 700 b 118 654 123 685 120 669 b 108 646 117 649 113 646 z m 313 483 l 311 483 b 302 492 306 484 302 488 l 302 494 b 322 530 305 507 313 519 b 359 549 332 540 345 548 l 360 549 b 370 538 366 549 370 544 b 361 528 370 533 366 529 b 336 516 353 528 344 524 b 322 490 329 509 323 498 b 313 483 321 486 317 483 z m 418 251 l 414 252 b 408 261 410 254 408 257 l 409 265 b 424 342 418 289 424 326 b 434 353 424 349 429 353 b 444 342 439 353 444 349 b 427 257 444 321 439 285 b 418 251 426 254 422 251 z "},"H":{"ha":665,"x_min":0,"x_max":0,"o":"m 166 0 b 261 100 219 3 261 47 b 256 363 259 161 257 242 l 408 366 b 399 108 406 260 404 165 l 399 100 b 499 1 399 45 441 2 b 598 95 551 1 596 41 b 609 561 606 199 609 389 b 602 881 609 694 607 817 b 502 974 598 935 555 974 b 403 875 447 974 403 928 b 409 564 405 821 409 727 l 256 562 b 262 876 257 728 260 821 b 163 974 262 930 218 974 b 64 881 110 973 68 933 b 56 494 58 806 56 652 b 62 97 56 342 58 187 b 163 0 64 43 109 0 z m 86 711 b 76 722 81 711 76 716 b 126 951 76 890 81 918 b 132 953 128 952 130 953 b 142 943 138 952 142 947 b 138 935 142 939 141 937 b 96 722 100 907 96 891 b 86 711 96 716 92 711 z m 445 686 b 435 696 439 686 435 690 b 429 878 434 715 431 856 b 439 886 429 882 434 886 b 449 876 444 886 449 882 l 454 696 b 445 686 454 691 450 686 z m 87 620 b 77 630 81 620 77 625 l 77 677 b 87 687 77 682 81 687 b 97 677 92 687 97 682 l 96 629 b 87 620 96 624 92 620 z m 267 537 b 256 547 261 537 256 541 b 266 557 256 553 260 557 l 340 559 b 351 549 346 559 351 555 b 340 538 351 543 347 538 z m 420 127 l 419 127 b 410 136 414 127 410 132 b 412 184 412 155 411 164 b 422 194 412 190 417 194 b 432 185 428 194 432 190 l 430 137 b 420 127 430 132 426 127 z "},"I":{"ha":323,"x_min":0,"x_max":0,"o":"m 167 -1 b 260 98 220 3 260 47 l 260 106 b 254 376 256 171 254 269 b 265 865 254 541 258 730 l 265 871 b 170 970 265 924 224 968 l 166 970 b 66 875 113 970 68 928 b 55 375 60 734 55 544 b 61 94 55 267 57 166 b 161 -1 64 41 108 -1 z m 98 707 b 88 718 93 707 88 712 b 96 882 88 801 90 849 b 138 947 102 914 117 932 b 144 949 140 948 142 949 b 154 939 151 949 154 943 b 150 930 154 935 153 932 b 115 878 130 917 121 907 b 109 718 110 848 109 801 b 98 707 109 712 104 707 z m 99 616 b 89 627 93 616 89 621 l 89 673 b 99 683 89 679 94 683 l 100 683 b 109 674 104 683 109 679 l 109 625 b 99 616 109 620 104 616 z "},"J":{"ha":591,"x_min":0,"x_max":0,"o":"m 289 0 b 430 68 346 0 399 32 b 492 191 461 106 479 147 b 533 481 519 279 529 380 b 535 587 534 517 535 553 b 522 880 535 747 522 880 b 424 970 518 932 475 970 l 233 970 b 134 871 178 970 134 926 b 233 772 134 817 178 772 l 330 772 b 334 563 334 716 334 645 l 334 490 b 279 200 334 445 321 200 b 260 221 269 200 263 213 b 256 267 256 236 256 256 l 256 286 b 169 385 256 336 220 379 l 158 386 b 58 297 107 386 64 348 b 56 260 58 297 56 283 b 70 164 56 236 59 201 b 138 54 81 129 100 87 b 289 0 175 21 231 0 z m 161 890 l 159 890 b 152 899 155 891 152 895 l 152 902 b 172 937 155 914 161 927 b 209 956 182 947 195 955 l 210 956 b 220 946 215 956 220 951 b 210 936 220 941 215 936 b 186 923 202 935 193 930 b 172 898 178 916 173 905 b 161 890 170 893 166 890 z m 231 783 b 221 793 225 783 221 787 l 221 794 b 231 803 221 799 226 803 b 305 804 263 804 277 804 b 315 795 311 804 315 800 b 305 785 315 789 311 785 z m 80 302 l 77 302 b 69 313 73 304 69 308 l 69 314 b 89 349 72 327 79 339 b 126 368 99 359 112 368 l 127 368 b 137 358 132 368 137 363 b 127 348 137 353 133 349 b 103 336 120 348 111 343 b 89 310 96 328 90 318 b 80 302 87 305 84 302 z m 83 214 l 81 214 b 72 223 76 214 72 218 l 68 271 b 79 281 68 276 73 281 b 88 271 83 280 87 276 l 92 223 b 83 214 92 218 88 214 z "},"K":{"ha":659,"x_min":0,"x_max":0,"o":"m 503 0 b 546 9 517 0 532 3 b 603 100 582 26 603 62 b 593 143 603 114 600 129 l 406 537 l 580 817 b 596 871 591 833 596 852 b 585 917 596 886 592 903 b 500 970 568 948 536 968 l 497 970 b 412 922 463 970 429 953 l 259 677 b 266 865 261 746 263 810 l 266 871 b 170 971 266 925 224 969 l 167 971 b 67 875 113 971 68 929 b 56 379 60 736 56 547 b 62 95 56 269 58 168 b 161 0 64 41 109 0 l 167 0 b 260 99 220 3 260 47 l 260 106 b 256 296 258 155 256 221 l 281 336 l 413 58 b 503 0 430 22 466 0 z m 94 709 b 84 719 88 709 84 713 b 92 882 84 802 85 850 b 134 948 98 915 113 932 b 140 949 136 949 138 949 b 150 939 146 949 150 945 b 146 931 150 937 149 933 b 111 878 126 918 117 907 b 104 719 105 849 104 802 b 94 709 104 713 100 709 z m 397 829 b 391 831 395 829 393 830 b 386 840 388 833 386 836 b 387 844 386 841 387 843 b 439 921 408 880 422 904 b 503 949 456 937 477 946 l 505 949 b 515 939 510 949 514 945 b 505 929 515 934 511 929 b 454 907 481 926 468 920 b 405 834 439 892 425 870 b 397 829 403 831 400 829 z m 94 617 b 85 627 90 617 85 621 l 85 674 b 94 684 85 680 89 684 l 96 684 b 104 674 100 684 104 680 l 104 627 b 94 617 104 622 100 617 z m 327 290 b 317 296 323 290 319 292 b 298 338 310 311 306 319 l 296 342 b 306 352 296 347 300 352 b 315 346 310 352 314 350 l 336 304 l 336 300 b 331 290 336 296 334 292 z "},"L":{"ha":610,"x_min":0,"x_max":0,"o":"m 453 0 b 553 99 507 0 553 44 b 454 199 553 154 509 199 l 257 200 l 256 344 b 283 852 256 530 262 736 b 285 870 284 858 285 864 b 185 969 285 924 241 969 b 86 885 134 968 94 934 b 56 363 63 748 56 547 b 60 97 56 266 58 172 b 159 1 62 44 106 2 z m 109 711 l 107 711 b 98 721 102 712 98 716 b 165 947 109 886 121 920 b 170 949 167 948 168 949 b 180 939 176 948 180 943 b 175 930 180 935 178 932 b 118 721 136 907 130 886 b 109 711 118 716 114 711 z m 102 621 l 101 621 b 92 631 96 621 92 625 l 96 677 b 105 687 96 683 100 687 b 115 677 111 687 115 683 b 112 629 115 656 113 648 b 102 621 111 625 107 621 z m 376 166 b 366 176 370 166 366 171 b 376 186 366 182 370 186 l 450 188 b 460 178 455 188 460 184 l 460 177 b 450 168 460 172 455 168 z "},"M":{"ha":825,"x_min":0,"x_max":0,"o":"m 667 0 b 767 100 722 0 767 45 l 767 267 b 732 886 767 477 764 703 b 635 968 724 934 683 968 b 550 922 600 968 568 951 b 420 616 500 841 459 730 b 296 916 385 722 344 831 b 210 966 279 947 245 966 b 113 888 158 962 122 936 b 55 100 63 656 56 356 b 155 0 55 45 100 0 b 254 100 209 0 254 45 l 254 101 b 263 442 254 208 257 327 b 319 258 283 377 304 306 b 414 188 332 218 370 188 b 508 254 456 188 494 214 b 566 428 523 297 546 366 b 568 101 568 318 568 205 l 568 100 b 667 0 568 45 613 0 z m 119 705 l 118 705 b 109 715 113 706 109 710 b 182 941 120 886 140 916 b 188 942 184 942 186 942 b 197 932 194 942 197 937 b 193 924 197 929 196 926 b 129 715 153 901 141 878 b 119 705 129 709 125 705 z m 567 873 l 562 874 b 557 883 559 876 557 879 l 558 888 b 625 942 573 917 597 941 b 636 932 631 942 635 939 b 626 922 636 927 632 922 b 576 879 610 921 588 903 b 567 873 574 875 570 873 z m 481 671 l 480 671 b 471 681 475 671 471 676 b 482 715 472 689 477 699 l 503 770 b 536 844 523 817 512 797 b 552 861 541 853 545 861 b 562 850 558 861 562 856 b 559 844 562 848 561 846 b 553 835 559 843 556 840 b 491 679 522 773 494 686 b 481 671 490 674 486 671 z m 111 614 b 102 623 106 614 102 618 l 105 671 b 115 681 106 676 110 680 b 125 670 121 681 125 675 l 121 623 b 111 614 121 618 117 614 z m 387 216 l 385 216 b 331 274 360 220 332 245 b 341 283 331 279 336 283 b 351 274 347 283 351 279 b 389 235 352 258 373 239 b 397 226 393 235 397 231 b 387 216 396 220 393 216 z "},"N":{"ha":704,"x_min":0,"x_max":0,"o":"m 537 0 b 555 1 543 0 549 1 b 636 93 600 9 633 47 b 648 545 644 221 648 390 b 638 881 648 680 645 804 b 540 972 634 933 591 972 l 538 972 b 439 874 484 972 439 928 l 440 863 b 449 534 446 798 449 672 b 260 914 386 668 323 798 b 172 966 242 947 208 966 b 153 964 166 966 159 966 b 73 877 110 956 77 920 b 56 458 62 761 56 610 b 71 91 56 330 60 201 b 170 1 76 39 119 1 l 180 1 b 270 100 231 6 270 50 l 269 111 b 255 450 259 208 255 329 l 255 477 b 446 58 319 342 382 201 b 537 0 463 22 498 0 z m 98 696 l 97 696 b 87 706 92 696 87 701 b 103 869 92 789 95 837 b 149 932 111 901 126 918 l 154 934 l 155 934 b 164 924 161 934 164 929 b 159 916 164 921 163 918 b 123 864 139 903 130 893 b 108 705 115 836 112 788 b 98 696 107 701 103 696 z m 497 682 b 487 692 492 682 487 686 l 481 872 b 491 882 481 878 486 882 b 501 873 496 882 501 878 b 507 692 502 852 507 710 l 507 692 b 497 682 507 686 503 682 z m 93 604 b 83 614 87 604 83 609 b 86 661 84 632 85 641 b 96 671 86 667 90 671 l 96 671 b 106 661 102 671 106 666 b 103 614 104 640 104 631 b 93 604 103 608 98 604 z "},"O":{"ha":692,"x_min":0,"x_max":0,"o":"m 341 0 b 578 163 448 0 538 76 b 635 471 618 253 631 358 l 635 527 b 600 782 635 618 629 704 b 361 967 566 876 475 962 b 345 968 355 968 350 968 b 201 924 293 967 241 952 b 107 803 157 892 127 848 b 56 496 68 711 59 607 l 56 449 b 96 184 56 353 66 263 b 330 0 132 91 218 5 z m 125 734 l 123 734 b 116 744 119 735 116 739 l 116 746 b 294 937 136 846 205 929 l 294 937 b 304 927 300 937 304 932 b 295 917 304 922 300 918 b 135 742 218 910 155 836 b 125 734 134 737 130 734 z m 340 199 b 281 256 317 199 301 206 b 254 460 264 300 254 374 l 255 491 b 290 724 258 592 270 679 b 351 772 305 757 322 772 b 413 713 378 772 396 762 b 437 515 429 671 437 600 l 436 477 b 397 245 433 378 418 292 b 340 199 381 212 362 199 z m 108 645 l 106 645 b 98 655 101 646 98 650 l 98 656 b 106 704 100 671 102 688 b 115 712 107 708 111 712 b 125 703 121 712 125 707 l 125 700 b 117 654 122 684 119 668 b 108 645 117 649 113 645 z m 410 195 b 403 197 408 195 405 195 b 399 204 401 199 399 201 b 402 211 399 207 400 210 b 449 366 429 243 445 306 b 458 376 449 372 453 376 l 460 376 b 469 366 465 376 469 372 l 469 365 b 417 198 465 302 450 237 b 410 195 415 196 412 195 z "},"P":{"ha":663,"x_min":0,"x_max":0,"o":"m 171 0 b 267 100 225 2 267 46 l 267 104 b 256 365 263 192 259 275 b 381 398 292 370 336 380 b 532 498 432 417 487 448 b 608 705 577 549 608 623 b 516 902 608 787 570 861 b 349 964 463 943 402 958 b 281 967 326 966 303 967 l 273 967 b 166 957 227 966 189 961 l 163 957 b 83 911 130 956 100 938 l 83 909 l 81 907 b 67 855 72 892 67 874 l 67 848 b 56 507 58 716 56 606 b 68 97 56 350 63 225 b 168 0 69 43 113 0 z m 104 712 b 94 722 99 713 94 717 l 94 723 b 106 861 96 774 94 822 b 140 908 113 880 123 897 b 209 928 157 920 180 927 l 210 928 b 219 918 215 928 219 924 b 210 909 219 913 215 909 b 152 892 183 907 165 901 b 125 854 139 883 131 870 b 114 722 115 821 116 774 b 104 712 114 716 109 712 z m 255 568 b 261 766 256 628 258 693 b 298 767 273 766 286 767 b 409 705 355 766 409 754 b 255 568 409 618 330 583 z m 99 623 b 90 633 94 624 90 628 l 92 681 b 102 690 93 686 97 690 b 113 680 108 690 113 686 l 109 633 b 99 623 109 627 104 623 z m 340 553 b 330 560 335 553 332 555 l 330 563 b 336 572 330 568 332 571 b 421 648 368 582 407 607 b 431 655 422 652 426 655 b 440 646 436 655 440 651 l 439 642 b 342 553 423 592 378 564 z "},"Q":{"ha":692,"x_min":0,"x_max":0,"o":"m 536 -42 b 586 -28 553 -42 570 -37 b 635 58 618 -10 635 23 b 621 109 635 75 631 93 l 583 176 b 635 472 620 263 631 364 l 635 527 b 600 783 635 618 629 704 b 361 968 566 877 475 962 l 345 968 b 201 925 292 968 241 954 b 107 804 157 894 127 850 b 56 497 68 713 59 608 l 56 450 b 96 184 56 354 66 264 b 330 1 132 92 218 7 l 339 1 b 441 24 375 1 410 9 l 449 9 b 536 -42 467 -24 501 -42 z m 135 702 l 132 702 b 125 711 127 703 125 707 l 125 713 b 302 905 146 814 214 897 l 304 905 b 313 895 309 905 313 901 l 313 894 b 304 884 313 889 310 885 b 144 709 228 878 163 804 b 135 702 143 705 140 702 z m 340 199 b 281 256 319 200 296 218 b 254 460 264 300 254 374 l 255 492 b 290 725 258 593 270 680 b 351 770 302 753 321 770 b 413 715 376 770 397 758 b 437 515 429 673 437 600 l 436 477 b 431 401 435 451 433 425 b 386 410 417 408 401 410 b 290 311 330 408 290 361 b 304 260 290 294 295 276 z m 117 613 l 115 613 b 107 622 111 614 107 617 l 107 624 b 115 671 109 640 112 656 b 125 680 116 676 120 680 b 134 669 130 680 134 675 l 134 667 b 127 621 132 652 128 635 b 117 613 126 616 122 613 z m 336 267 b 327 272 332 267 329 269 b 318 307 321 282 318 294 l 318 311 b 334 350 319 326 323 340 b 340 353 336 352 338 353 l 341 353 b 351 343 347 353 351 348 b 347 336 351 340 349 338 b 338 311 342 330 338 321 l 338 307 b 344 282 338 298 340 288 b 345 277 345 281 345 279 b 340 268 345 273 344 270 z "},"R":{"ha":614,"x_min":0,"x_max":0,"o":"m 171 0 b 267 100 225 2 267 46 l 260 256 l 413 64 b 492 25 433 38 463 25 b 553 46 513 25 535 32 b 591 125 578 66 591 95 b 569 187 591 146 584 169 l 366 444 b 496 534 410 462 457 489 b 566 724 538 581 566 648 b 481 907 566 799 530 868 b 328 964 431 945 376 958 b 267 967 307 966 286 967 l 259 967 b 155 956 211 966 172 960 b 131 950 146 956 138 953 b 66 857 92 935 66 899 l 67 846 b 56 506 58 714 56 604 b 68 97 56 349 63 225 b 168 0 69 43 113 0 z m 103 713 l 102 713 b 92 722 97 713 92 717 l 92 723 b 104 861 94 774 92 822 b 138 908 111 880 121 897 b 207 928 155 920 177 927 l 208 928 b 217 918 213 928 217 924 b 208 909 217 913 213 909 b 150 892 181 907 163 901 b 123 854 137 883 129 870 b 112 722 113 821 114 774 b 103 713 112 718 108 713 z m 256 617 b 262 768 257 663 258 713 l 283 768 b 367 724 328 768 367 760 b 347 665 367 692 359 680 b 256 617 328 644 293 626 z m 97 623 b 87 633 92 624 87 628 l 90 681 b 100 690 91 686 95 690 b 111 680 106 690 111 686 l 107 633 b 97 623 107 627 102 623 z m 302 585 b 292 592 298 585 294 587 l 292 595 b 299 604 292 599 294 603 b 383 680 331 614 370 638 b 393 687 385 684 389 687 b 403 677 399 687 403 682 l 402 673 b 304 585 386 624 341 596 z m 334 233 b 326 237 330 233 328 234 b 261 325 319 245 269 315 b 259 331 260 327 259 329 b 269 341 259 336 263 340 b 277 337 272 341 275 340 l 342 248 b 344 242 343 247 344 244 b 340 235 344 239 342 236 b 334 233 338 233 336 233 z "},"S":{"ha":632,"x_min":0,"x_max":0,"o":"m 301 -2 b 484 64 366 -2 430 20 b 576 265 536 109 576 182 b 500 463 576 345 543 415 b 369 568 458 511 410 541 b 275 636 328 594 294 617 b 252 700 257 655 252 675 b 313 778 252 750 277 778 b 373 736 357 778 373 736 b 465 673 388 697 425 673 b 503 681 477 673 490 675 b 564 773 541 696 564 734 b 557 812 564 786 562 799 b 307 977 557 812 481 977 b 138 903 245 977 188 952 b 54 688 89 854 54 779 b 132 499 54 611 89 543 b 260 401 174 454 221 427 b 351 331 300 375 333 351 b 377 262 370 310 377 291 b 303 197 377 226 348 197 b 227 249 266 197 233 212 b 129 333 218 298 177 333 b 112 332 123 333 117 332 b 28 234 63 323 28 281 b 31 216 28 228 29 222 b 79 106 31 216 40 159 b 301 -2 117 54 197 -2 z m 103 749 l 102 749 b 94 758 97 750 94 754 l 94 761 b 272 951 115 861 184 944 l 273 951 b 283 942 278 951 282 947 b 273 932 283 937 279 932 b 113 757 197 925 133 851 b 103 749 113 752 108 749 z m 86 660 l 85 660 b 75 669 79 661 75 665 l 76 671 b 84 718 78 686 81 703 b 94 726 85 723 90 726 b 104 716 99 726 104 722 l 104 714 b 96 669 100 699 98 683 b 86 660 95 663 91 660 z m 380 188 b 372 192 377 188 374 189 b 370 198 371 194 370 196 b 374 206 370 201 372 204 b 401 248 390 217 397 231 b 403 266 402 254 403 260 b 399 293 403 275 401 285 l 399 296 b 409 306 399 301 403 306 b 419 298 414 306 418 302 b 423 268 421 289 423 279 b 420 243 423 260 422 251 b 386 190 416 223 406 203 b 380 188 384 189 382 188 z m 71 182 b 62 188 68 182 64 184 b 54 229 58 200 54 214 b 56 243 54 234 55 239 b 85 299 58 263 66 283 b 92 302 87 301 89 302 b 101 292 97 301 101 296 b 98 284 101 289 100 286 b 75 241 83 272 77 257 l 74 230 b 81 195 74 217 77 205 l 81 191 b 75 182 81 188 79 184 z "},"T":{"ha":787,"x_min":0,"x_max":0,"o":"m 392 0 b 492 99 448 0 492 45 l 494 777 b 614 771 551 776 598 774 b 633 769 621 770 627 769 b 730 852 680 769 723 804 b 732 869 732 858 732 864 b 647 967 732 918 696 960 b 394 983 585 977 490 983 b 140 967 298 983 202 978 b 56 869 91 959 56 917 b 57 852 56 863 56 857 b 156 769 66 803 108 769 b 174 771 162 769 168 770 b 295 777 189 774 237 776 l 293 100 b 392 0 293 45 338 0 z m 159 939 b 150 947 154 939 150 943 l 150 949 b 159 958 150 954 154 958 l 202 959 l 227 960 b 248 959 235 960 242 960 b 257 948 253 959 257 954 b 248 939 256 943 252 939 z m 94 825 b 84 833 90 825 85 828 b 79 865 81 842 79 854 b 82 888 79 873 80 880 b 116 942 86 908 96 928 b 122 943 117 943 120 943 b 132 934 128 943 132 939 b 127 926 132 930 130 928 b 101 884 113 915 104 900 b 99 865 100 878 99 871 b 103 839 99 856 101 847 l 104 836 b 97 826 104 831 101 827 z m 318 109 b 308 119 313 109 308 113 b 309 240 309 163 309 187 b 319 250 309 245 313 250 b 329 240 324 250 329 245 l 328 117 b 318 109 328 112 323 109 z "},"U":{"ha":694,"x_min":0,"x_max":0,"o":"m 347 0 b 568 114 428 0 516 39 b 638 412 618 189 638 286 b 626 878 638 737 626 878 b 527 970 621 930 578 970 l 517 969 b 427 871 466 964 427 922 l 428 861 b 439 412 428 861 439 732 b 404 226 439 309 420 250 b 347 199 390 206 372 199 b 291 227 322 199 304 206 b 254 412 274 252 254 311 b 267 867 254 713 267 867 l 267 875 b 169 975 267 929 224 974 l 163 975 b 68 882 113 973 71 932 b 56 412 68 882 56 718 b 126 115 56 288 75 191 b 347 0 177 41 265 0 z m 95 716 l 94 716 b 84 726 88 716 84 721 b 99 890 87 809 91 857 b 144 953 107 922 122 939 b 150 955 146 954 148 955 b 160 945 156 955 160 949 b 155 936 160 941 159 938 b 118 884 135 923 125 913 b 104 726 111 856 108 808 b 95 716 104 721 100 716 z m 469 671 b 459 680 464 671 459 675 b 454 861 458 698 454 840 l 454 862 b 463 871 454 867 458 871 b 473 861 469 871 473 867 l 479 680 b 469 671 479 675 474 671 z m 91 625 l 90 625 b 80 635 84 625 80 629 l 82 682 b 92 691 83 686 86 691 l 93 691 b 102 681 98 691 102 686 b 100 634 101 661 101 651 b 91 625 100 629 96 625 z m 359 158 l 354 158 b 344 169 348 159 344 163 b 353 178 345 174 349 178 l 359 178 b 401 193 376 178 390 184 b 429 230 414 203 423 218 b 437 237 430 234 433 237 b 448 227 444 237 448 232 l 447 222 b 414 178 441 207 429 191 b 359 158 399 166 380 158 z "},"V":{"ha":741,"x_min":0,"x_max":0,"o":"m 345 0 b 374 4 355 0 364 1 b 380 5 376 4 378 5 b 382 6 380 6 381 6 b 441 68 410 17 432 39 b 684 873 536 268 684 614 l 684 874 b 584 974 684 929 639 974 l 583 974 b 485 874 528 973 485 928 l 485 873 b 353 370 485 755 422 549 b 254 873 299 552 254 771 l 254 874 b 154 974 254 929 209 974 l 153 974 b 55 874 98 973 55 928 l 55 873 b 252 69 55 654 149 282 b 345 0 265 27 304 0 z m 109 691 l 108 691 b 98 700 103 691 98 695 b 83 848 89 770 83 816 l 84 863 b 118 934 87 897 98 916 b 125 937 120 935 122 937 b 135 926 131 936 135 931 b 132 919 135 924 134 921 b 104 862 114 903 106 891 l 103 848 b 118 703 103 819 109 773 l 118 701 b 109 691 118 696 114 692 z m 486 646 l 483 646 b 477 656 479 648 477 652 l 477 660 b 500 749 483 672 492 709 b 513 865 507 789 513 833 b 523 875 513 870 517 875 b 533 865 529 875 533 871 b 519 745 533 831 527 786 b 496 652 512 704 503 669 b 486 646 494 648 490 646 z m 127 601 l 125 601 b 116 609 121 601 117 604 l 107 654 l 107 656 b 117 667 107 663 111 667 b 127 659 121 667 126 663 b 136 612 130 639 132 630 l 136 610 b 127 601 136 606 132 602 z "},"W":{"ha":939,"x_min":0,"x_max":0,"o":"m 642 -7 b 724 35 674 -7 705 7 b 865 481 814 163 848 326 b 882 836 882 616 882 745 l 882 875 b 783 974 882 929 838 974 b 683 875 728 974 683 929 l 683 831 b 668 503 683 742 682 623 b 657 433 665 480 661 456 b 572 696 635 525 609 618 b 490 753 556 728 525 750 l 482 753 b 400 709 449 753 418 736 b 282 416 342 625 311 519 b 270 499 277 443 273 471 b 254 875 254 642 254 786 l 254 876 b 154 976 254 930 209 976 l 153 976 b 55 876 98 975 55 930 l 55 875 b 72 477 55 786 55 634 b 207 35 90 320 120 157 b 288 -7 225 8 256 -7 l 297 -7 b 378 50 332 -4 363 18 b 469 345 416 134 440 241 l 472 356 l 476 340 b 548 59 501 237 522 136 b 629 -7 561 24 591 -1 z m 111 692 l 110 692 b 101 701 105 692 101 696 b 97 812 98 749 97 785 b 100 865 97 833 98 850 b 139 932 105 898 118 916 b 145 935 141 934 143 935 b 155 924 151 935 155 930 b 151 917 155 922 154 919 b 119 862 132 902 124 891 b 117 814 117 850 117 834 b 121 702 117 787 119 750 l 121 701 b 111 692 121 696 116 692 z m 726 644 b 715 654 720 644 715 649 l 715 677 b 724 867 715 740 720 823 b 734 876 725 872 729 876 l 736 876 b 744 867 741 876 744 872 l 744 865 b 735 667 739 820 735 728 l 735 654 b 726 644 735 649 731 644 z m 414 641 l 411 641 b 403 651 406 642 403 646 l 403 652 b 427 703 406 669 414 687 b 482 733 440 718 458 730 l 484 734 b 494 724 489 734 493 729 b 485 714 494 719 490 714 b 442 690 467 711 452 702 b 422 648 432 677 425 662 b 414 641 421 644 418 641 z m 123 600 l 121 600 b 112 609 117 600 113 604 b 106 655 110 626 109 635 l 106 656 b 116 667 106 662 111 667 b 126 657 121 667 125 663 l 132 610 b 123 600 132 605 127 601 z "},"X":{"ha":831,"x_min":0,"x_max":0,"o":"m 155 -4 b 244 52 191 -4 227 16 b 416 348 291 143 349 241 b 586 50 479 244 537 142 b 674 -3 604 16 638 -3 b 721 8 690 -3 706 0 b 774 96 755 26 774 60 b 762 144 774 113 770 129 b 537 531 698 262 623 396 b 735 814 598 621 665 715 b 754 873 748 832 754 852 b 744 918 754 889 751 904 b 655 972 727 951 692 972 b 573 930 623 972 591 957 b 419 710 519 854 468 781 b 253 934 366 787 311 862 b 175 972 234 958 205 972 l 173 972 b 85 915 135 972 101 949 b 75 872 78 901 75 887 b 98 809 75 850 83 827 b 299 532 168 722 235 629 b 67 142 208 394 130 264 b 56 96 59 127 56 111 b 110 7 56 60 75 25 b 155 -4 124 -1 140 -4 z m 233 696 b 224 701 230 696 227 698 b 137 818 189 751 158 787 b 109 888 119 843 109 865 b 111 905 109 894 109 899 b 120 912 111 909 115 912 b 130 903 125 912 130 908 l 130 900 b 128 888 129 896 128 892 b 153 829 128 871 137 853 b 241 712 173 800 204 763 b 243 707 242 711 243 709 b 238 698 243 703 241 700 b 233 696 237 696 235 696 z m 474 709 l 469 710 b 465 719 466 712 465 715 b 466 724 465 721 465 723 b 587 900 498 778 556 860 b 595 903 589 902 591 903 l 595 903 b 605 894 602 903 605 899 b 603 888 605 892 604 890 b 484 714 572 848 515 766 b 474 709 481 711 477 709 z m 290 626 b 283 630 288 626 285 627 l 254 667 b 252 673 253 669 252 671 b 262 683 252 678 256 683 l 263 683 b 271 679 266 683 269 682 b 298 642 283 663 288 656 b 300 635 300 640 300 637 b 296 628 300 633 299 629 b 290 626 294 627 292 626 z "},"Y":{"ha":765,"x_min":0,"x_max":0,"o":"m 379 -1 b 477 97 433 -1 477 43 l 479 398 b 706 848 579 524 659 674 b 709 874 708 857 709 865 b 614 974 709 926 669 972 l 610 974 b 513 899 565 974 525 943 b 382 602 484 788 438 690 b 334 690 366 629 349 660 b 252 899 295 770 262 857 b 157 974 241 942 202 972 l 155 974 b 56 876 98 974 56 928 b 60 848 56 866 57 857 b 155 604 77 784 111 694 b 280 401 191 529 229 458 l 279 97 b 378 -1 279 43 323 -1 z m 158 693 b 149 699 154 693 150 696 b 91 852 116 776 98 820 b 88 878 89 861 88 870 b 104 930 88 897 94 913 b 113 935 106 932 109 935 b 122 924 119 934 122 930 b 121 919 122 923 121 921 b 108 880 112 905 108 895 b 111 857 108 873 109 865 b 167 707 117 827 134 783 l 168 703 b 162 694 168 699 165 696 z m 463 651 b 458 653 461 651 459 652 b 453 661 454 655 453 659 b 455 667 453 663 454 665 b 494 750 463 677 479 712 b 528 861 509 788 523 831 b 538 869 529 866 533 869 l 538 869 b 548 860 544 869 548 865 l 548 858 b 512 743 542 825 527 781 b 471 656 497 704 482 671 b 463 651 469 653 466 651 z m 199 611 b 191 616 196 611 193 613 l 170 659 l 168 663 b 179 673 168 668 172 673 b 188 667 182 673 186 671 b 209 626 197 649 201 641 l 210 621 b 204 612 210 617 208 614 z "},"Z":{"ha":684,"x_min":0,"x_max":0,"o":"m 155 -1 l 527 3 b 627 102 582 3 627 47 l 627 104 b 528 201 626 157 583 201 b 327 199 397 201 462 201 b 604 842 437 401 536 623 b 609 871 607 852 609 861 b 509 970 609 924 566 970 l 174 970 b 74 871 119 970 74 926 b 174 772 74 817 119 772 l 370 772 b 69 150 291 555 183 336 b 55 98 60 134 55 117 b 68 49 55 81 59 64 b 155 -1 85 18 119 -1 z m 184 939 b 174 947 178 939 174 943 l 174 949 b 184 958 174 954 179 958 l 227 959 l 252 960 b 272 959 259 960 267 960 b 281 949 277 959 281 954 l 281 948 b 272 939 281 943 277 939 z m 119 825 b 109 833 114 825 110 828 b 104 865 106 842 104 853 b 106 888 104 872 104 880 b 140 942 111 908 121 928 b 146 943 142 943 144 943 b 156 934 153 943 156 939 b 152 926 156 930 155 928 b 125 884 137 915 130 900 b 124 867 124 878 124 873 b 128 839 124 857 125 847 l 128 836 b 121 826 128 831 126 827 z m 292 484 b 286 486 290 484 288 484 b 282 493 283 488 282 490 b 284 499 282 495 283 497 b 328 580 292 510 311 543 b 369 689 345 617 361 659 b 378 697 370 694 374 697 b 389 687 384 696 389 692 l 388 684 b 345 572 380 652 363 610 b 300 487 328 534 311 502 b 292 484 298 485 295 484 z m 587 86 b 576 96 582 86 577 90 b 556 140 576 114 568 129 b 517 163 545 151 530 159 b 510 173 512 165 510 169 b 520 183 510 178 513 183 l 523 182 b 570 154 539 178 556 168 b 597 96 585 140 595 120 b 587 86 597 91 593 86 z "},"[":{"ha":497,"x_min":0,"x_max":0,"o":"m 341 -132 b 440 -33 395 -132 440 -87 b 341 67 440 22 395 67 l 254 67 l 254 920 l 292 920 b 391 1019 347 920 391 964 b 291 1119 391 1074 346 1119 l 155 1119 b 56 1019 100 1119 56 1074 l 56 -33 b 155 -132 56 -87 100 -132 z "},"\\":{"ha":847,"x_min":0,"x_max":0,"o":"m 692 -62 b 743 -47 709 -62 727 -58 b 791 37 774 -28 791 4 b 775 90 791 56 786 74 l 240 959 b 155 1007 222 989 190 1007 l 151 1007 b 67 954 116 1006 83 985 b 56 908 60 939 56 924 b 71 854 56 889 61 871 l 606 -14 b 692 -62 625 -45 658 -62 z "},"]":{"ha":497,"x_min":0,"x_max":0,"o":"m 341 -132 b 440 -33 396 -132 440 -87 l 440 1019 b 341 1119 440 1074 396 1119 l 205 1119 b 105 1019 150 1119 105 1074 b 203 920 105 964 149 920 l 241 920 l 241 67 l 155 67 b 56 -33 100 67 56 22 b 155 -132 56 -87 100 -132 z "},"^":{"ha":625,"x_min":0,"x_max":0,"o":"m 469 510 b 515 522 485 510 500 513 b 569 610 549 539 569 574 b 557 657 569 626 565 642 l 400 953 b 313 1006 382 985 349 1006 l 311 1006 b 224 953 274 1006 241 985 l 68 657 b 56 610 60 642 56 625 b 109 522 56 574 75 539 b 155 510 123 513 139 510 b 243 564 191 510 226 530 l 312 694 l 380 564 b 469 510 398 530 433 510 z "},"_":{"ha":928,"x_min":0,"x_max":0,"o":"m 763 -134 b 872 -35 823 -134 872 -90 b 764 64 872 20 823 64 l 165 64 b 56 -35 104 64 56 20 b 166 -134 56 -90 105 -134 z m 115 -12 l 111 -12 b 104 -3 106 -10 104 -6 l 105 2 b 149 41 113 18 125 35 l 153 41 b 163 32 159 41 163 37 b 155 22 163 28 160 24 b 125 -6 140 18 132 7 b 115 -12 123 -10 119 -12 z "},"`":{"ha":296,"x_min":0,"x_max":0,"o":"m 186 793 b 215 802 196 793 206 796 b 239 847 231 812 239 830 b 230 877 239 858 236 868 l 155 994 b 109 1020 144 1010 127 1019 b 55 966 78 1020 55 994 b 64 936 55 956 58 945 l 140 819 b 186 793 150 802 168 793 z "},"a":{"ha":660,"x_min":0,"x_max":0,"o":"m 494 0 b 528 5 505 0 517 2 b 593 90 564 20 589 52 b 603 312 600 156 603 234 b 593 610 603 419 598 528 b 496 704 590 661 549 703 b 429 679 472 704 448 696 b 393 696 418 686 406 692 b 342 705 376 701 360 704 l 323 707 b 200 668 278 705 233 692 b 56 335 96 596 56 469 b 121 103 56 244 77 165 b 317 0 165 41 239 0 b 425 29 358 0 395 11 b 494 0 444 9 469 0 z m 126 492 l 122 493 b 115 503 118 494 115 498 l 115 505 b 309 681 144 604 221 679 b 319 669 314 681 319 675 b 309 660 319 664 314 660 b 135 498 232 660 161 591 b 126 492 134 495 130 492 z m 323 199 b 254 334 288 199 254 239 b 335 509 254 447 289 509 b 402 435 379 509 397 450 l 404 303 b 323 199 387 270 361 199 z m 98 405 l 94 406 b 87 414 90 407 87 411 l 87 416 b 100 464 90 432 94 449 b 109 471 100 468 104 471 b 119 461 114 471 119 466 l 118 458 l 107 412 b 98 405 106 408 102 405 z m 358 160 b 350 165 355 160 351 161 l 349 170 b 353 179 349 174 350 178 b 418 265 382 195 410 239 b 427 272 420 269 422 272 b 438 262 433 272 438 267 l 437 260 b 363 161 428 227 400 182 z "},"b":{"ha":659,"x_min":0,"x_max":0,"o":"m 341 0 b 537 103 418 0 492 41 b 602 331 581 165 602 242 l 602 335 b 471 666 602 465 574 591 b 342 706 436 692 389 706 l 328 705 b 277 695 311 704 294 701 b 260 689 271 694 265 692 b 270 862 262 748 266 806 l 271 872 b 171 971 271 926 227 971 l 168 971 b 72 878 117 969 75 929 b 56 464 62 745 56 602 b 73 92 56 330 61 201 b 134 9 75 55 100 23 b 171 2 146 4 159 2 b 236 26 195 2 218 10 b 341 0 266 10 301 0 z m 102 701 b 92 712 96 701 92 706 b 103 875 94 795 96 843 b 147 940 111 907 125 925 b 152 941 149 941 150 941 l 153 941 b 163 931 159 941 163 937 b 158 923 163 928 161 925 b 123 871 138 910 129 900 b 112 711 116 842 114 794 b 102 701 112 706 108 701 z m 260 644 b 252 648 257 644 254 645 b 250 653 251 650 250 652 b 255 662 250 656 252 660 b 329 686 273 673 301 684 l 339 686 b 356 685 345 686 351 686 b 365 675 361 684 365 680 l 365 673 b 355 665 363 669 359 665 l 353 665 b 340 666 349 666 345 666 b 266 645 315 666 281 655 b 260 644 264 644 262 644 z m 100 610 b 91 620 95 610 91 614 l 92 667 b 102 677 92 672 96 677 b 112 667 108 677 112 672 l 111 620 b 100 610 111 614 106 610 z m 331 199 b 258 290 286 199 266 251 b 255 450 256 341 255 395 b 320 509 267 479 288 509 b 403 347 355 509 403 467 b 331 199 403 237 368 199 z m 370 154 b 361 159 367 154 363 156 b 360 164 361 160 360 162 b 365 172 360 168 362 170 b 424 262 393 191 418 237 b 433 271 425 267 429 271 b 444 260 439 271 444 266 l 443 258 b 376 156 436 226 410 179 b 370 154 374 155 372 154 z "},"c":{"ha":642,"x_min":0,"x_max":0,"o":"m 325 0 b 576 165 500 0 576 165 b 587 208 583 179 587 193 b 528 298 587 245 565 281 b 487 307 515 304 501 307 b 396 248 449 307 412 286 b 328 199 396 248 370 199 b 284 222 310 199 296 208 b 255 334 270 241 255 278 l 255 334 b 288 472 255 392 270 443 b 342 509 302 496 319 509 b 378 484 367 509 376 490 b 474 409 390 439 430 409 b 500 412 483 409 491 410 b 574 509 545 424 574 465 b 570 535 574 517 573 526 b 345 707 549 616 468 707 l 339 707 b 119 578 245 706 164 649 b 56 335 75 507 56 422 l 56 331 b 127 101 56 241 81 161 b 325 0 175 39 248 0 z m 129 492 l 126 492 b 119 503 121 494 119 498 l 119 505 b 313 680 149 604 224 680 b 323 670 319 680 323 675 b 313 660 323 665 319 660 b 138 499 236 660 165 591 b 129 492 137 494 134 492 z m 98 405 l 97 405 b 90 414 92 406 90 410 l 90 417 b 102 464 93 432 98 448 b 111 471 103 468 106 471 l 112 471 b 121 461 117 471 121 466 l 121 458 b 109 413 117 443 112 427 b 98 405 108 408 103 405 z m 433 248 b 427 250 431 248 429 249 b 424 258 425 252 424 255 b 426 264 424 260 425 262 b 473 293 436 278 452 292 l 474 293 b 484 283 479 293 484 288 b 475 273 484 278 480 273 b 441 252 460 273 450 264 b 433 248 439 250 436 248 z "},"d":{"ha":663,"x_min":0,"x_max":0,"o":"m 317 0 b 427 36 361 0 397 15 b 500 3 446 15 473 3 b 534 9 511 3 523 5 b 600 98 572 22 598 58 b 607 414 605 188 607 298 b 600 871 607 566 604 728 b 500 970 599 926 554 970 l 496 970 b 401 871 443 968 401 924 l 401 867 b 405 686 403 809 404 748 b 380 695 397 690 389 693 b 330 705 364 701 347 704 b 315 706 325 705 320 705 b 186 666 268 706 222 692 b 56 335 83 591 56 465 l 56 331 b 121 103 56 242 77 165 b 317 0 166 41 239 0 z m 441 694 b 431 704 435 694 431 699 b 425 884 430 721 425 863 l 425 885 b 435 894 425 890 430 894 l 436 894 b 445 884 441 894 445 889 l 450 705 b 441 694 450 699 446 694 z m 123 492 l 120 492 b 113 503 116 494 113 498 l 113 505 b 307 680 142 604 218 680 b 317 670 313 680 317 675 b 307 660 317 665 313 660 b 133 499 230 660 160 591 b 123 492 132 494 127 492 z m 324 199 b 255 369 279 199 255 265 b 335 509 255 468 298 509 b 408 440 367 509 397 472 b 407 297 408 391 408 342 b 324 199 394 263 370 199 z m 92 405 l 91 405 b 83 414 86 406 83 410 l 83 417 b 96 464 87 432 92 448 b 105 471 97 468 101 471 l 106 471 b 115 460 112 471 115 466 l 115 458 b 103 413 111 443 106 427 b 92 405 102 408 97 405 z m 361 160 b 353 165 358 160 355 161 l 352 170 b 357 178 352 173 354 176 b 422 264 386 195 414 239 b 431 272 423 269 427 272 b 441 262 437 272 441 268 l 441 259 b 367 161 432 227 404 182 b 361 160 366 161 363 160 z "},"e":{"ha":642,"x_min":0,"x_max":0,"o":"m 372 -2 b 505 22 414 -2 459 6 b 572 116 546 36 572 75 b 566 149 572 127 570 138 b 473 216 552 190 513 216 b 439 210 461 216 450 214 b 365 194 408 199 384 194 b 302 218 336 194 318 204 b 296 227 300 220 298 224 b 501 308 385 237 452 264 b 586 496 566 364 586 441 b 498 663 586 568 544 631 b 355 708 452 695 403 708 b 56 357 193 708 56 557 b 170 71 56 250 89 143 b 372 -2 222 24 294 -2 z m 135 499 l 132 500 b 125 509 127 501 125 505 l 126 513 b 320 671 162 603 237 671 l 321 671 b 334 670 326 671 330 671 b 343 659 340 670 343 665 b 334 650 342 654 338 650 l 321 651 b 144 505 248 651 178 590 b 135 499 143 502 139 499 z m 351 395 l 349 395 b 340 406 344 395 340 399 b 350 415 340 411 345 415 l 352 415 b 407 447 374 415 394 429 b 418 484 414 458 418 472 b 414 505 418 492 417 499 l 412 510 b 422 520 412 515 416 520 b 431 515 426 520 429 517 b 439 484 436 505 439 494 b 423 436 439 467 433 451 b 351 395 408 413 382 395 z m 262 423 b 355 509 279 486 322 509 b 387 485 373 509 387 498 b 262 423 387 439 295 423 z m 98 414 l 95 415 b 88 425 91 416 88 420 l 89 428 b 105 473 94 442 99 458 b 114 479 106 477 110 479 b 124 469 119 479 124 475 l 123 466 b 108 422 118 451 112 435 b 98 414 106 418 102 414 z m 519 162 b 512 166 517 162 514 163 b 476 181 503 177 490 180 b 467 191 469 182 467 186 b 475 201 467 196 469 201 l 477 201 b 528 178 494 200 514 195 b 530 172 529 176 530 174 b 526 164 530 169 528 166 b 519 162 524 163 522 162 z "},"f":{"ha":509,"x_min":0,"x_max":0,"o":"m 259 0 b 352 100 311 4 352 47 l 351 108 b 339 475 343 229 340 351 l 376 475 b 475 574 431 475 475 519 b 376 673 475 629 431 673 l 339 673 b 364 749 342 713 353 735 b 418 783 378 766 395 777 b 494 880 464 793 494 834 l 494 891 b 395 979 488 941 446 979 b 368 975 386 979 377 977 b 207 871 311 960 251 928 b 140 672 168 819 144 751 b 56 574 92 665 56 623 b 140 476 56 525 92 484 b 153 94 141 349 144 222 b 253 0 156 41 200 0 z m 204 764 l 201 764 b 194 774 197 765 194 769 l 195 776 b 388 951 224 875 300 951 b 398 941 393 951 398 947 b 388 931 398 936 393 931 b 214 770 311 931 241 863 b 204 764 212 766 209 764 z m 174 676 l 172 676 b 165 686 168 677 165 682 l 165 688 b 177 734 168 703 172 720 b 186 742 178 739 182 742 l 187 742 b 197 732 193 742 197 738 l 196 729 b 184 684 192 714 187 699 b 174 676 183 680 178 676 z m 85 543 l 83 543 b 73 551 79 543 75 546 b 70 574 71 558 70 566 b 79 606 70 585 73 596 b 87 610 81 609 84 610 b 98 601 94 610 98 606 b 96 595 98 599 97 597 b 90 574 91 589 90 582 b 92 556 90 568 91 562 l 93 553 b 85 543 93 549 90 545 z "},"g":{"ha":667,"x_min":0,"x_max":0,"o":"m 351 -265 b 597 12 469 -265 584 -159 b 612 352 606 125 612 238 b 600 616 612 439 608 528 b 500 708 595 669 552 708 b 427 676 472 707 446 696 b 380 695 412 684 397 690 b 330 705 364 701 347 704 b 315 706 325 705 320 705 b 186 666 268 706 222 692 b 56 335 83 591 56 465 l 56 331 b 121 103 56 242 77 165 b 317 0 166 41 239 0 b 398 19 348 0 374 7 b 351 -66 389 -62 353 -66 b 285 -45 303 -66 285 -45 b 214 -16 266 -26 240 -16 b 143 -45 189 -16 163 -26 b 115 -115 124 -64 115 -90 b 145 -187 115 -141 125 -168 b 351 -265 145 -187 227 -265 z m 123 492 l 120 492 b 113 503 116 494 113 498 l 113 505 b 307 680 142 604 218 680 b 317 670 313 680 317 675 b 307 660 317 665 313 660 b 133 499 230 660 160 591 b 123 492 132 494 127 492 z m 324 199 b 255 369 279 199 255 265 b 335 509 255 468 298 509 b 411 425 372 509 408 459 b 412 421 412 424 412 422 l 412 342 l 412 309 l 408 298 b 324 199 394 264 370 199 z m 92 405 l 91 405 b 83 415 87 406 83 410 l 83 417 b 96 464 87 432 92 448 b 105 471 97 468 101 471 l 106 471 b 115 460 112 471 115 466 l 115 458 b 103 413 111 443 106 427 b 92 405 102 408 97 405 z m 361 160 b 353 165 358 160 355 161 l 352 170 b 357 178 352 173 354 176 b 422 264 386 195 414 239 b 431 272 423 269 427 272 b 441 262 437 272 441 268 l 441 259 b 367 161 432 227 404 182 b 361 160 366 161 363 160 z m 174 -180 b 168 -178 172 -180 170 -180 b 137 -127 153 -168 142 -149 b 134 -109 136 -121 134 -115 b 153 -66 134 -93 140 -77 b 160 -63 155 -64 157 -63 b 170 -73 166 -64 170 -68 b 166 -81 170 -76 168 -79 b 154 -109 158 -88 154 -98 b 156 -123 154 -114 155 -119 b 180 -162 160 -140 171 -156 b 184 -170 182 -164 184 -168 b 182 -176 184 -172 183 -174 b 174 -180 180 -179 177 -180 z "},"h":{"ha":654,"x_min":0,"x_max":0,"o":"m 500 0 b 600 100 555 0 600 45 l 600 426 b 360 705 600 574 507 705 b 257 669 322 705 288 690 b 268 865 259 730 262 795 l 268 873 b 168 973 268 928 223 973 l 164 973 b 69 880 113 971 72 930 b 56 520 60 743 56 626 b 69 97 56 366 63 234 b 169 0 71 43 115 0 l 173 0 b 268 99 226 2 268 46 l 268 105 b 257 378 264 198 259 286 b 264 396 260 384 262 390 b 348 505 277 445 307 505 b 400 420 378 505 400 463 l 400 100 b 500 0 400 45 444 0 z m 94 700 b 83 711 88 701 83 705 b 94 873 85 793 87 842 b 138 939 102 906 116 924 b 144 940 140 939 142 940 l 144 940 b 154 930 150 940 154 935 b 149 922 154 927 153 924 b 114 869 130 909 121 899 b 104 710 107 840 105 793 b 94 700 104 705 99 700 z m 274 636 b 264 646 269 636 264 642 b 268 654 264 649 265 652 b 360 689 288 672 326 689 l 366 689 b 375 679 371 689 375 684 b 365 669 375 673 370 669 l 361 669 b 281 639 334 669 296 652 b 274 636 279 637 276 636 z m 92 608 b 82 619 86 609 82 613 l 83 666 b 93 675 83 671 87 675 b 103 665 99 675 103 671 l 102 618 b 92 608 102 613 98 608 z m 439 179 b 429 189 433 179 429 184 b 429 370 429 207 429 349 b 439 379 429 375 433 379 l 439 379 b 449 370 445 379 449 375 l 449 189 b 439 179 449 184 444 179 z "},"i":{"ha":318,"x_min":0,"x_max":0,"o":"m 158 775 b 258 875 213 775 258 820 b 158 974 258 930 213 974 b 59 875 103 974 59 930 b 158 775 59 820 103 775 z m 89 896 l 85 897 b 79 905 81 898 79 902 l 80 909 b 119 949 87 926 98 943 l 121 950 b 132 940 128 950 132 945 b 125 930 132 936 130 932 b 98 902 111 926 104 916 b 89 896 97 899 93 896 z m 168 0 b 262 98 221 3 262 47 l 261 106 b 254 359 257 184 254 271 b 261 597 254 440 256 522 l 262 606 b 162 705 262 661 217 705 l 157 705 b 62 611 106 703 65 662 b 55 358 58 530 55 444 b 62 94 55 267 58 176 b 161 0 65 41 109 0 z m 98 428 b 88 438 92 428 88 433 l 87 498 b 94 602 87 546 90 578 b 136 668 100 635 114 652 b 142 670 137 669 140 670 b 151 660 148 670 151 665 b 147 652 151 657 150 654 b 113 598 127 637 119 627 b 108 491 109 576 108 543 l 108 438 b 98 428 108 433 103 428 z m 99 337 b 89 347 94 337 89 341 l 89 395 b 98 404 89 399 94 404 b 109 393 104 404 109 399 b 109 347 109 373 109 364 b 99 337 109 341 104 337 z "},"j":{"ha":321,"x_min":0,"x_max":0,"o":"m 144 776 b 243 875 199 776 243 821 b 144 975 243 930 199 975 b 44 875 89 975 44 930 b 144 776 44 821 89 776 z m 81 897 l 77 897 b 71 906 74 899 71 903 l 73 910 b 111 950 79 926 90 943 l 114 951 b 124 941 121 951 124 946 b 117 931 124 937 122 932 b 91 903 104 927 96 916 b 81 897 89 899 85 897 z m 6 -265 b 252 12 123 -265 239 -159 b 267 352 260 125 267 238 b 254 616 267 439 263 528 b 155 708 250 669 207 708 b 56 608 99 707 56 662 l 56 597 b 68 351 64 515 68 434 b 54 26 68 245 62 137 b -2 -71 47 -56 19 -71 b -60 -45 -28 -71 -60 -45 b -131 -16 -79 -26 -105 -16 b -202 -45 -157 -16 -182 -26 b -231 -115 -221 -64 -231 -90 b -200 -187 -231 -141 -220 -168 b 6 -265 -200 -187 -118 -265 z m 110 429 l 109 429 b 99 438 104 429 100 433 b 89 572 93 496 89 540 l 90 594 b 100 637 91 611 94 625 b 127 662 106 648 115 656 b 131 663 128 663 130 663 b 141 653 137 663 141 659 b 135 644 141 650 139 646 b 117 627 127 640 121 635 b 109 593 113 619 111 608 l 109 576 b 119 440 109 545 113 501 l 119 439 b 110 429 119 434 115 429 z m 111 338 b 100 347 105 338 100 342 l 100 395 b 110 404 100 400 105 404 b 120 394 115 404 120 399 b 121 347 120 374 120 365 b 111 338 121 342 116 338 z m -153 -186 l -158 -184 b -198 -140 -175 -177 -190 -160 b -205 -110 -202 -131 -205 -120 b -193 -77 -205 -98 -201 -87 b -186 -73 -192 -74 -189 -73 b -176 -83 -180 -73 -176 -77 b -178 -89 -176 -85 -176 -87 b -185 -110 -182 -95 -185 -102 b -180 -132 -185 -117 -183 -125 b -150 -167 -173 -148 -160 -162 b -144 -176 -146 -168 -144 -172 l -144 -180 b -153 -186 -146 -184 -150 -186 z "},"k":{"ha":681,"x_min":0,"x_max":0,"o":"m 178 0 b 271 100 231 4 271 48 l 270 108 b 261 246 267 153 264 199 b 288 280 270 258 279 269 b 449 37 332 193 385 111 b 526 1 469 14 497 1 b 590 25 549 1 571 9 b 625 101 613 45 625 73 b 600 167 625 124 616 148 b 437 428 535 241 482 330 b 569 523 477 460 521 492 b 616 608 599 542 616 574 b 612 635 616 617 615 626 b 517 707 600 678 561 707 l 515 707 b 462 690 496 707 478 701 b 255 533 385 641 316 589 b 270 860 256 646 260 757 l 271 871 b 172 969 271 924 227 969 l 168 969 b 72 878 117 968 75 928 b 56 503 61 758 56 630 b 72 93 56 361 62 220 b 171 0 75 40 119 0 z m 109 700 b 99 710 103 700 99 705 l 99 711 b 110 873 100 793 102 842 b 153 939 117 906 132 924 b 159 940 155 939 157 940 l 159 940 b 169 930 165 940 169 935 b 165 922 169 927 168 924 b 129 869 144 909 136 899 b 119 710 123 840 121 793 b 109 700 119 705 115 700 z m 547 671 b 541 672 545 671 543 671 b 523 677 535 676 529 677 b 503 673 516 677 509 676 l 499 673 b 490 680 495 673 491 676 l 489 683 b 496 692 489 688 492 692 b 524 697 505 695 514 697 b 552 689 533 697 543 694 b 557 681 555 688 557 684 b 555 675 557 679 556 677 b 547 671 553 673 550 671 z m 107 608 b 98 618 102 608 98 613 l 98 618 b 98 665 98 636 98 646 b 109 675 98 671 103 675 b 119 665 114 675 119 671 l 117 618 b 107 608 117 613 113 608 z m 352 571 b 342 581 347 571 342 576 b 346 589 342 584 343 587 l 453 667 b 459 669 454 669 457 669 b 469 660 465 669 469 665 b 465 652 469 657 467 654 l 357 572 b 352 571 355 571 353 571 z m 415 131 b 409 133 413 131 410 132 b 400 142 406 136 404 138 l 389 158 b 359 203 380 170 370 186 b 329 254 348 220 337 238 b 311 292 320 269 314 281 l 311 295 b 321 304 311 300 315 304 b 330 297 326 304 329 301 b 347 263 332 292 338 278 b 376 214 355 248 365 231 b 405 170 386 197 397 182 b 416 155 410 163 413 158 l 421 149 b 425 141 424 147 425 144 b 423 135 425 139 425 137 b 415 131 421 132 418 131 z "},"l":{"ha":346,"x_min":0,"x_max":0,"o":"m 195 -1 b 256 19 216 -1 237 5 b 290 87 279 36 289 60 l 290 91 b 275 159 290 113 285 136 b 252 316 256 204 252 260 b 258 506 252 406 255 420 b 277 874 262 636 273 773 l 277 880 b 180 979 277 932 235 979 l 177 979 b 79 882 125 979 79 937 b 57 440 74 747 62 630 l 56 361 b 62 220 56 311 57 264 b 116 41 68 154 73 98 b 193 -1 134 14 163 1 z m 113 703 l 112 703 b 102 713 106 703 102 708 l 103 800 b 113 880 104 834 107 860 b 167 941 121 912 139 930 b 170 941 168 941 169 941 l 171 941 b 180 931 177 941 180 936 b 174 922 180 927 178 924 b 131 875 149 913 139 903 b 123 800 127 857 125 833 b 121 712 123 777 121 747 b 113 703 121 707 117 703 z m 106 612 b 97 621 101 612 97 616 b 100 669 99 640 98 647 b 110 679 100 674 104 679 b 119 669 115 678 119 674 l 117 621 b 106 612 117 616 111 612 z m 254 109 b 246 114 250 109 248 111 b 210 261 232 141 210 198 l 211 277 b 221 287 211 283 216 287 b 231 274 229 287 231 281 l 230 263 b 263 123 230 203 251 148 l 264 119 b 259 111 264 115 262 112 b 254 109 257 109 256 109 z "},"m":{"ha":994,"x_min":0,"x_max":0,"o":"m 169 0 b 263 99 222 3 263 47 l 262 106 b 255 378 258 190 255 284 b 263 397 258 384 261 391 b 347 507 274 435 300 507 b 399 427 375 507 399 477 l 399 101 b 499 1 399 46 444 1 b 598 100 554 1 598 45 l 598 386 b 603 397 600 389 602 393 b 687 507 616 442 643 507 b 739 416 724 507 739 467 l 739 101 b 839 1 739 46 784 1 b 939 101 895 1 939 46 l 939 427 b 874 624 939 501 920 571 b 687 706 828 677 758 706 b 523 636 617 706 563 674 b 370 706 480 682 435 706 b 249 656 319 706 280 684 b 164 705 232 687 199 705 l 159 705 b 64 612 108 703 66 663 b 56 358 59 530 56 444 b 64 95 56 267 59 176 b 163 0 66 41 111 0 z m 278 621 b 271 624 275 621 273 622 b 268 631 269 626 268 628 b 271 638 268 633 269 636 b 366 680 292 658 331 679 b 376 670 372 680 376 675 b 367 660 376 665 372 660 b 285 624 339 659 300 640 b 278 621 283 622 281 621 z m 591 621 b 584 624 589 621 586 622 b 581 631 582 626 581 629 b 584 638 581 634 582 637 b 680 680 604 658 644 679 b 690 670 685 680 690 675 b 680 660 690 665 685 660 b 598 624 652 659 614 640 b 591 621 596 622 593 621 z m 104 425 b 94 435 98 425 94 429 b 92 519 93 468 92 496 b 98 601 92 555 94 581 b 150 665 105 635 123 652 l 154 665 b 164 655 161 665 164 661 b 158 646 164 652 162 648 b 117 597 134 635 123 626 b 113 519 114 579 113 555 l 114 435 b 104 425 114 430 110 425 z m 102 334 b 92 344 96 334 92 338 l 94 391 b 102 400 94 395 98 400 l 103 400 b 113 390 109 400 113 395 l 112 343 b 102 334 112 338 108 334 z m 452 181 b 442 191 446 181 442 185 l 442 371 b 452 380 442 376 446 380 l 453 380 b 462 371 458 380 462 376 l 462 191 b 452 181 462 185 457 181 z m 798 181 l 796 181 b 786 191 790 181 786 185 l 786 371 b 796 380 786 376 791 380 l 798 380 b 806 371 802 380 806 376 b 806 191 806 351 806 208 b 798 181 806 186 802 181 z "},"n":{"ha":654,"x_min":0,"x_max":0,"o":"m 168 0 b 262 99 221 3 262 47 l 261 106 b 254 378 256 190 254 284 b 262 397 257 384 260 391 b 346 507 273 435 299 507 b 398 427 373 507 398 477 l 398 101 b 498 1 398 46 443 1 b 597 100 553 1 597 45 l 597 427 b 532 624 597 501 578 571 b 368 706 487 677 439 706 b 248 656 318 706 279 684 b 163 705 231 687 197 705 l 157 705 b 62 612 106 703 65 663 b 55 358 58 530 55 444 b 62 95 55 267 58 176 b 161 0 65 41 109 0 z m 273 621 b 266 624 271 621 268 622 b 263 631 264 626 263 628 b 267 638 263 633 264 636 b 361 680 286 658 326 679 b 372 670 367 680 372 675 b 362 660 372 665 368 660 b 280 624 334 659 296 640 b 273 621 278 622 276 621 z m 99 425 b 89 435 94 425 89 429 b 87 519 88 468 87 496 b 93 601 87 555 89 581 b 145 665 100 635 117 652 l 149 665 b 159 655 156 665 159 661 b 153 646 159 652 157 648 b 113 597 129 635 119 626 b 108 519 109 579 108 555 l 109 435 b 99 425 109 430 104 425 z m 97 334 b 87 344 92 334 87 338 b 88 391 88 361 88 370 b 98 400 89 395 93 400 l 98 400 b 109 390 104 400 109 395 l 107 343 b 97 334 107 338 103 334 z m 448 181 l 447 181 b 437 191 441 181 437 185 l 437 371 b 447 380 437 376 441 380 l 448 380 b 457 371 454 380 457 376 l 457 191 b 448 181 457 186 453 181 z "},"o":{"ha":673,"x_min":0,"x_max":0,"o":"m 328 0 b 549 113 418 0 500 47 b 618 349 597 180 618 262 b 566 580 618 429 608 509 b 345 706 525 651 439 706 b 119 591 252 706 167 659 b 56 357 72 522 56 441 b 112 124 56 274 70 193 b 328 0 154 54 236 0 z m 117 490 l 114 491 b 107 501 109 492 107 496 l 107 504 b 309 679 136 603 220 678 b 319 669 314 679 319 674 b 309 659 319 663 314 659 b 126 498 232 659 153 590 b 117 490 125 493 121 490 z m 332 199 b 254 357 277 199 254 283 b 340 507 254 429 279 507 b 418 353 396 507 418 427 l 418 349 b 332 199 418 273 391 199 z m 98 404 l 96 404 b 87 413 92 404 87 408 l 87 414 b 95 462 89 429 92 446 b 104 470 96 467 100 470 b 115 460 110 470 115 465 l 115 458 b 107 412 111 443 109 427 b 98 404 106 407 102 404 z m 372 155 b 363 161 369 155 366 157 l 363 165 b 369 174 363 169 365 172 b 439 275 403 191 430 230 b 449 283 440 279 444 283 b 458 273 454 283 458 278 l 458 271 b 377 157 448 221 419 176 z "},"p":{"ha":664,"x_min":0,"x_max":0,"o":"m 170 -262 l 181 -261 b 270 -163 232 -256 270 -213 l 269 -151 b 258 18 264 -100 260 -43 b 346 0 283 7 313 0 b 541 103 423 0 496 41 b 606 331 585 165 606 242 l 606 335 b 475 666 606 465 579 591 b 347 706 440 692 394 706 l 332 705 b 281 695 315 704 298 701 b 240 679 267 691 254 686 b 171 707 222 697 197 707 l 167 707 b 71 614 116 705 75 665 b 55 200 61 481 55 338 b 72 -172 55 66 60 -62 b 170 -262 77 -223 119 -262 z m 265 644 b 256 648 262 644 258 645 b 255 653 256 649 255 651 b 260 662 255 656 257 660 b 334 686 277 673 305 684 l 344 686 b 361 685 349 686 355 686 b 370 675 366 684 370 680 l 369 673 b 359 665 368 669 364 665 l 357 665 b 345 666 353 666 349 666 b 271 645 319 666 286 655 b 265 644 269 644 267 644 z m 95 431 b 85 439 90 431 85 435 l 85 441 b 97 607 87 524 88 573 b 152 667 106 640 124 657 b 155 668 153 668 155 668 b 165 658 162 668 165 663 b 159 649 165 654 163 650 b 116 602 134 640 123 631 b 105 441 109 572 106 524 b 95 431 105 435 100 431 z m 336 199 b 261 298 286 199 268 258 b 256 314 260 304 258 309 b 260 453 256 361 258 408 b 324 509 272 481 293 509 b 408 347 359 509 408 467 b 336 199 408 237 372 199 z m 89 339 b 79 350 83 340 79 345 l 83 397 b 92 406 83 401 87 406 b 102 397 98 406 102 402 l 100 349 b 89 339 99 343 94 339 z m 374 154 b 366 159 372 154 368 156 b 364 164 365 161 364 163 b 369 172 364 168 366 171 b 428 262 397 191 422 237 b 437 271 429 267 433 271 b 448 260 444 271 448 266 l 448 258 b 380 156 440 226 415 179 b 374 154 378 155 376 154 z "},"q":{"ha":663,"x_min":0,"x_max":0,"o":"m 500 -260 b 600 -165 553 -260 597 -218 b 607 151 605 -75 607 35 b 600 609 607 302 604 465 b 500 707 600 664 554 707 l 496 707 b 428 675 470 706 446 694 b 380 695 412 684 397 690 b 330 705 364 701 347 704 b 315 706 325 705 320 705 b 186 666 268 706 222 692 b 56 335 83 591 56 465 l 56 331 b 121 103 56 242 77 165 b 317 0 166 41 239 0 b 407 24 351 0 381 9 b 401 -153 406 -41 404 -102 l 401 -161 b 494 -260 401 -213 442 -256 z m 123 492 l 120 492 b 113 503 116 494 113 498 l 113 505 b 307 680 142 604 218 680 b 317 670 313 680 317 675 b 307 660 317 665 313 660 b 133 499 230 660 160 591 b 123 492 132 494 127 492 z m 452 431 b 441 440 446 431 441 435 l 440 621 b 450 631 440 626 444 631 b 460 621 455 631 460 626 l 461 441 b 452 431 461 435 457 431 z m 324 199 b 255 369 279 199 255 265 b 335 509 255 468 298 509 b 405 449 364 509 392 479 l 407 296 b 324 199 393 262 369 199 z m 93 405 l 92 405 b 83 415 87 406 83 410 l 83 417 b 96 464 87 432 92 448 b 105 471 97 468 101 471 l 106 471 b 116 460 111 471 116 466 l 115 458 b 103 413 111 443 106 427 b 93 405 102 408 97 405 z m 361 160 b 353 165 358 160 355 161 l 352 170 b 357 178 352 173 354 176 b 422 264 386 195 414 239 b 431 272 423 269 427 272 b 441 262 437 272 441 268 l 441 259 b 367 161 432 227 404 182 b 361 160 366 161 363 160 z "},"r":{"ha":613,"x_min":0,"x_max":0,"o":"m 166 0 b 260 98 219 3 260 47 l 259 106 b 254 299 256 153 254 224 l 255 375 b 297 438 264 391 280 414 b 367 498 315 462 340 498 b 383 486 374 498 380 494 b 470 433 399 453 433 433 b 513 442 484 433 498 436 b 570 535 549 460 570 498 b 561 576 570 549 567 564 b 357 694 524 650 451 694 b 250 663 315 694 279 680 b 167 707 231 690 200 707 b 68 617 116 707 73 668 b 55 306 59 534 55 416 b 60 94 55 225 57 149 b 160 0 63 41 107 0 z m 308 637 b 299 642 304 637 301 639 l 298 647 b 303 656 298 650 300 654 b 369 675 323 667 345 675 l 376 675 b 404 669 386 675 395 673 b 411 661 408 668 411 665 l 410 656 b 401 650 409 652 406 650 l 397 651 b 370 656 388 654 378 656 b 313 638 350 656 331 648 z m 106 430 b 97 440 101 430 97 435 b 109 606 98 523 100 572 b 163 667 117 640 136 656 b 168 667 165 667 166 667 b 178 657 174 667 178 663 b 171 648 178 654 176 650 b 128 601 146 639 136 630 b 117 440 121 572 119 523 b 106 430 117 434 113 430 z m 100 338 b 92 349 96 339 92 343 l 92 349 b 94 396 92 367 93 376 b 104 406 95 401 99 405 b 115 395 110 406 115 401 b 111 348 113 374 113 366 b 100 338 111 342 106 338 z "},"s":{"ha":610,"x_min":0,"x_max":0,"o":"m 294 3 b 452 39 345 3 399 9 b 553 210 506 68 553 137 b 262 493 553 406 262 457 b 305 508 262 500 279 508 b 359 481 336 508 359 481 b 446 430 376 448 410 430 b 495 443 463 430 479 434 b 545 529 528 461 545 494 b 532 579 545 546 541 564 b 311 707 532 579 458 707 b 123 637 236 707 168 683 b 62 492 79 593 62 543 b 353 214 62 286 353 247 b 301 199 353 205 326 199 b 241 219 256 199 248 209 b 155 270 223 252 189 270 b 104 256 138 270 120 266 b 56 170 73 237 56 204 b 70 119 56 153 60 135 b 294 3 94 79 172 3 z m 107 526 l 104 527 b 98 536 100 528 98 532 l 98 540 b 263 673 123 616 195 673 l 267 673 b 276 663 272 673 276 669 b 267 654 276 659 272 654 l 264 654 b 117 534 208 654 139 602 b 107 526 116 529 112 526 z m 104 439 b 95 446 100 439 96 441 b 89 480 92 456 89 468 l 90 490 b 100 499 90 496 95 499 b 109 490 105 499 109 495 l 109 482 b 114 452 109 473 111 460 l 115 449 b 108 439 115 445 112 441 z m 351 155 l 349 155 b 340 163 344 155 340 158 l 340 165 b 348 174 340 170 343 174 b 385 202 368 177 380 188 b 387 215 387 206 387 210 b 369 256 387 227 382 241 b 366 262 367 258 366 260 b 376 272 366 267 370 272 l 377 272 b 384 269 380 272 382 271 b 407 214 399 251 407 232 b 404 196 407 208 406 202 b 351 155 397 174 377 158 z m 94 123 b 84 130 90 123 85 126 b 80 161 81 140 80 150 b 83 186 80 169 81 178 b 118 238 87 205 98 224 b 123 240 119 239 121 240 l 124 240 b 134 230 130 239 134 235 b 130 222 134 227 132 224 b 102 181 114 212 106 197 b 100 161 100 174 100 168 b 103 136 100 151 101 143 l 104 132 b 96 123 104 128 100 125 z "},"t":{"ha":578,"x_min":0,"x_max":0,"o":"m 404 0 b 503 99 458 0 503 44 b 403 199 503 154 458 199 l 401 199 b 385 199 393 199 388 199 b 384 204 385 201 385 201 b 375 401 377 228 375 302 b 376 488 375 428 375 457 l 430 488 b 528 587 484 488 528 532 b 429 687 528 642 484 687 l 381 687 b 389 813 383 728 385 770 l 389 823 b 289 922 389 877 345 922 l 286 922 b 191 828 235 920 193 879 b 182 687 186 780 184 732 l 155 687 b 56 587 100 687 56 642 b 154 488 56 532 100 488 l 177 488 b 176 401 176 457 176 428 l 176 307 b 193 149 176 251 178 201 b 267 38 204 110 227 67 b 401 0 307 9 355 0 z m 212 663 b 201 673 206 663 201 668 b 212 837 203 756 205 804 b 256 901 220 869 234 886 b 262 903 258 903 260 903 b 272 893 268 903 272 899 b 267 885 272 890 271 887 b 232 832 248 871 239 861 b 222 673 225 804 223 755 b 212 663 222 667 217 663 z m 106 530 b 98 536 102 530 99 532 b 86 587 91 551 86 568 l 86 591 b 111 648 87 610 95 631 b 118 652 113 650 116 651 b 129 642 124 652 129 647 b 125 634 129 639 127 636 b 106 589 113 621 107 606 l 106 583 b 115 545 106 569 110 555 l 117 540 b 111 532 117 536 115 533 z m 472 96 l 471 96 b 462 106 466 97 462 101 l 462 109 b 456 126 462 113 460 119 b 444 141 453 133 447 140 b 440 149 441 143 440 146 b 450 159 440 155 444 159 b 456 158 452 159 454 159 b 474 136 463 153 469 144 b 481 110 479 127 481 119 l 481 105 b 472 96 481 100 477 96 z "},"u":{"ha":654,"x_min":0,"x_max":0,"o":"m 490 0 b 516 3 499 0 507 1 b 589 94 557 15 587 52 b 597 343 595 174 597 259 b 589 611 597 436 594 528 b 492 706 587 663 545 705 l 490 706 b 391 606 435 706 391 661 l 391 599 b 398 333 395 517 398 425 l 398 302 b 316 199 389 264 367 199 b 254 278 279 199 254 230 l 254 604 b 154 704 254 659 209 704 l 153 704 b 55 604 98 703 55 659 l 55 278 b 119 81 55 205 74 135 b 284 0 165 28 214 0 b 408 44 338 0 377 18 b 490 0 427 16 458 0 z m 99 425 b 89 435 94 425 89 429 b 87 519 88 468 87 496 b 93 601 87 555 89 581 b 145 665 100 635 117 652 l 149 665 b 159 655 155 665 159 661 b 153 646 159 652 157 648 b 113 597 129 635 119 626 b 107 513 109 578 107 551 l 109 434 b 99 425 109 429 104 425 z m 441 425 b 431 435 436 425 431 429 l 426 615 b 435 625 426 621 430 625 b 446 616 441 625 446 621 l 452 435 b 441 425 452 430 447 425 z m 97 334 b 87 344 92 334 87 338 l 88 391 b 97 400 89 395 92 400 l 98 400 b 109 390 104 400 109 395 l 107 343 b 97 334 107 338 102 334 z m 354 156 b 345 161 351 156 347 158 l 344 165 b 349 175 344 170 346 173 b 420 275 384 191 411 231 b 430 283 421 280 425 283 b 439 273 435 283 439 279 l 439 271 b 358 157 429 222 400 176 z "},"v":{"ha":611,"x_min":0,"x_max":0,"o":"m 288 -2 b 384 66 331 -2 370 25 b 555 610 452 201 555 424 l 555 611 b 456 710 555 665 511 710 l 454 710 b 355 611 399 709 355 665 l 355 610 b 298 376 355 559 330 468 b 254 610 273 471 254 566 l 254 611 b 155 710 254 665 210 710 l 153 710 b 55 611 98 709 55 665 l 55 610 b 195 64 55 452 119 214 b 269 0 206 31 235 7 l 277 -1 l 282 -1 l 283 -2 z m 122 422 l 120 422 b 111 431 115 422 111 426 b 90 589 97 509 90 555 l 90 593 b 120 665 90 626 101 646 b 127 668 122 667 124 668 b 137 658 133 668 137 663 b 134 651 137 656 136 653 b 109 592 117 633 110 622 l 109 588 b 130 434 109 559 117 512 l 130 432 b 122 422 130 427 127 423 z m 355 385 l 351 385 b 345 394 347 387 345 391 l 347 399 b 370 487 352 410 362 447 b 386 603 378 527 385 572 b 396 612 386 608 391 612 b 406 604 401 612 406 608 l 406 602 b 390 483 405 569 398 524 b 364 390 381 442 372 407 b 355 385 363 387 359 385 z m 144 333 l 142 333 b 133 340 138 333 134 336 b 121 386 129 357 126 366 l 121 388 b 131 398 121 393 125 398 b 141 390 136 398 140 395 l 152 345 l 152 342 b 144 333 152 338 149 334 z "},"w":{"ha":920,"x_min":0,"x_max":0,"o":"m 615 0 b 684 28 640 0 665 9 b 863 595 861 200 863 469 l 863 606 b 763 705 863 661 818 705 b 664 606 709 705 664 661 l 664 604 b 631 344 664 541 655 437 l 630 347 b 559 575 602 433 574 524 b 464 645 546 616 507 645 b 369 575 420 645 382 616 b 290 354 355 530 323 440 l 278 326 b 268 372 274 341 271 356 b 254 605 254 458 254 548 l 254 606 b 154 706 254 661 209 706 l 153 706 b 55 606 98 705 55 661 l 55 592 b 72 340 55 533 56 439 b 211 28 90 233 122 115 b 281 0 231 9 256 0 b 363 44 312 0 343 15 b 456 238 397 95 427 164 b 526 54 480 168 503 101 b 615 0 545 19 579 0 z m 110 401 b 99 411 104 401 99 406 b 92 541 94 469 92 511 b 93 574 92 554 92 565 b 130 644 97 608 110 626 b 136 646 132 645 134 646 l 137 646 b 146 635 143 646 146 641 b 143 628 146 633 145 630 b 113 572 124 612 117 602 b 111 541 112 564 111 553 b 119 412 111 511 114 471 l 119 411 b 110 401 119 406 115 402 z m 393 543 l 389 543 b 382 552 385 544 382 548 l 383 555 b 413 602 388 572 398 589 b 471 627 427 616 448 627 l 473 627 b 481 617 477 627 481 622 b 471 607 481 612 477 607 b 427 588 453 606 438 599 b 402 549 414 577 406 562 b 393 543 401 545 397 543 z m 680 362 l 678 363 b 670 373 673 363 670 368 l 670 374 b 689 584 679 422 688 524 l 689 585 b 699 594 689 590 694 594 b 709 584 704 594 709 589 b 690 371 708 522 699 421 b 680 362 689 366 686 362 z m 124 311 l 123 311 b 113 319 118 311 114 314 l 106 366 l 106 367 b 116 377 106 372 111 377 b 125 368 121 376 125 373 l 132 321 b 124 311 132 315 129 311 z "},"x":{"ha":631,"x_min":0,"x_max":0,"o":"m 475 1 b 519 11 490 1 505 4 b 574 100 555 28 574 64 b 564 145 574 115 571 131 b 434 382 526 218 483 299 b 545 549 469 435 505 491 b 563 606 557 566 563 587 b 551 653 563 623 559 639 b 463 705 534 686 500 705 l 461 705 b 380 661 428 705 398 688 l 317 566 b 247 665 294 600 271 633 b 170 705 229 689 201 704 l 167 705 b 78 650 130 705 95 684 b 67 606 71 636 67 621 b 89 544 67 584 75 562 b 200 383 127 494 164 439 b 66 144 148 299 102 220 b 56 100 59 130 56 115 b 112 9 56 63 76 27 b 155 0 126 3 140 0 b 245 57 193 0 229 21 b 315 189 265 98 289 142 b 386 56 341 142 365 98 b 475 1 404 21 438 1 z m 354 549 b 348 551 352 549 350 549 b 344 559 345 553 344 556 b 345 564 344 561 345 563 b 408 648 363 590 392 629 b 415 652 410 650 412 652 b 426 642 421 652 426 647 b 423 635 426 640 425 637 b 362 553 408 617 378 578 b 354 549 360 551 357 549 z m 185 478 b 177 481 182 478 179 479 b 126 554 155 510 138 533 b 113 602 118 570 113 586 b 115 618 113 607 113 612 b 124 625 115 622 119 625 b 134 616 130 625 134 621 l 134 613 b 132 602 133 610 132 606 b 144 564 132 590 136 578 b 193 494 154 545 172 522 b 195 488 195 492 195 490 b 191 480 195 486 194 482 b 185 478 190 479 187 478 z m 394 99 b 385 104 390 99 387 100 b 362 145 376 119 372 127 b 361 150 361 147 361 149 b 371 160 361 155 365 160 b 380 155 374 160 378 157 b 402 113 389 136 394 129 l 404 109 b 398 100 404 105 401 102 b 394 99 397 99 395 99 z "},"y":{"ha":654,"x_min":0,"x_max":0,"o":"m 337 -265 b 583 12 454 -265 570 -159 b 597 353 591 125 597 239 b 585 616 597 441 593 528 b 486 708 581 669 537 708 b 387 608 430 707 387 662 l 387 597 b 398 349 395 515 398 432 l 398 301 b 316 199 388 263 367 199 b 254 278 279 199 254 230 l 254 604 b 154 704 254 659 209 704 l 153 704 b 55 604 98 703 55 659 l 55 278 b 119 81 55 205 74 135 b 284 0 165 28 214 0 b 385 27 326 0 358 11 l 385 26 b 328 -66 378 -52 352 -66 b 271 -45 294 -66 271 -45 b 200 -16 252 -26 226 -16 b 130 -45 174 -16 149 -26 b 100 -115 110 -65 100 -90 b 131 -187 100 -142 111 -168 b 337 -265 131 -187 213 -265 z m 95 425 b 84 435 89 425 85 429 b 83 519 83 468 83 496 b 88 601 83 555 84 581 b 140 665 96 635 113 652 l 144 665 b 155 655 151 665 155 661 b 149 646 155 652 153 648 b 108 597 124 635 114 626 b 102 519 104 579 102 555 l 104 435 b 95 425 104 430 100 425 z m 437 425 b 427 435 431 425 427 429 l 421 615 b 431 625 421 621 425 625 b 441 616 437 625 441 621 b 447 435 441 595 446 453 b 437 425 447 430 443 425 z m 93 334 b 83 344 87 334 83 338 l 84 391 b 93 400 84 395 87 400 l 94 400 b 104 390 100 400 104 395 l 102 343 b 93 334 102 338 98 334 z m 349 156 b 340 161 346 156 342 158 l 339 165 b 345 175 339 170 341 173 b 416 275 380 191 406 231 b 425 283 416 280 420 283 b 435 273 431 283 435 279 l 435 271 b 353 157 425 222 395 176 z m 164 -184 b 159 -182 163 -184 161 -184 b 127 -131 144 -172 132 -153 b 125 -113 126 -125 125 -119 b 144 -69 125 -97 130 -81 b 151 -66 146 -68 149 -66 b 160 -77 157 -67 160 -72 b 157 -84 160 -79 159 -82 b 145 -112 149 -91 145 -101 b 147 -127 145 -117 146 -121 b 170 -166 151 -143 161 -159 b 175 -174 173 -168 175 -171 b 173 -180 175 -176 174 -178 b 164 -184 171 -182 168 -184 z "},"z":{"ha":636,"x_min":0,"x_max":0,"o":"m 156 1 b 170 2 161 1 165 1 l 481 2 b 581 102 536 2 581 47 b 479 201 581 157 535 201 l 378 201 l 386 210 b 498 359 425 258 465 309 b 562 523 530 409 562 448 b 477 667 562 583 519 642 b 353 702 433 692 392 699 b 294 705 333 704 313 705 l 283 705 b 166 701 230 705 184 701 l 165 701 b 65 602 110 701 65 657 b 165 503 65 547 110 503 l 166 503 b 288 507 203 503 248 507 b 334 504 304 507 319 506 b 349 502 340 504 344 503 b 331 467 345 491 339 479 b 233 337 306 429 269 381 b 93 179 171 262 112 199 b 56 102 69 161 56 132 b 61 70 56 92 58 81 b 156 1 75 28 113 1 z m 115 557 b 106 564 111 557 107 560 b 100 597 102 574 100 585 b 103 620 100 605 102 612 b 137 673 107 640 118 659 b 143 675 139 674 141 675 b 153 665 149 675 153 670 b 149 657 153 663 151 659 b 123 616 134 646 126 631 b 121 597 121 610 121 604 b 125 570 121 587 122 578 l 125 568 b 118 557 125 564 122 559 z m 222 252 b 214 256 219 252 216 254 b 212 262 213 258 212 260 b 216 270 212 265 213 269 b 276 339 226 278 251 307 b 341 436 301 371 327 408 b 349 441 342 439 346 441 l 350 442 b 360 432 356 442 360 437 l 359 427 b 292 327 343 397 317 359 b 229 254 267 294 243 266 b 222 252 227 253 224 252 z m 545 74 l 543 74 b 534 84 538 74 534 78 l 534 90 b 519 132 534 106 528 120 b 484 159 510 144 496 154 b 477 168 479 161 477 165 b 488 178 477 174 481 178 l 491 178 b 535 144 507 171 523 159 b 554 91 546 130 554 111 l 554 83 b 545 74 554 78 550 74 z "},"{":{"ha":650,"x_min":0,"x_max":0,"o":"m 494 -132 b 593 -33 549 -132 593 -87 b 494 67 593 22 549 67 l 492 67 b 433 93 437 67 444 71 b 412 235 423 115 416 170 b 379 449 410 300 410 374 b 352 495 373 465 363 480 b 377 538 362 509 371 524 b 410 751 408 614 406 687 b 431 893 412 817 420 871 b 492 920 441 916 436 920 l 495 920 b 593 1019 549 920 593 964 b 494 1119 593 1074 549 1119 l 492 1119 b 252 981 383 1119 290 1057 b 211 761 215 905 214 828 b 193 613 208 694 202 636 b 175 593 186 595 193 593 l 153 593 b 56 494 99 592 56 548 b 153 394 56 439 99 395 l 171 394 b 195 374 196 394 187 393 b 214 226 205 351 211 292 b 254 7 217 159 218 83 b 492 -132 291 -70 384 -132 z "},"|":{"ha":311,"x_min":0,"x_max":0,"o":"m 155 -161 b 254 -61 209 -161 254 -116 l 254 1023 b 154 1122 254 1077 209 1122 l 153 1122 b 55 1023 98 1121 55 1077 l 55 -61 b 155 -161 55 -116 100 -161 z "},"}":{"ha":650,"x_min":0,"x_max":0,"o":"m 157 -132 b 395 7 264 -132 358 -70 b 435 226 431 83 432 159 b 453 374 438 292 444 351 b 477 394 461 393 452 394 l 495 394 b 593 494 549 395 593 439 b 495 593 593 548 549 592 l 473 593 b 456 613 456 593 463 595 b 438 761 447 636 441 694 b 397 981 435 828 434 905 b 157 1119 359 1057 265 1119 l 155 1119 b 56 1019 100 1119 56 1074 b 154 920 56 964 100 920 l 157 920 b 218 893 213 920 207 916 b 239 751 229 871 237 817 b 271 538 242 687 241 614 b 297 495 277 524 287 509 b 269 449 286 480 276 465 b 236 235 238 374 239 300 b 215 93 233 170 226 115 b 157 67 205 71 212 67 l 155 67 b 56 -33 100 67 56 22 b 155 -132 56 -87 100 -132 z "},"~":{"ha":831,"x_min":0,"x_max":0,"o":"m 550 366 b 745 450 614 366 688 393 b 774 521 764 469 774 495 b 745 591 774 546 765 572 b 675 620 726 610 701 620 b 604 590 649 620 623 610 b 558 565 582 568 572 565 l 549 565 b 451 593 529 566 494 577 b 290 635 408 610 355 632 l 280 635 b 86 552 216 635 142 608 b 56 481 66 532 56 507 b 85 410 56 455 66 430 b 155 381 105 391 130 381 b 227 412 181 381 208 391 b 271 437 248 433 258 437 l 281 436 b 380 408 302 435 336 425 b 541 366 423 391 475 369 z "},"":{"ha":311,"x_min":0,"x_max":0,"o":"m 155 715 b 85 686 127 715 104 705 b 56 614 66 666 56 642 l 56 101 b 83 30 56 73 65 49 b 153 0 102 11 125 1 b 225 29 182 1 206 10 b 254 101 244 48 254 72 l 254 614 b 225 686 254 642 244 666 b 155 715 206 705 182 715 z m 91 341 b 100 331 97 341 100 338 l 100 111 b 90 101 100 104 97 101 b 81 111 84 101 81 104 l 81 331 b 91 341 81 338 84 341 z m 89 433 b 96 429 92 433 94 431 b 99 414 98 428 99 422 l 100 376 b 90 366 100 369 97 366 b 83 368 87 366 85 367 b 79 422 81 370 80 388 b 89 433 79 429 83 432 z m 155 977 b 85 945 127 977 104 966 b 56 867 65 924 56 897 b 85 789 56 837 65 810 b 155 757 104 768 127 757 b 225 789 182 757 205 768 b 254 867 245 810 254 837 b 225 945 254 897 245 924 b 155 977 205 966 182 977 z m 81 865 b 91 858 86 865 89 862 b 110 816 97 838 103 825 b 112 809 111 813 112 811 b 102 800 112 802 109 800 b 81 827 95 800 88 810 b 71 854 75 842 71 851 b 73 859 71 856 72 857 b 81 865 75 863 77 865 z "},"":{"ha":368,"x_min":0,"x_max":0,"o":""},"":{"ha":746,"x_min":0,"x_max":0,"o":"m 236 -5 b 269 0 248 -5 258 -4 b 414 22 317 17 368 22 b 562 5 496 22 562 5 b 591 1 571 3 581 1 b 687 73 634 1 673 29 b 691 100 690 82 691 91 b 618 196 691 144 662 184 b 418 223 618 196 534 223 l 414 223 b 418 288 417 245 418 267 b 415 358 418 311 417 335 b 412 395 414 370 412 382 l 466 395 b 532 461 503 395 532 425 l 532 463 b 467 528 532 498 503 528 b 394 527 419 528 444 528 b 377 688 385 588 377 644 b 423 773 377 742 395 772 b 478 742 459 773 478 742 b 569 684 495 705 531 684 b 611 693 583 684 597 686 b 669 783 647 709 669 746 b 659 826 669 798 665 812 b 423 972 659 826 583 972 b 238 881 350 972 280 935 b 178 688 197 827 178 759 b 192 524 178 633 184 578 l 123 523 b 56 456 86 523 56 493 l 56 455 b 123 390 57 419 87 390 b 211 391 181 390 150 391 b 216 342 214 374 215 357 b 219 289 218 323 219 305 b 212 222 219 262 216 239 b 186 180 205 195 200 188 b 136 94 154 161 136 128 b 145 52 136 79 139 65 b 236 -5 162 16 198 -5 z m 159 94 b 150 105 154 95 150 100 b 159 135 151 115 154 125 b 178 157 163 144 170 153 b 183 159 179 159 181 159 b 193 149 189 159 193 154 b 188 140 193 146 191 142 b 176 126 185 139 180 133 b 170 104 173 119 170 111 b 159 94 170 98 165 94 z m 214 633 b 204 644 209 633 204 638 b 206 692 204 659 205 675 b 216 701 207 696 211 701 l 217 701 b 226 692 222 701 226 696 l 226 690 b 224 644 225 675 224 658 b 214 633 224 638 220 633 z m 222 724 l 220 724 b 212 734 215 725 212 729 l 212 735 b 383 947 224 846 297 928 l 385 948 b 395 938 392 947 395 943 b 387 928 395 933 393 929 b 231 733 311 911 243 836 b 222 724 231 728 227 724 z m 621 155 l 616 156 b 549 174 600 163 574 172 b 539 183 543 174 539 178 b 549 193 539 189 543 193 l 551 193 b 624 174 578 191 606 182 b 630 165 628 172 630 169 l 629 161 b 621 155 628 157 624 155 z "},"":{"ha":566,"x_min":0,"x_max":0,"o":"m 455 237 b 494 254 469 237 483 243 b 509 292 504 264 509 278 b 492 331 509 306 503 320 l 432 389 b 446 445 439 406 445 425 b 448 463 447 451 448 457 b 433 534 448 488 442 512 l 492 591 b 509 630 503 601 509 615 b 505 650 509 637 508 643 b 454 684 497 671 477 684 b 417 668 441 684 427 678 l 364 616 b 300 639 345 628 323 636 l 285 640 b 202 616 254 640 227 631 l 148 668 b 109 684 138 678 123 684 b 60 649 87 683 68 669 b 56 630 58 643 56 636 b 73 591 56 615 62 601 l 134 532 b 121 479 127 516 122 498 b 120 460 120 473 120 467 b 134 389 120 436 125 412 l 73 331 b 56 291 62 320 56 306 b 71 254 56 278 61 264 b 111 237 82 243 96 237 b 148 253 124 237 138 243 l 204 307 b 267 286 223 296 244 288 l 285 285 b 361 307 313 285 339 293 l 417 253 b 455 237 428 243 441 237 z m 283 393 l 277 393 b 228 460 251 395 228 422 l 228 469 b 285 532 231 507 258 531 l 290 532 b 340 464 317 528 340 502 l 340 456 b 283 393 336 416 309 393 z "},"":{"ha":765,"x_min":0,"x_max":0,"o":"m 378 -1 b 478 98 433 -1 478 43 l 478 131 l 555 132 b 621 198 591 132 621 162 l 621 199 b 555 264 621 236 591 264 b 479 264 505 264 531 264 l 479 306 l 555 307 b 621 373 591 307 621 336 l 621 374 b 555 439 621 411 591 439 b 510 439 526 439 540 439 b 706 848 596 556 665 693 b 709 876 709 858 709 867 b 615 975 709 927 669 972 l 610 975 b 514 900 565 975 525 943 b 382 603 485 789 439 690 b 334 692 366 630 349 661 b 252 900 296 771 263 859 b 158 975 241 943 203 974 l 155 975 b 56 876 99 975 56 929 b 60 848 56 867 58 858 b 155 605 77 785 111 695 b 254 435 184 544 216 486 l 212 435 b 145 369 174 435 145 405 l 145 368 b 212 302 146 331 176 302 b 280 303 257 302 237 302 l 280 260 l 212 260 b 145 194 174 260 145 230 l 145 193 b 211 127 146 156 175 127 b 279 128 255 127 232 127 l 279 98 b 378 -1 279 43 323 -1 z m 158 694 b 149 701 154 694 151 696 b 92 854 117 777 98 821 b 89 879 90 863 89 871 b 104 930 89 899 94 914 b 113 935 106 933 109 935 l 114 935 b 123 926 119 935 123 930 b 121 920 123 924 123 922 b 109 880 113 906 109 895 b 111 858 109 874 109 867 b 168 708 117 829 135 784 l 168 704 b 163 695 168 701 166 696 z m 200 612 b 191 618 197 612 193 614 l 170 659 l 169 663 b 180 674 169 669 174 674 b 189 668 183 673 186 671 l 210 627 l 210 623 b 205 613 210 619 208 615 z m 464 652 b 458 654 462 652 460 653 b 454 663 455 656 454 659 b 456 668 454 664 454 666 b 494 751 463 679 479 713 b 529 863 509 789 523 832 b 538 871 530 867 534 871 b 549 861 545 871 549 866 l 549 859 b 513 744 543 826 528 783 b 472 656 498 705 483 671 b 464 652 470 654 467 652 z "},"":{"ha":311,"x_min":0,"x_max":0,"o":"m 155 561 b 254 661 209 561 254 606 l 254 1036 b 155 1135 254 1090 210 1135 l 153 1135 b 55 1036 98 1134 55 1090 l 55 661 b 155 561 55 606 100 561 z m 155 -148 b 254 -48 209 -148 254 -103 l 254 326 b 154 426 254 381 209 426 l 153 426 b 55 326 98 425 55 380 l 55 -48 b 155 -148 55 -103 100 -148 z "},"":{"ha":615,"x_min":0,"x_max":0,"o":"m 298 -68 b 458 -31 350 -68 404 -62 b 558 140 511 -1 558 67 b 506 271 558 191 535 237 b 558 410 537 307 558 357 b 476 573 558 479 517 539 b 355 642 435 606 392 625 b 273 686 318 659 286 675 b 268 688 269 689 269 688 b 270 697 268 692 269 696 b 317 707 272 699 279 707 b 363 681 350 707 363 681 b 451 629 382 648 416 629 b 500 642 468 629 484 633 b 550 729 532 661 550 694 b 536 779 550 746 546 764 b 317 907 536 779 463 907 b 129 838 241 907 174 882 b 68 684 84 792 68 734 b 121 556 68 633 92 589 b 56 396 77 509 56 453 b 148 238 56 325 104 267 b 271 180 191 210 234 195 b 353 142 309 165 340 151 l 356 140 b 298 131 347 137 326 131 b 247 149 248 131 247 147 b 159 200 228 182 194 200 b 110 186 142 200 125 195 b 60 100 78 168 60 134 b 75 49 60 83 65 65 b 298 -68 75 49 155 -68 z m 85 363 b 75 373 79 363 75 368 l 75 380 b 101 480 75 412 82 451 b 109 485 102 483 106 485 l 110 485 b 119 475 115 485 119 480 b 118 470 119 473 119 471 b 94 380 102 445 94 408 l 94 373 b 85 363 94 368 90 364 z m 187 161 b 181 163 185 161 183 161 b 170 168 181 163 176 165 b 153 170 164 169 157 170 b 143 180 148 170 143 174 b 153 190 143 185 148 190 b 175 186 160 190 168 189 b 193 178 182 184 188 183 b 197 171 196 176 197 174 b 195 165 197 169 197 167 b 187 161 193 162 191 161 z m 102 675 l 100 675 b 92 684 95 676 92 680 l 92 687 b 101 722 95 698 98 710 b 111 729 102 726 106 729 b 121 720 116 729 121 725 l 120 716 b 112 683 117 705 114 693 b 102 675 111 678 106 675 z m 130 749 l 127 749 b 120 758 123 750 120 754 l 120 761 b 185 846 129 794 154 824 b 277 878 213 865 245 877 b 290 877 281 878 286 878 b 299 867 295 876 299 872 l 299 866 b 290 857 298 861 294 857 l 279 858 b 197 829 252 858 222 847 b 140 756 169 810 146 783 b 130 749 138 751 134 749 z m 306 380 b 257 404 283 390 267 397 b 256 404 257 404 257 404 b 266 420 258 409 261 415 b 317 437 274 429 284 437 b 319 438 317 437 319 437 b 351 418 333 431 344 424 l 360 411 b 359 410 360 411 359 411 l 359 408 b 351 395 359 401 359 401 b 306 380 342 389 324 382 z m 360 97 l 359 97 b 349 106 354 97 349 101 l 349 107 b 359 117 349 113 353 117 b 383 136 377 118 382 127 l 383 138 b 366 159 383 147 378 156 b 358 169 361 161 358 165 b 368 179 358 174 362 179 b 372 178 370 179 370 179 b 404 138 391 172 404 155 l 404 135 b 360 97 401 117 386 99 z "},"":{"ha":439,"x_min":0,"x_max":0,"o":"m 130 963 b 56 888 89 963 56 930 b 130 814 56 847 89 814 b 205 888 172 814 205 847 b 130 963 205 930 172 963 z m 309 963 b 234 888 268 963 234 930 b 309 814 234 847 268 814 b 383 888 350 814 383 847 b 309 963 383 930 350 963 z "},"":{"ha":857,"x_min":0,"x_max":0,"o":"m 428 0 b 800 486 633 0 800 216 b 696 824 800 616 762 735 b 428 972 631 913 536 972 b 56 486 222 972 56 757 b 428 0 56 216 222 0 z m 428 108 b 163 486 287 108 163 273 b 428 865 163 701 287 865 b 692 486 569 865 692 700 b 428 108 692 273 569 108 z m 434 174 b 520 214 469 174 501 192 b 553 281 538 236 547 260 b 562 357 562 314 562 344 l 562 364 b 509 416 561 393 537 416 l 506 416 b 454 363 477 415 454 391 l 454 358 b 449 309 454 351 454 328 b 438 284 446 296 441 287 l 437 282 l 430 282 b 422 287 427 282 427 283 b 407 326 418 293 411 307 b 397 462 398 364 397 420 b 414 646 397 536 402 604 b 432 686 420 667 427 680 b 438 690 436 690 435 690 l 441 690 b 447 689 447 690 446 690 b 453 677 448 688 451 684 b 458 650 458 665 458 650 l 458 649 b 511 595 458 619 482 595 l 513 595 b 566 648 542 595 566 618 l 566 649 b 554 715 566 654 566 683 b 518 770 548 732 538 753 b 441 798 499 787 471 798 b 351 757 406 798 372 781 b 310 674 330 733 318 705 b 290 462 293 613 290 539 l 290 450 b 302 301 290 409 290 353 b 340 218 309 273 319 243 b 434 174 361 193 397 174 z "},"":{"ha":439,"x_min":0,"x_max":0,"o":""},"":{"ha":668,"x_min":0,"x_max":0,"o":"m 334 264 b 376 287 351 264 367 273 b 385 315 382 296 385 305 b 361 356 385 331 376 347 l 174 477 l 361 597 b 384 639 376 606 384 622 b 382 653 384 644 383 648 b 335 688 376 675 357 688 l 334 688 b 307 680 324 688 315 686 l 56 518 l 56 435 l 307 273 b 334 264 315 267 326 264 z m 561 264 b 603 288 577 264 593 273 b 611 315 608 296 611 305 b 588 356 611 331 603 347 l 401 477 l 588 597 b 611 639 603 606 611 622 b 609 653 611 644 610 648 b 562 688 603 675 584 688 l 561 688 b 534 680 551 688 542 686 l 283 518 l 283 435 l 534 273 b 561 264 542 267 551 264 z "},"":{"ha":446,"x_min":0,"x_max":0,"o":""},"":{"ha":557,"x_min":0,"x_max":0,"o":"m 243 602 b 270 612 254 602 262 605 b 281 638 277 618 281 627 l 282 680 l 312 632 b 345 614 319 620 330 614 b 363 619 351 614 357 615 b 380 651 375 627 380 637 b 375 671 380 658 378 665 l 334 738 b 378 827 363 760 378 789 b 351 891 378 852 370 873 b 300 913 334 905 317 912 b 277 915 292 914 284 915 b 247 912 264 914 254 913 b 221 900 237 911 229 907 l 221 899 l 220 898 l 219 898 b 211 874 214 890 211 883 l 212 869 l 207 640 b 217 613 207 629 210 620 b 243 602 224 606 233 602 z m 285 795 l 284 794 l 285 840 b 302 835 294 839 299 838 l 302 835 b 304 827 303 835 304 832 b 298 804 304 815 302 808 b 285 795 296 800 291 797 z m 278 505 b 391 539 320 505 357 516 b 471 631 425 563 452 593 b 500 758 490 670 500 712 b 471 883 500 803 490 845 b 391 975 452 922 425 952 b 278 1010 357 998 320 1010 b 165 975 236 1010 198 998 b 85 883 131 952 104 922 b 56 758 65 845 56 803 b 85 631 56 712 65 670 b 165 539 104 593 131 563 b 278 505 198 516 236 505 z m 278 579 b 205 602 252 579 227 587 b 151 666 182 618 164 640 b 130 758 137 693 130 724 b 151 848 130 791 137 822 b 205 912 164 876 182 897 b 278 936 227 928 252 936 b 351 912 304 936 329 928 b 406 848 374 897 391 876 b 426 758 419 822 426 791 b 406 666 426 724 419 693 b 351 602 391 640 374 618 b 278 579 329 587 304 579 z "},"":{"ha":631,"x_min":0,"x_max":0,"o":"m 474 764 b 574 863 529 764 574 808 b 475 962 574 918 530 962 l 154 962 b 56 863 100 962 56 918 b 155 764 56 808 100 764 z m 530 868 l 527 868 b 517 876 523 868 519 871 b 490 910 514 888 503 901 b 447 924 476 919 460 924 b 437 933 441 924 437 928 b 447 943 437 939 441 943 l 450 943 b 500 926 467 943 485 937 b 536 881 517 916 532 900 l 537 878 b 530 868 537 873 534 869 z "},"":{"ha":503,"x_min":0,"x_max":0,"o":"m 248 475 b 404 556 313 475 372 509 b 447 718 435 605 444 661 l 447 748 b 420 882 447 793 442 840 b 261 976 393 935 332 974 b 254 977 258 977 256 977 b 95 895 186 977 125 943 b 56 733 64 844 58 789 l 56 709 b 87 568 56 660 62 612 b 242 475 115 516 174 477 z m 100 803 l 99 803 b 93 809 96 804 93 806 l 93 810 b 98 834 94 819 96 827 b 104 840 98 838 101 840 b 111 833 109 840 111 836 l 111 831 b 106 808 109 823 107 815 b 100 803 106 806 103 803 z m 110 847 l 109 847 b 103 853 105 848 103 850 l 103 855 b 205 951 115 906 155 947 l 205 951 b 212 944 209 951 212 947 b 206 937 212 941 210 937 b 117 852 163 934 127 897 b 110 847 116 849 113 847 z m 252 609 l 251 609 b 190 719 205 611 190 669 l 191 726 b 250 842 192 777 204 842 l 251 842 b 313 732 297 842 313 779 l 313 726 b 252 609 311 678 300 609 z m 294 583 b 289 585 292 583 290 583 b 288 589 288 586 288 588 b 290 594 288 591 288 593 b 324 666 307 608 319 637 b 331 671 325 669 328 671 b 338 665 335 671 338 669 l 338 663 b 298 584 332 633 319 602 b 294 583 297 583 296 583 z "},"":{"ha":733,"x_min":0,"x_max":0,"o":"m 366 226 b 466 325 421 226 466 271 l 466 437 l 579 437 b 677 536 633 437 677 481 b 578 636 677 591 633 636 l 466 636 l 466 748 b 366 848 466 802 421 848 l 365 848 b 267 748 311 846 267 802 l 267 636 l 155 636 b 56 536 100 636 56 591 b 154 437 56 481 100 437 l 267 437 l 267 323 b 366 226 267 270 312 226 z m 303 771 l 299 772 b 293 781 295 774 293 777 l 294 785 b 333 825 300 801 312 819 l 336 825 b 346 815 342 825 346 820 b 338 806 346 811 344 807 b 312 777 325 802 317 791 b 303 771 311 774 307 771 z m 96 564 l 92 564 b 86 573 88 566 86 570 l 87 577 b 126 616 94 593 105 610 b 129 617 127 617 128 617 l 130 617 b 139 607 136 617 139 612 b 132 597 139 603 137 599 b 105 570 119 593 111 583 b 96 564 104 566 100 564 z m 578 -7 b 677 92 633 -7 677 38 b 578 192 677 147 633 192 l 155 192 b 56 92 100 192 56 147 b 155 -7 56 38 100 -7 z "},"":{"ha":359,"x_min":0,"x_max":0,"o":"m 250 556 b 304 610 279 556 304 581 b 250 664 304 640 279 664 l 208 664 l 224 690 b 300 898 260 753 300 824 b 185 1016 300 945 264 1016 b 100 986 156 1016 125 1007 b 60 895 75 965 60 930 b 114 840 60 865 83 840 b 168 894 144 840 168 865 l 168 895 b 170 904 168 904 169 903 b 189 908 172 906 178 908 l 192 898 b 131 744 192 873 163 801 b 66 642 98 687 66 642 b 56 610 59 632 56 621 b 109 556 56 583 78 556 z "},"":{"ha":370,"x_min":0,"x_max":0,"o":"m 186 556 b 286 613 229 556 265 582 b 313 711 304 642 313 675 l 313 719 b 288 789 313 747 302 770 b 311 871 302 812 311 840 l 311 874 b 281 968 310 908 301 941 b 190 1014 261 994 227 1014 b 90 963 143 1014 108 986 b 67 916 73 939 67 916 b 64 900 66 910 64 905 b 104 848 64 877 81 855 b 118 846 109 847 114 846 b 171 887 142 846 165 863 b 177 899 171 887 172 892 b 190 906 182 905 182 906 l 192 906 b 195 903 193 906 193 905 b 203 872 198 899 203 888 l 203 868 b 196 847 203 852 199 850 b 182 842 193 844 186 842 l 176 842 l 172 841 l 166 839 b 161 838 164 839 163 838 b 147 829 156 836 152 832 b 140 821 145 826 142 824 l 137 817 b 131 802 134 812 132 807 b 129 791 130 798 130 795 l 129 785 l 130 775 l 134 765 b 137 760 135 763 136 762 b 147 748 140 755 143 751 b 156 741 150 745 153 743 l 165 737 b 171 736 168 736 169 736 l 176 734 l 182 734 b 199 727 184 734 194 732 b 206 716 205 723 205 721 b 195 672 206 697 201 680 b 187 664 191 665 189 664 l 186 664 b 170 673 176 664 174 667 b 163 687 164 680 163 687 b 111 728 157 711 135 728 b 97 726 106 728 102 728 b 56 675 73 720 56 699 b 58 661 56 670 57 665 b 82 610 58 661 64 635 b 186 556 100 585 137 556 z "},"":{"ha":296,"x_min":0,"x_max":0,"o":"m 111 787 b 155 812 128 787 145 795 l 231 929 b 240 959 237 939 240 949 b 186 1013 240 987 218 1013 l 184 1013 b 141 987 166 1012 150 1002 l 65 870 b 56 840 59 861 56 850 b 81 795 56 823 65 806 b 111 787 90 789 100 787 z "},"":{"ha":800,"x_min":0,"x_max":0,"o":""},"":{"ha":446,"x_min":0,"x_max":0,"o":""},"":{"ha":311,"x_min":0,"x_max":0,"o":"m 155 594 b 56 484 100 594 56 545 b 155 373 56 422 100 373 b 254 484 210 373 254 422 b 155 594 254 545 210 594 z "},"":{"ha":301,"x_min":0,"x_max":0,"o":"m 113 -66 l 123 -64 b 221 -12 168 -55 200 -37 b 245 52 237 8 245 29 b 241 79 245 61 243 70 b 163 141 228 113 201 134 l 168 157 b 170 170 169 162 170 166 b 157 202 170 182 165 193 b 124 216 148 211 137 216 l 122 216 b 96 205 112 215 103 212 b 80 182 88 199 83 191 l 57 99 b 55 86 56 94 55 90 b 69 54 55 73 60 63 b 101 41 78 45 89 41 b 123 47 109 41 115 43 b 146 55 134 52 142 55 b 151 55 148 55 149 55 b 153 54 151 54 152 54 b 154 52 153 53 153 52 l 154 51 l 155 51 l 151 47 b 138 37 149 44 145 41 b 104 25 130 32 119 28 b 78 9 94 22 85 17 b 68 -20 71 0 68 -9 l 69 -29 b 85 -56 71 -40 77 -49 b 113 -66 94 -62 103 -66 z "},"":{"ha":298,"x_min":0,"x_max":0,"o":"m 188 556 b 241 602 215 556 237 576 l 242 610 b 204 662 242 633 227 654 l 204 960 b 151 1013 204 989 180 1013 l 149 1013 b 112 997 135 1013 121 1007 l 74 958 b 58 921 63 947 58 935 b 97 869 58 899 73 876 l 97 663 b 56 610 72 656 56 635 l 56 604 b 109 556 59 576 82 556 z "},"":{"ha":511,"x_min":0,"x_max":0,"o":"m 256 1011 b 56 784 142 1011 56 907 b 256 556 56 661 142 556 b 456 784 369 556 456 661 b 256 1011 456 907 369 1011 z m 256 623 b 123 784 185 623 123 692 b 256 944 123 876 185 944 b 389 784 327 944 389 876 b 256 623 389 692 327 623 z "},"":{"ha":668,"x_min":0,"x_max":0,"o":"m 334 264 b 361 272 343 264 353 267 l 612 434 l 612 517 l 361 680 b 335 688 353 685 344 688 l 332 688 b 285 652 311 688 291 673 b 283 640 284 648 283 644 b 307 596 283 622 292 606 l 494 476 l 307 355 b 283 313 292 347 283 330 b 291 286 283 304 286 295 b 334 264 301 272 317 264 z m 106 264 b 134 272 116 264 125 267 l 385 434 l 385 517 l 134 680 b 108 688 126 685 117 688 l 105 688 b 58 652 83 688 64 673 b 56 638 57 648 56 643 b 80 596 56 621 65 606 l 267 476 l 80 355 b 56 313 65 347 56 330 b 64 286 56 304 59 295 b 106 264 74 272 90 264 z "},"":{"ha":828,"x_min":0,"x_max":0,"o":"m 188 534 b 241 581 214 534 237 554 l 242 589 b 204 640 242 612 227 633 l 204 938 b 151 991 204 968 180 991 l 149 991 b 111 975 135 991 121 985 l 74 937 b 58 899 63 926 58 913 b 96 847 58 877 72 854 l 96 641 b 56 589 72 635 56 613 l 56 582 b 109 534 59 555 82 534 z m 718 6 b 772 60 748 6 772 30 l 772 412 b 718 466 772 442 748 466 l 718 466 b 665 412 688 465 665 441 l 665 220 l 609 218 l 661 393 b 663 410 662 399 663 404 b 608 463 663 438 640 463 l 608 463 b 557 424 585 463 564 446 l 485 179 b 482 163 483 174 482 169 b 536 110 482 135 506 110 b 665 112 621 110 575 111 l 665 60 b 718 6 665 30 688 6 z m 210 0 b 277 43 237 0 264 16 l 678 871 b 686 905 684 882 686 893 b 614 979 686 943 656 978 l 612 979 b 544 936 583 979 556 962 l 143 108 b 135 75 138 97 135 86 b 178 7 135 47 151 20 b 210 0 188 3 199 0 z "},"":{"ha":842,"x_min":0,"x_max":0,"o":"m 732 1 b 770 16 747 1 760 6 b 786 54 781 26 786 39 b 770 93 786 69 781 82 b 732 109 760 103 747 109 l 690 109 l 707 136 b 741 197 718 155 730 176 b 770 266 753 219 762 242 b 782 342 778 290 782 315 b 757 416 782 367 774 391 b 720 447 748 428 735 438 b 668 460 704 456 686 460 b 583 431 635 460 606 450 b 542 339 555 406 542 375 b 557 301 542 324 547 311 b 596 285 568 290 581 285 b 634 300 610 285 623 290 b 650 345 644 311 650 325 b 652 348 650 345 650 347 b 665 351 652 349 657 350 l 670 352 l 674 342 b 656 278 674 330 668 309 b 568 115 635 226 606 172 l 548 85 b 537 54 541 75 537 64 b 553 17 537 40 543 28 b 591 1 563 6 576 1 z m 209 0 b 249 12 223 0 236 4 b 277 43 261 19 271 29 l 678 871 b 686 905 684 882 686 893 b 666 956 686 924 680 941 b 612 980 652 970 635 979 b 544 937 583 980 561 966 l 143 109 b 135 75 138 97 135 86 b 157 22 135 54 142 37 b 209 0 172 7 189 0 z m 188 535 b 242 589 219 535 237 553 b 232 621 242 601 239 611 b 204 641 224 630 216 637 l 204 939 b 189 977 204 953 199 966 b 149 992 178 987 165 992 b 112 976 135 992 122 987 l 74 937 b 58 900 64 926 58 913 b 68 869 58 888 62 878 b 97 848 75 859 85 852 l 97 642 b 67 622 84 638 75 631 b 56 589 60 612 56 602 b 71 550 56 573 62 560 b 109 535 80 540 93 535 z "},"":{"ha":836,"x_min":0,"x_max":0,"o":"m 190 884 l 193 884 b 194 883 193 884 193 884 b 195 881 194 882 194 882 b 203 850 199 876 202 866 b 203 836 203 844 203 840 b 200 829 202 833 201 831 b 196 825 199 827 197 826 b 190 821 195 823 193 822 b 182 820 186 821 184 820 l 177 820 l 172 819 l 161 816 b 148 807 157 814 152 810 l 146 805 b 140 799 144 803 142 801 l 137 795 b 131 780 134 790 132 785 b 130 772 130 778 130 775 b 129 769 129 772 129 770 l 129 764 l 130 759 b 131 753 130 757 130 755 b 134 743 132 750 133 747 b 137 739 135 741 136 740 b 147 726 140 734 143 730 b 156 720 150 724 153 722 l 165 715 b 167 715 166 715 166 715 b 171 714 168 714 169 714 l 176 713 l 182 713 b 190 711 183 713 186 712 b 199 705 193 709 197 707 b 205 701 202 703 204 702 b 206 694 205 699 206 696 b 195 650 206 675 203 661 b 192 645 194 648 193 646 b 190 643 191 644 191 643 b 187 642 189 642 188 642 l 186 642 b 176 644 181 642 178 643 b 171 650 174 645 172 647 b 170 652 170 650 170 651 b 164 661 167 655 165 659 l 163 664 b 162 665 163 664 163 665 l 162 665 b 143 696 159 678 153 688 b 111 707 134 703 123 707 b 97 705 106 707 102 706 b 68 685 85 701 75 694 b 56 653 60 675 56 665 b 58 639 56 648 57 644 b 59 637 58 638 58 638 l 59 636 b 61 631 60 635 60 633 b 68 612 62 627 65 620 b 82 589 72 605 76 597 b 123 552 92 576 105 564 b 186 534 140 541 161 534 b 244 551 207 534 227 540 b 286 591 261 562 275 576 b 313 690 304 621 313 654 l 313 697 b 307 736 313 711 311 724 b 288 768 302 747 295 758 b 311 849 303 791 311 819 l 311 852 b 281 946 311 887 300 918 b 242 979 271 960 258 970 b 190 992 226 988 208 992 b 130 976 166 992 146 987 b 91 941 113 965 100 954 b 73 909 82 929 76 918 b 68 895 70 901 68 897 l 67 895 l 67 894 b 65 878 66 889 65 884 b 76 847 65 867 68 857 b 104 827 83 837 92 830 b 118 825 109 825 113 825 b 151 836 130 825 141 829 b 171 865 161 844 168 853 l 171 866 b 172 867 171 866 172 866 b 173 869 172 867 172 868 b 177 877 174 871 175 873 b 178 879 178 878 178 878 b 182 884 180 881 181 883 b 190 884 184 884 186 884 z m 219 0 b 258 12 233 0 246 4 b 286 43 270 19 279 29 l 687 871 b 695 905 692 882 695 893 b 675 956 695 924 688 941 b 623 979 662 970 644 978 l 621 979 b 553 936 592 979 570 965 l 152 108 b 144 75 147 97 144 86 b 155 36 144 61 148 48 b 186 7 163 24 173 14 b 219 0 197 3 208 0 z m 727 6 b 766 22 743 6 755 12 b 781 61 776 33 781 45 l 781 411 b 766 450 781 426 776 439 b 728 466 755 460 743 466 l 726 466 b 689 450 711 465 699 460 b 673 412 679 439 673 427 l 673 220 l 618 218 l 669 393 b 672 410 671 399 672 404 b 656 448 672 424 667 437 b 618 463 646 458 633 463 l 616 463 b 566 424 591 461 575 448 l 494 179 b 492 163 492 174 492 168 b 507 126 492 149 497 136 b 545 110 517 115 530 110 b 581 110 561 110 573 110 b 600 111 589 110 595 110 b 612 111 604 111 608 111 b 632 111 616 111 623 111 b 673 112 641 111 654 111 l 673 60 b 689 22 673 45 679 32 b 727 6 699 12 712 6 z "},"":{"ha":604,"x_min":0,"x_max":0,"o":"m 354 710 b 284 681 326 710 303 701 b 256 609 265 661 256 637 b 236 534 255 580 249 555 b 180 465 223 513 204 490 b 115 389 151 432 128 407 b 56 227 75 340 56 286 b 87 119 56 190 66 154 b 172 34 107 85 136 56 b 298 0 208 12 250 0 b 444 40 353 0 401 14 b 534 144 487 66 517 101 b 547 209 543 165 547 186 b 534 281 547 232 543 256 b 481 336 523 307 505 326 b 441 345 469 342 455 345 b 404 338 429 345 417 343 b 349 285 378 327 359 309 b 341 246 344 273 341 260 b 349 208 341 234 344 221 l 338 201 b 298 195 330 197 316 195 b 267 203 285 195 274 197 b 254 222 258 208 254 215 b 272 264 254 233 260 247 b 328 332 283 281 302 303 b 385 401 347 351 365 374 b 433 493 404 428 420 458 b 454 609 447 528 454 566 b 425 681 453 637 444 661 b 354 710 406 701 382 710 z m 495 148 b 505 140 500 148 503 145 l 505 138 b 503 133 505 136 505 135 b 356 22 470 75 421 38 l 353 22 b 344 32 347 22 344 26 b 352 41 344 37 347 40 b 486 142 411 56 456 90 b 495 148 488 146 490 148 z m 517 235 b 524 232 519 235 522 234 b 528 215 526 230 528 224 b 521 172 528 201 525 187 b 511 165 519 168 516 165 b 502 174 505 165 502 168 l 503 178 b 507 213 505 189 507 201 l 507 224 b 517 235 507 231 510 235 z m 374 467 l 376 467 b 387 457 383 467 387 464 b 385 452 387 456 386 454 b 266 299 357 405 317 354 b 249 281 260 293 254 287 b 241 278 247 279 244 278 b 231 288 235 278 231 281 b 251 313 231 290 238 298 b 368 463 300 365 340 414 b 374 467 370 465 372 467 z m 357 975 b 287 942 330 975 306 964 b 258 864 267 921 258 895 b 287 786 258 833 267 808 b 357 754 306 765 330 754 b 427 786 385 754 408 765 b 456 864 446 808 456 833 b 427 942 456 895 446 921 b 357 975 408 964 385 975 z m 433 862 b 437 861 434 862 435 861 b 441 857 439 860 441 859 b 443 852 442 855 443 853 b 434 825 443 849 440 840 b 412 796 427 806 419 797 b 402 806 406 797 402 800 b 404 812 402 808 403 810 b 423 854 411 821 417 836 b 433 862 425 859 428 862 z "},"":{"ha":737,"x_min":0,"x_max":0,"o":"m 582 0 l 597 1 b 681 99 646 9 681 52 l 679 117 b 606 515 679 117 648 317 b 537 791 585 615 562 713 b 497 893 525 829 514 862 b 461 940 489 908 479 924 b 420 965 451 948 437 958 b 379 973 407 970 393 973 b 313 947 354 973 330 964 l 307 943 b 281 899 296 930 286 915 b 58 121 196 694 121 427 l 56 98 b 134 3 56 53 88 12 b 155 1 141 1 148 1 b 252 81 201 1 244 33 b 292 261 265 143 279 204 l 452 264 l 483 86 b 582 0 491 35 534 0 z m 250 736 l 247 736 b 240 746 243 738 240 743 l 240 749 b 279 869 251 786 262 830 b 351 956 296 908 318 941 l 357 956 b 366 946 362 956 366 951 b 358 936 366 942 363 938 b 297 861 333 926 314 899 b 260 743 281 825 271 781 b 250 736 258 739 254 736 z m 225 648 l 222 648 b 215 658 218 650 215 654 l 215 661 l 228 705 b 237 713 229 709 233 712 b 248 703 243 713 248 709 l 247 700 l 235 655 b 225 648 233 651 229 648 z m 343 461 l 384 597 b 414 463 395 553 404 510 z m 443 488 l 441 487 b 431 496 436 487 431 491 l 411 587 b 420 597 411 593 414 597 b 431 589 425 597 429 594 l 450 497 b 443 488 450 492 448 488 z m 375 1017 b 404 1025 385 1017 395 1020 b 429 1071 420 1036 429 1054 b 419 1101 429 1082 425 1092 l 344 1218 b 298 1244 334 1234 317 1243 b 244 1190 267 1244 244 1217 b 253 1160 244 1179 247 1169 l 329 1042 b 375 1017 339 1026 357 1017 z "},"":{"ha":737,"x_min":0,"x_max":0,"o":"m 582 0 l 597 1 b 681 99 646 9 681 52 l 679 117 b 606 515 679 117 648 317 b 537 791 585 615 562 713 b 497 893 525 829 514 862 b 461 940 489 908 479 924 b 420 965 451 948 437 958 b 379 973 407 970 393 973 b 313 947 354 973 330 964 l 307 943 b 281 899 296 930 286 915 b 58 121 196 694 121 427 l 56 98 b 134 3 56 53 88 12 b 155 1 141 1 148 1 b 252 81 201 1 244 33 b 292 261 265 143 279 204 l 452 264 l 483 86 b 582 0 491 35 534 0 z m 250 736 l 247 736 b 240 746 243 738 240 743 l 240 749 b 279 869 251 786 262 830 b 351 956 296 908 318 941 l 357 956 b 366 946 362 956 366 951 b 358 936 366 942 363 938 b 297 861 333 926 314 899 b 260 743 281 825 271 781 b 250 736 258 739 254 736 z m 225 648 l 222 648 b 215 658 218 650 215 654 l 215 661 l 228 705 b 237 713 229 709 233 712 b 248 703 243 713 248 709 l 247 700 l 235 655 b 225 648 233 651 229 648 z m 343 461 l 384 597 b 414 463 395 553 404 510 z m 443 488 l 441 487 b 431 496 436 487 431 491 l 411 587 b 420 597 411 593 414 597 b 431 589 425 597 429 594 l 450 497 b 443 488 450 492 448 488 z m 361 1017 b 406 1042 379 1017 396 1026 l 482 1160 b 491 1190 488 1169 491 1179 b 437 1243 491 1217 469 1243 l 435 1243 b 392 1218 417 1242 401 1233 l 316 1101 b 307 1071 310 1091 307 1081 b 332 1026 307 1053 316 1036 b 361 1017 341 1020 351 1017 z "},"":{"ha":737,"x_min":0,"x_max":0,"o":"m 582 0 l 597 1 b 681 99 646 9 681 52 l 679 117 b 606 515 679 117 648 317 b 537 791 585 615 562 713 b 497 893 525 829 514 862 b 461 940 489 908 479 924 b 420 965 451 948 437 958 b 379 973 407 970 393 973 b 313 947 354 973 330 964 l 307 943 b 281 899 296 930 286 915 b 58 121 196 694 121 427 l 56 98 b 134 3 56 53 88 12 b 155 1 141 1 148 1 b 252 81 201 1 244 33 b 292 261 265 143 279 204 l 452 264 l 483 86 b 582 0 491 35 534 0 z m 250 736 l 247 736 b 240 746 243 738 240 743 l 240 749 b 279 869 251 786 262 830 b 351 956 296 908 318 941 l 357 956 b 366 946 362 956 366 951 b 358 936 366 942 363 938 b 297 861 333 926 314 899 b 260 743 281 825 271 781 b 250 736 258 739 254 736 z m 225 648 l 222 648 b 215 658 218 650 215 654 l 215 661 l 228 705 b 237 713 229 709 233 712 b 248 703 243 713 248 709 l 247 700 l 235 655 b 225 648 233 651 229 648 z m 343 461 l 384 597 b 414 463 395 553 404 510 z m 443 488 l 441 487 b 431 496 436 487 431 491 l 411 587 b 420 597 411 593 414 597 b 431 589 425 597 429 594 l 450 497 b 443 488 450 492 448 488 z m 463 1017 b 493 1027 473 1017 484 1020 b 517 1071 509 1037 517 1054 b 507 1102 517 1082 513 1093 l 422 1227 b 378 1251 412 1242 396 1251 l 376 1251 b 333 1227 359 1251 342 1242 l 248 1102 b 239 1072 242 1093 239 1082 b 262 1027 239 1054 247 1037 b 292 1017 272 1020 282 1017 b 338 1042 310 1017 327 1026 l 378 1101 l 418 1042 b 463 1017 429 1026 446 1017 z "},"":{"ha":737,"x_min":0,"x_max":0,"o":"m 582 0 l 597 1 b 681 99 646 9 681 52 l 679 117 b 606 515 679 117 648 317 b 537 791 585 615 562 713 b 497 893 525 829 514 862 b 461 940 489 908 479 924 b 420 965 451 948 437 958 b 379 973 407 970 393 973 b 313 947 354 973 330 964 l 307 943 b 281 899 296 930 286 915 b 58 121 196 694 121 427 l 56 98 b 134 3 56 53 88 12 b 155 1 141 1 148 1 b 252 81 201 1 244 33 b 292 261 265 143 279 204 l 452 264 l 483 86 b 582 0 491 35 534 0 z m 250 736 l 247 736 b 240 746 243 738 240 743 l 240 749 b 279 869 251 786 262 830 b 351 956 296 908 318 941 l 357 956 b 366 946 362 956 366 951 b 358 936 366 942 363 938 b 297 861 333 926 314 899 b 260 743 281 825 271 781 b 250 736 258 739 254 736 z m 225 648 l 222 648 b 215 658 218 650 215 654 l 215 661 l 228 705 b 237 713 229 709 233 712 b 248 703 243 713 248 709 l 247 700 l 235 655 b 225 648 233 651 229 648 z m 343 461 l 384 597 b 414 463 395 553 404 510 z m 443 488 l 441 487 b 431 496 436 487 431 491 l 411 587 b 420 597 411 593 414 597 b 431 589 425 597 429 594 l 450 497 b 443 488 450 492 448 488 z m 317 1017 b 393 1043 351 1017 374 1033 b 422 1057 408 1052 416 1055 b 465 1028 429 1039 446 1028 b 479 1030 469 1028 474 1029 b 510 1074 498 1037 510 1055 b 508 1086 510 1078 509 1082 b 476 1137 502 1105 493 1124 b 429 1153 463 1148 445 1153 l 421 1152 b 349 1123 387 1149 368 1133 b 321 1111 333 1114 323 1112 b 317 1122 320 1112 319 1114 b 274 1154 312 1141 294 1154 l 273 1154 b 227 1109 247 1154 227 1133 b 229 1095 227 1105 228 1100 b 259 1042 235 1074 244 1056 b 313 1017 273 1027 294 1019 z "},"":{"ha":737,"x_min":0,"x_max":0,"o":"m 582 0 l 597 1 b 681 99 646 9 681 52 l 679 117 b 606 515 679 117 648 317 b 537 791 585 615 562 713 b 497 893 525 829 514 862 b 461 940 489 908 479 924 b 420 965 451 948 437 958 b 379 973 407 970 393 973 b 313 947 354 973 330 964 l 307 943 b 281 899 296 930 286 915 b 58 121 196 694 121 427 l 56 98 b 134 3 56 53 88 12 b 155 1 141 1 148 1 b 252 81 201 1 244 33 b 292 261 265 143 279 204 l 452 264 l 483 86 b 582 0 491 35 534 0 z m 250 736 l 247 736 b 240 746 243 738 240 743 l 240 749 b 279 869 251 786 262 830 b 351 956 296 908 318 941 l 357 956 b 366 946 362 956 366 951 b 358 936 366 942 363 938 b 297 861 333 926 314 899 b 260 743 281 825 271 781 b 250 736 258 739 254 736 z m 225 648 l 222 648 b 215 658 218 650 215 654 l 215 661 l 228 705 b 237 713 229 709 233 712 b 248 703 243 713 248 709 l 247 700 l 235 655 b 225 648 233 651 229 648 z m 343 461 l 384 597 b 414 463 395 553 404 510 z m 443 488 l 441 487 b 431 496 436 487 431 491 l 411 587 b 420 597 411 593 414 597 b 431 589 425 597 429 594 l 450 497 b 443 488 450 492 448 488 z m 290 1166 b 216 1092 249 1166 216 1133 b 290 1017 216 1050 249 1017 b 365 1092 332 1017 365 1050 b 290 1166 365 1133 332 1166 z m 469 1166 b 394 1092 428 1166 394 1133 b 469 1017 394 1050 428 1017 b 543 1092 510 1017 543 1050 b 469 1166 543 1133 510 1166 z "},"":{"ha":737,"x_min":0,"x_max":0,"o":"m 582 0 l 597 1 b 681 99 646 9 681 52 l 679 117 b 606 515 679 117 648 317 b 537 791 585 615 562 713 b 497 893 525 829 514 862 b 461 940 489 908 479 924 b 420 965 451 948 437 958 b 379 973 407 970 393 973 b 313 947 354 973 330 964 l 307 943 b 281 899 296 930 286 915 b 58 121 196 694 121 427 l 56 98 b 134 3 56 53 88 12 b 155 1 141 1 148 1 b 252 81 201 1 244 33 b 292 261 265 143 279 204 l 452 264 l 483 86 b 582 0 491 35 534 0 z m 250 736 l 247 736 b 240 746 243 738 240 743 l 240 749 b 279 869 251 786 262 830 b 351 956 296 908 318 941 l 357 956 b 366 946 362 956 366 951 b 358 936 366 942 363 938 b 297 861 333 926 314 899 b 260 743 281 825 271 781 b 250 736 258 739 254 736 z m 225 648 l 222 648 b 215 658 218 650 215 654 l 215 661 l 228 705 b 237 713 229 709 233 712 b 248 703 243 713 248 709 l 247 700 l 235 655 b 225 648 233 651 229 648 z m 343 461 l 384 597 b 414 463 395 553 404 510 z m 443 488 l 441 487 b 431 496 436 487 431 491 l 411 587 b 420 597 411 593 414 597 b 431 589 425 597 429 594 l 450 497 b 443 488 450 492 448 488 z m 454 1207 b 375 1243 437 1230 407 1243 b 296 1207 343 1243 313 1230 b 271 1131 278 1185 271 1158 b 296 1053 271 1103 279 1076 b 375 1017 314 1031 343 1017 b 454 1053 407 1017 436 1031 b 479 1131 472 1076 479 1103 b 454 1207 479 1158 472 1185 z m 396 1100 b 375 1092 392 1095 388 1092 b 354 1100 362 1092 359 1095 b 346 1131 350 1105 346 1116 b 354 1160 346 1145 350 1156 b 375 1169 358 1166 362 1169 b 396 1160 389 1169 392 1166 b 404 1131 400 1156 404 1145 b 396 1100 404 1116 400 1105 z "},"":{"ha":1105,"x_min":0,"x_max":0,"o":"m 837 519 b 826 529 831 519 827 523 b 829 536 826 532 827 534 b 836 539 831 538 833 539 l 911 541 b 921 531 918 541 921 537 b 911 521 920 524 918 521 b 894 520 905 521 899 521 z m 1015 103 b 1004 111 1009 103 1006 106 b 976 145 1000 125 990 136 b 933 159 961 154 947 159 b 923 168 926 159 923 162 b 932 178 923 175 926 178 b 987 161 951 178 969 173 b 1023 113 1008 149 1020 133 b 1015 103 1023 107 1021 104 z m 454 727 b 448 730 452 727 450 728 b 444 737 446 732 444 734 b 446 743 444 739 445 741 l 454 755 b 524 855 475 790 498 823 b 610 910 549 886 578 905 b 621 901 616 910 620 907 b 612 890 621 895 618 890 b 536 839 585 886 559 869 b 471 745 512 809 490 778 b 464 733 469 741 466 736 b 454 727 461 729 458 727 z m 599 452 b 589 463 592 452 589 456 l 587 555 b 597 565 587 560 591 564 b 605 562 600 565 603 564 b 608 555 607 560 608 557 l 608 461 b 599 452 608 455 605 452 z m 557 457 b 532 460 549 459 541 460 l 458 458 b 559 614 492 513 525 565 b 557 457 557 563 557 511 z m 406 650 b 399 653 404 650 401 651 b 396 660 397 655 396 657 b 397 665 396 662 397 663 l 422 705 b 431 709 425 708 428 709 b 441 699 437 709 441 706 b 414 654 441 697 432 682 b 406 650 412 651 410 650 z m 155 -3 b 208 12 174 -3 191 2 b 245 56 224 22 237 37 b 345 258 278 125 311 193 b 559 264 481 260 552 262 b 570 105 562 201 565 149 b 594 51 573 84 581 66 b 673 4 616 23 643 7 l 677 3 b 759 -1 703 0 730 -1 b 852 1 788 -1 819 -1 b 950 2 886 1 918 2 b 1021 31 978 2 1001 12 b 1050 102 1040 51 1050 74 b 1021 172 1050 129 1040 152 b 951 201 1001 191 978 201 b 844 199 914 200 879 199 b 762 197 812 198 785 197 b 758 357 760 244 759 297 l 920 360 b 991 390 948 360 971 370 b 1019 460 1010 410 1019 433 b 989 531 1019 488 1008 512 b 920 559 970 549 947 559 l 759 556 b 766 769 760 641 763 711 l 947 767 b 1018 796 975 767 998 777 b 1047 867 1038 816 1047 839 b 1019 937 1047 895 1038 918 b 947 966 999 956 975 966 b 826 967 901 966 861 966 b 732 968 799 968 768 968 b 669 962 712 968 691 966 b 631 969 656 966 644 969 b 555 934 602 969 576 958 b 213 431 433 793 319 626 l 179 369 b 56 96 97 214 56 123 b 85 26 56 68 66 45 b 155 -3 105 6 128 -3 z "},"":{"ha":985,"x_min":0,"x_max":0,"o":"m 341 -2 b 479 43 392 -2 439 15 b 508 19 489 32 500 24 b 557 3 529 8 543 6 b 638 -1 584 -1 609 -1 b 828 2 696 -1 766 2 l 829 2 b 929 102 884 2 929 47 b 829 201 929 156 884 201 l 828 201 b 641 197 760 201 690 197 b 637 357 639 243 637 298 l 799 360 b 899 460 854 360 899 406 l 899 461 b 800 559 897 515 853 559 l 638 556 b 645 769 640 638 642 714 b 825 767 686 769 743 767 l 827 767 b 926 867 882 767 926 812 b 828 966 926 922 882 966 l 825 966 b 637 968 747 966 686 968 l 617 968 b 541 960 591 968 570 968 b 488 931 526 956 508 949 l 483 926 b 361 965 447 948 406 963 l 345 966 b 201 922 292 966 241 951 b 107 801 157 890 127 846 b 56 494 68 709 59 605 l 56 446 b 96 182 56 351 66 261 b 330 -2 132 89 218 3 z m 715 519 l 714 519 b 705 529 709 519 705 524 b 715 539 705 534 709 539 l 789 541 b 800 531 795 541 800 536 b 789 521 800 525 795 521 b 715 519 762 520 747 519 z m 114 634 l 113 634 b 104 644 108 635 104 639 l 104 646 b 113 693 106 661 109 677 b 122 701 113 698 117 701 b 132 691 128 701 132 696 l 132 689 b 124 643 129 673 126 657 b 114 634 123 638 119 634 z m 133 724 l 130 724 b 122 734 125 725 122 729 l 122 735 b 300 926 143 836 212 918 b 301 926 300 926 300 926 b 311 917 307 926 311 922 b 302 906 311 911 307 907 b 142 731 225 899 161 825 b 133 724 141 726 137 724 z m 345 197 b 255 481 262 197 255 373 b 345 766 255 591 256 766 b 435 513 426 766 435 621 l 435 439 b 345 197 433 332 418 197 z m 416 184 b 410 186 414 184 412 184 b 406 193 408 188 406 191 b 409 200 406 196 407 198 b 456 356 436 233 452 295 b 465 365 456 361 460 365 l 466 365 b 475 355 471 365 475 360 l 475 355 b 424 187 471 292 456 227 b 416 184 422 185 419 184 z m 895 103 l 892 103 b 882 111 888 103 884 106 b 854 145 879 123 868 136 b 812 159 841 154 825 159 b 802 168 806 159 802 163 b 812 178 802 174 806 178 l 814 178 b 865 161 831 178 850 172 b 901 116 882 151 897 135 l 902 113 b 895 103 902 109 899 104 z "},"":{"ha":644,"x_min":0,"x_max":0,"o":"m 119 733 l 117 733 b 109 743 112 735 109 738 l 110 745 b 186 877 124 800 150 844 b 307 933 222 910 262 928 l 308 933 b 315 930 311 933 313 932 b 318 924 317 928 318 926 l 318 922 b 315 917 318 920 317 918 b 309 913 313 915 311 914 b 199 862 269 909 233 892 b 129 741 166 831 142 791 b 125 735 128 739 127 736 b 119 733 123 734 121 733 z m 416 314 l 413 314 b 406 323 408 316 406 319 l 406 326 b 418 351 408 335 412 343 b 439 371 422 359 430 366 b 442 372 440 372 441 372 b 444 372 443 372 444 372 b 452 369 448 372 450 371 b 454 362 453 367 454 364 b 448 353 454 359 452 355 b 425 321 436 346 429 336 b 422 316 425 319 424 317 b 416 314 420 315 418 314 z m 100 644 l 99 644 b 93 648 96 645 94 646 b 90 654 91 650 90 652 l 90 655 b 99 703 92 671 96 687 b 102 709 100 705 100 707 b 109 711 104 710 106 711 b 115 708 111 711 113 710 b 118 701 117 706 118 703 l 118 699 b 116 686 117 694 117 690 b 110 652 114 675 112 663 b 107 647 110 650 109 648 b 100 644 105 645 102 644 z m 263 14 l 240 -68 b 238 -81 239 -73 238 -77 b 252 -113 238 -94 243 -104 b 284 -126 261 -122 272 -126 b 306 -121 292 -126 298 -124 b 330 -113 317 -115 325 -113 b 334 -113 331 -113 332 -113 b 336 -114 334 -113 335 -113 b 337 -116 336 -115 336 -115 l 337 -117 l 338 -117 l 334 -121 b 321 -131 332 -123 328 -127 b 288 -142 313 -136 302 -139 b 261 -159 277 -145 268 -151 b 251 -187 254 -168 251 -177 l 252 -197 b 269 -223 254 -208 260 -216 b 296 -233 277 -230 286 -233 l 307 -232 b 404 -180 351 -222 383 -205 b 428 -116 420 -159 428 -138 b 424 -89 428 -106 427 -98 b 346 -26 411 -54 385 -33 l 351 -10 b 353 0 352 -7 353 -3 l 355 0 b 507 59 414 0 465 20 b 549 115 525 77 539 95 b 572 171 559 134 567 153 b 586 235 579 194 584 216 b 589 284 588 255 589 271 l 588 307 b 557 374 586 333 576 355 b 489 400 539 391 516 400 l 481 400 b 413 368 452 397 429 387 b 389 302 397 350 389 328 l 389 287 b 388 262 389 281 389 273 b 382 228 387 250 385 239 b 366 203 378 219 374 210 b 340 191 359 195 350 191 b 314 201 330 191 321 195 b 293 229 307 207 300 216 b 268 305 284 243 276 268 b 255 451 259 342 255 391 b 286 722 255 579 265 669 b 312 760 294 741 303 753 b 341 770 321 767 330 770 b 370 759 350 770 359 766 b 388 717 379 751 385 736 b 421 652 391 690 402 669 b 488 626 439 635 462 626 l 498 627 b 562 661 524 630 545 642 b 587 726 578 679 587 701 l 586 738 l 586 739 b 582 760 585 741 584 748 l 581 760 l 581 763 l 581 764 l 581 766 b 580 768 580 767 580 767 l 580 770 b 552 845 575 791 566 817 b 509 902 542 864 528 883 b 441 949 490 920 467 937 b 351 969 414 962 384 969 b 202 922 296 969 247 954 b 103 800 157 890 124 849 b 66 662 85 758 73 711 b 56 499 59 612 56 558 l 56 447 b 72 267 57 379 62 319 b 121 127 81 215 98 168 b 220 33 146 86 179 55 b 263 14 233 25 248 19 z "},"":{"ha":606,"x_min":0,"x_max":0,"o":"m 259 -1 b 449 3 317 -1 387 3 l 450 3 b 550 102 505 3 550 47 b 450 201 550 157 505 201 l 449 201 b 262 198 381 201 311 198 b 258 358 260 243 258 299 l 420 361 b 519 460 475 361 519 406 l 519 462 b 420 559 518 516 474 559 l 259 557 b 266 770 260 639 263 715 b 446 768 307 770 363 768 l 448 768 b 547 867 503 768 547 812 b 448 966 547 922 503 966 l 446 966 b 258 969 368 966 307 969 b 238 968 251 969 245 969 b 161 960 212 968 191 968 b 109 932 147 956 129 950 b 73 858 90 915 75 884 l 73 860 b 56 448 62 774 56 609 b 70 105 56 316 60 186 l 69 106 b 129 20 74 63 109 30 b 178 4 150 9 164 7 b 259 -1 205 0 230 -1 z m 117 732 b 107 743 111 732 107 737 b 220 948 111 850 110 932 l 222 948 b 233 939 228 948 232 944 b 224 928 233 934 229 929 b 127 742 125 913 130 842 b 117 732 127 736 122 732 z m 113 644 l 112 644 b 102 654 106 644 102 648 b 106 701 104 671 104 681 b 115 710 106 706 110 710 l 116 710 b 125 701 121 710 125 705 l 122 653 b 113 644 122 648 118 644 z m 345 526 b 335 536 340 526 335 530 b 345 546 335 542 340 546 l 420 547 b 429 538 425 547 429 543 l 429 536 b 420 528 429 532 425 528 z m 522 110 b 512 117 517 110 513 113 b 485 152 509 130 498 143 b 444 165 472 160 456 165 l 442 165 b 431 176 436 165 432 170 b 441 186 431 181 436 186 b 496 169 460 186 479 180 b 532 123 512 157 526 142 l 532 120 b 524 111 532 116 529 112 z m 310 1017 b 339 1025 320 1017 330 1020 b 363 1071 355 1036 363 1054 b 354 1101 363 1082 360 1092 l 279 1218 b 233 1244 269 1234 252 1243 b 179 1190 202 1244 179 1217 b 188 1160 179 1179 182 1169 l 264 1042 b 310 1017 274 1026 292 1017 z "},"":{"ha":606,"x_min":0,"x_max":0,"o":"m 259 -1 b 449 3 317 -1 387 3 l 450 3 b 550 102 505 3 550 47 b 450 201 550 157 505 201 l 449 201 b 262 198 381 201 311 198 b 258 358 260 243 258 299 l 420 361 b 519 460 475 361 519 406 l 519 462 b 420 559 518 516 474 559 l 259 557 b 266 770 260 639 263 715 b 446 768 307 770 363 768 l 448 768 b 547 867 503 768 547 812 b 448 966 547 922 503 966 l 446 966 b 258 969 368 966 307 969 b 238 968 251 969 245 969 b 161 960 212 968 191 968 b 109 932 147 956 129 950 b 73 858 90 915 75 884 l 73 860 b 56 448 62 774 56 609 b 70 105 56 316 60 186 l 69 106 b 129 20 74 63 109 30 b 178 4 150 9 164 7 b 259 -1 205 0 230 -1 z m 117 732 b 107 743 111 732 107 737 b 220 948 111 850 110 932 l 222 948 b 233 939 228 948 232 944 b 224 928 233 934 229 929 b 127 742 125 913 130 842 b 117 732 127 736 122 732 z m 113 644 l 112 644 b 102 654 106 644 102 648 b 106 701 104 671 104 681 b 115 710 106 706 110 710 l 116 710 b 125 701 121 710 125 705 l 122 653 b 113 644 122 648 118 644 z m 345 526 b 335 536 340 526 335 530 b 345 546 335 542 340 546 l 420 547 b 429 538 425 547 429 543 l 429 536 b 420 528 429 532 425 528 z m 522 110 b 512 117 517 110 513 113 b 485 152 509 130 498 143 b 444 165 472 160 456 165 l 442 165 b 431 176 436 165 432 170 b 441 186 431 181 436 186 b 496 169 460 186 479 180 b 532 123 512 157 526 142 l 532 120 b 524 111 532 116 529 112 z m 296 1017 b 341 1042 314 1017 331 1026 l 417 1160 b 426 1190 423 1169 426 1179 b 372 1243 426 1217 404 1243 l 370 1243 b 327 1218 352 1242 336 1233 l 251 1101 b 242 1071 245 1091 242 1081 b 267 1026 242 1053 251 1036 b 296 1017 276 1020 286 1017 z "},"":{"ha":606,"x_min":0,"x_max":0,"o":"m 259 -1 b 449 3 317 -1 387 3 l 450 3 b 550 102 505 3 550 47 b 450 201 550 157 505 201 l 449 201 b 262 198 381 201 311 198 b 258 358 260 243 258 299 l 420 361 b 519 460 475 361 519 406 l 519 462 b 420 559 518 516 474 559 l 259 557 b 266 770 260 639 263 715 b 446 768 307 770 363 768 l 448 768 b 547 867 503 768 547 812 b 448 966 547 922 503 966 l 446 966 b 258 969 368 966 307 969 b 238 968 251 969 245 969 b 161 960 212 968 191 968 b 109 932 147 956 129 950 b 73 858 90 915 75 884 l 73 860 b 56 448 62 774 56 609 b 70 105 56 316 60 186 l 69 106 b 129 20 74 63 109 30 b 178 4 150 9 164 7 b 259 -1 205 0 230 -1 z m 117 732 b 107 743 111 732 107 737 b 220 948 111 850 110 932 l 222 948 b 233 939 228 948 232 944 b 224 928 233 934 229 929 b 127 742 125 913 130 842 b 117 732 127 736 122 732 z m 113 644 l 112 644 b 102 654 106 644 102 648 b 106 701 104 671 104 681 b 115 710 106 706 110 710 l 116 710 b 125 701 121 710 125 705 l 122 653 b 113 644 122 648 118 644 z m 345 526 b 335 536 340 526 335 530 b 345 546 335 542 340 546 l 420 547 b 429 538 425 547 429 543 l 429 536 b 420 528 429 532 425 528 z m 522 110 b 512 117 517 110 513 113 b 485 152 509 130 498 143 b 444 165 472 160 456 165 l 442 165 b 431 176 436 165 432 170 b 441 186 431 181 436 186 b 496 169 460 186 479 180 b 532 123 512 157 526 142 l 532 120 b 524 111 532 116 529 112 z m 389 1017 b 418 1027 399 1017 409 1020 b 442 1071 434 1037 442 1054 b 432 1102 442 1082 439 1093 l 348 1227 b 304 1251 338 1242 321 1251 l 302 1251 b 258 1227 284 1251 268 1242 l 174 1102 b 164 1072 168 1093 164 1082 b 188 1027 164 1054 172 1037 b 218 1017 197 1020 208 1017 b 263 1042 235 1017 252 1026 l 303 1101 l 343 1042 b 389 1017 354 1026 371 1017 z "},"":{"ha":606,"x_min":0,"x_max":0,"o":"m 259 -1 b 449 3 317 -1 387 3 l 450 3 b 550 102 505 3 550 47 b 450 201 550 157 505 201 l 449 201 b 262 198 381 201 311 198 b 258 358 260 243 258 299 l 420 361 b 519 460 475 361 519 406 l 519 462 b 420 559 518 516 474 559 l 259 557 b 266 770 260 639 263 715 b 446 768 307 770 363 768 l 448 768 b 547 867 503 768 547 812 b 448 966 547 922 503 966 l 446 966 b 258 969 368 966 307 969 b 238 968 251 969 245 969 b 161 960 212 968 191 968 b 109 932 147 956 129 950 b 73 858 90 915 75 884 l 73 860 b 56 448 62 774 56 609 b 70 105 56 316 60 186 l 69 106 b 129 20 74 63 109 30 b 178 4 150 9 164 7 b 259 -1 205 0 230 -1 z m 117 732 b 107 743 111 732 107 737 b 220 948 111 850 110 932 l 222 948 b 233 939 228 948 232 944 b 224 928 233 934 229 929 b 127 742 125 913 130 842 b 117 732 127 736 122 732 z m 113 644 l 112 644 b 102 654 106 644 102 648 b 106 701 104 671 104 681 b 115 710 106 706 110 710 l 116 710 b 125 701 121 710 125 705 l 122 653 b 113 644 122 648 118 644 z m 345 526 b 335 536 340 526 335 530 b 345 546 335 542 340 546 l 420 547 b 429 538 425 547 429 543 l 429 536 b 420 528 429 532 425 528 z m 522 110 b 512 117 517 110 513 113 b 485 152 509 130 498 143 b 444 165 472 160 456 165 l 442 165 b 431 176 436 165 432 170 b 441 186 431 181 436 186 b 496 169 460 186 479 180 b 532 123 512 157 526 142 l 532 120 b 524 111 532 116 529 112 z m 213 1166 b 138 1092 172 1166 138 1133 b 213 1017 138 1050 172 1017 b 288 1092 254 1017 288 1050 b 213 1166 288 1133 254 1166 z m 391 1166 b 317 1092 351 1166 317 1133 b 391 1017 317 1050 351 1017 b 466 1092 433 1017 466 1050 b 391 1166 466 1133 433 1166 z "},"":{"ha":323,"x_min":0,"x_max":0,"o":"m 167 -1 b 260 98 220 3 260 47 l 260 106 b 254 376 256 171 254 269 b 265 865 254 541 258 730 l 265 871 b 170 970 265 924 224 968 l 166 970 b 66 875 113 970 68 928 b 55 375 60 734 55 544 b 61 94 55 267 57 166 b 161 -1 64 41 108 -1 z m 98 707 b 88 718 93 707 88 712 b 96 882 88 801 90 849 b 138 947 102 914 117 932 b 144 949 140 948 142 949 b 154 939 151 949 154 943 b 150 930 154 935 153 932 b 115 878 130 917 121 907 b 109 718 110 848 109 801 b 98 707 109 712 104 707 z m 99 616 b 89 627 93 616 89 621 l 89 673 b 99 683 89 679 94 683 l 100 683 b 109 674 104 683 109 679 l 109 625 b 99 616 109 620 104 616 z m 182 1017 b 211 1025 192 1017 202 1020 b 235 1071 227 1036 235 1054 b 226 1101 235 1082 232 1092 l 151 1218 b 105 1244 140 1234 123 1243 b 51 1190 74 1244 51 1217 b 60 1160 51 1179 54 1169 l 136 1042 b 182 1017 146 1026 163 1017 z "},"":{"ha":323,"x_min":0,"x_max":0,"o":"m 167 -1 b 260 98 220 3 260 47 l 260 106 b 254 376 256 171 254 269 b 265 865 254 541 258 730 l 265 871 b 170 970 265 924 224 968 l 166 970 b 66 875 113 970 68 928 b 55 375 60 734 55 544 b 61 94 55 267 57 166 b 161 -1 64 41 108 -1 z m 98 707 b 88 718 93 707 88 712 b 96 882 88 801 90 849 b 138 947 102 914 117 932 b 144 949 140 948 142 949 b 154 939 151 949 154 943 b 150 930 154 935 153 932 b 115 878 130 917 121 907 b 109 718 110 848 109 801 b 98 707 109 712 104 707 z m 99 616 b 89 627 93 616 89 621 l 89 673 b 99 683 89 679 94 683 l 100 683 b 109 674 104 683 109 679 l 109 625 b 99 616 109 620 104 616 z m 155 1017 b 199 1042 172 1017 189 1026 l 275 1160 b 284 1190 281 1169 284 1179 b 231 1243 284 1217 262 1243 l 228 1243 b 185 1218 210 1242 194 1233 l 109 1101 b 100 1071 103 1091 100 1081 b 125 1026 100 1053 109 1036 b 155 1017 134 1020 144 1017 z "},"":{"ha":323,"x_min":0,"x_max":0,"o":"m 167 -1 b 260 98 220 3 260 47 l 260 106 b 254 376 256 171 254 269 b 265 865 254 541 258 730 l 265 871 b 170 970 265 924 224 968 l 166 970 b 66 875 113 970 68 928 b 55 375 60 734 55 544 b 61 94 55 267 57 166 b 161 -1 64 41 108 -1 z m 98 707 b 88 718 93 707 88 712 b 96 882 88 801 90 849 b 138 947 102 914 117 932 b 144 949 140 948 142 949 b 154 939 151 949 154 943 b 150 930 154 935 153 932 b 115 878 130 917 121 907 b 109 718 110 848 109 801 b 98 707 109 712 104 707 z m 99 616 b 89 627 93 616 89 621 l 89 673 b 99 683 89 679 94 683 l 100 683 b 109 674 104 683 109 679 l 109 625 b 99 616 109 620 104 616 z m 247 1017 b 277 1027 257 1017 267 1020 b 300 1071 292 1037 300 1054 b 290 1102 300 1082 297 1093 l 206 1227 b 162 1251 196 1242 180 1251 l 160 1251 b 117 1227 142 1251 126 1242 l 32 1102 b 22 1072 26 1093 22 1082 b 46 1027 22 1054 31 1037 b 76 1017 56 1020 66 1017 b 121 1042 94 1017 111 1026 l 161 1101 l 201 1042 b 247 1017 212 1026 229 1017 z "},"":{"ha":323,"x_min":0,"x_max":0,"o":"m 167 -1 b 260 98 220 3 260 47 l 260 106 b 254 376 256 171 254 269 b 265 865 254 541 258 730 l 265 871 b 170 970 265 924 224 968 l 166 970 b 66 875 113 970 68 928 b 55 375 60 734 55 544 b 61 94 55 267 57 166 b 161 -1 64 41 108 -1 z m 98 707 b 88 718 93 707 88 712 b 96 882 88 801 90 849 b 138 947 102 914 117 932 b 144 949 140 948 142 949 b 154 939 151 949 154 943 b 150 930 154 935 153 932 b 115 878 130 917 121 907 b 109 718 110 848 109 801 b 98 707 109 712 104 707 z m 99 616 b 89 627 93 616 89 621 l 89 673 b 99 683 89 679 94 683 l 100 683 b 109 674 104 683 109 679 l 109 625 b 99 616 109 620 104 616 z m 72 1166 b -3 1092 31 1166 -3 1133 b 72 1017 -3 1050 31 1017 b 146 1092 113 1017 146 1050 b 72 1166 146 1133 113 1166 z m 250 1166 b 176 1092 210 1166 176 1133 b 250 1017 176 1050 210 1017 b 325 1092 292 1017 325 1050 b 250 1166 325 1133 292 1166 z "},"":{"ha":643,"x_min":0,"x_max":0,"o":"m 102 736 b 92 746 95 736 92 739 l 92 764 b 110 887 92 812 98 854 b 206 951 122 921 154 943 b 217 942 212 951 216 948 b 208 932 217 936 214 932 b 127 878 164 924 137 907 b 112 771 117 850 112 814 b 109 739 112 751 111 741 b 102 736 106 736 104 736 z m -40 482 b -47 490 -45 484 -47 486 b -35 510 -44 498 -40 505 b -14 522 -28 518 -21 522 b -7 515 -9 522 -7 519 b -13 508 -7 512 -9 510 b -33 487 -22 505 -29 497 b -40 482 -35 484 -37 482 z m 329 220 b 319 231 323 220 319 224 b 323 238 319 233 321 236 b 397 383 356 271 381 319 b 405 391 397 388 400 391 b 416 381 412 391 416 387 b 385 290 408 346 397 315 b 336 223 372 262 355 240 b 329 220 334 221 331 220 z m 97 647 b 87 657 90 647 87 650 b 93 711 90 691 92 709 b 100 713 95 713 97 713 b 110 704 106 713 110 710 l 107 656 b 97 647 106 650 103 647 z m 262 221 b 256 391 259 276 256 333 l 288 391 b 340 413 308 391 326 399 b 362 465 355 427 362 445 b 340 517 362 486 355 503 b 288 539 326 532 309 539 l 254 539 b 264 773 256 625 258 703 b 319 759 286 773 304 768 b 349 724 328 753 338 741 b 376 647 359 707 368 681 b 387 510 383 613 387 568 b 368 352 387 443 380 391 b 319 264 355 313 338 283 b 262 221 300 244 281 230 z m 174 0 b 275 15 199 0 233 5 b 483 155 357 34 426 80 b 586 510 551 245 586 363 b 434 921 586 712 535 849 b 281 972 383 954 332 971 l 272 972 b 105 927 197 972 141 958 b 74 861 85 911 75 888 b 56 539 63 797 57 690 l -1 539 b -53 517 -22 539 -39 532 b -75 465 -67 503 -75 486 b -53 413 -75 445 -67 427 b -1 391 -39 399 -21 391 l 56 391 b 73 105 59 271 64 175 b 104 30 73 75 83 50 b 174 0 123 10 147 0 z "},"":{"ha":704,"x_min":0,"x_max":0,"o":"m 537 0 b 555 1 543 0 549 1 b 636 93 600 9 633 47 b 648 545 644 221 648 390 b 638 881 648 680 645 804 b 540 972 634 933 591 972 l 538 972 b 439 874 484 972 439 928 l 440 863 b 449 534 446 798 449 672 b 260 914 386 668 323 798 b 172 966 242 947 208 966 b 153 964 166 966 159 966 b 73 877 110 956 77 920 b 56 458 62 761 56 610 b 71 91 56 330 60 201 b 170 1 76 39 119 1 l 180 1 b 270 100 231 6 270 50 l 269 111 b 255 450 259 208 255 329 l 255 477 b 446 58 319 342 382 201 b 537 0 463 22 498 0 z m 98 696 l 97 696 b 87 706 92 696 87 701 b 103 869 92 789 95 837 b 149 932 111 901 126 918 l 154 934 l 155 934 b 164 924 161 934 164 929 b 159 916 164 921 163 918 b 123 864 139 903 130 893 b 108 705 115 836 112 788 b 98 696 107 701 103 696 z m 497 682 b 487 692 492 682 487 686 l 481 872 b 491 882 481 878 486 882 b 501 873 496 882 501 878 b 507 692 502 852 507 710 l 507 692 b 497 682 507 686 503 682 z m 93 604 b 83 614 87 604 83 609 b 86 661 84 632 85 641 b 96 671 86 667 90 671 l 96 671 b 106 661 102 671 106 666 b 103 614 104 640 104 631 b 93 604 103 608 98 604 z m 302 1017 b 377 1043 336 1017 358 1033 b 406 1057 393 1052 400 1055 b 449 1028 413 1039 431 1028 b 463 1030 454 1028 458 1029 b 494 1074 482 1037 494 1055 b 492 1086 494 1078 494 1082 b 460 1137 486 1105 477 1124 b 414 1153 447 1148 429 1153 l 406 1152 b 333 1123 372 1149 352 1133 b 306 1111 317 1114 308 1112 b 301 1122 304 1112 303 1114 b 258 1154 296 1141 279 1154 l 257 1154 b 212 1109 231 1154 212 1133 b 214 1095 212 1105 212 1100 b 243 1042 220 1074 229 1056 b 297 1017 258 1027 279 1019 z "},"":{"ha":692,"x_min":0,"x_max":0,"o":"m 341 0 b 578 163 448 0 538 76 b 635 471 618 253 631 358 l 635 527 b 600 782 635 618 629 704 b 361 967 566 876 475 962 b 345 968 355 968 350 968 b 201 924 293 967 241 952 b 107 803 157 892 127 848 b 56 496 68 711 59 607 l 56 449 b 96 184 56 353 66 263 b 330 0 132 91 218 5 z m 125 734 l 123 734 b 116 744 119 735 116 739 l 116 746 b 294 937 136 846 205 929 l 294 937 b 304 927 300 937 304 932 b 295 917 304 922 300 918 b 135 742 218 910 155 836 b 125 734 134 737 130 734 z m 340 199 b 281 256 317 199 301 206 b 254 460 264 300 254 374 l 255 491 b 290 724 258 592 270 679 b 351 772 305 757 322 772 b 413 713 378 772 396 762 b 437 515 429 671 437 600 l 436 477 b 397 245 433 378 418 292 b 340 199 381 212 362 199 z m 108 645 l 106 645 b 98 655 101 646 98 650 l 98 656 b 106 704 100 671 102 688 b 115 712 107 708 111 712 b 125 703 121 712 125 707 l 125 700 b 117 654 122 684 119 668 b 108 645 117 649 113 645 z m 410 195 b 403 197 408 195 405 195 b 399 204 401 199 399 201 b 402 211 399 207 400 210 b 449 366 429 243 445 306 b 458 376 449 372 453 376 l 460 376 b 469 366 465 376 469 372 l 469 365 b 417 198 465 302 450 237 b 410 195 415 196 412 195 z m 353 1017 b 382 1025 363 1017 373 1020 b 406 1071 397 1036 406 1054 b 397 1101 406 1082 403 1092 l 321 1218 b 276 1244 311 1234 294 1243 b 222 1190 245 1244 222 1217 b 231 1160 222 1179 224 1169 l 307 1042 b 353 1017 317 1026 334 1017 z "},"":{"ha":692,"x_min":0,"x_max":0,"o":"m 341 0 b 578 163 448 0 538 76 b 635 471 618 253 631 358 l 635 527 b 600 782 635 618 629 704 b 361 967 566 876 475 962 b 345 968 355 968 350 968 b 201 924 293 967 241 952 b 107 803 157 892 127 848 b 56 496 68 711 59 607 l 56 449 b 96 184 56 353 66 263 b 330 0 132 91 218 5 z m 125 734 l 123 734 b 116 744 119 735 116 739 l 116 746 b 294 937 136 846 205 929 l 294 937 b 304 927 300 937 304 932 b 295 917 304 922 300 918 b 135 742 218 910 155 836 b 125 734 134 737 130 734 z m 340 199 b 281 256 317 199 301 206 b 254 460 264 300 254 374 l 255 491 b 290 724 258 592 270 679 b 351 772 305 757 322 772 b 413 713 378 772 396 762 b 437 515 429 671 437 600 l 436 477 b 397 245 433 378 418 292 b 340 199 381 212 362 199 z m 108 645 l 106 645 b 98 655 101 646 98 650 l 98 656 b 106 704 100 671 102 688 b 115 712 107 708 111 712 b 125 703 121 712 125 707 l 125 700 b 117 654 122 684 119 668 b 108 645 117 649 113 645 z m 410 195 b 403 197 408 195 405 195 b 399 204 401 199 399 201 b 402 211 399 207 400 210 b 449 366 429 243 445 306 b 458 376 449 372 453 376 l 460 376 b 469 366 465 376 469 372 l 469 365 b 417 198 465 302 450 237 b 410 195 415 196 412 195 z m 339 1017 b 384 1042 357 1017 374 1026 l 460 1160 b 469 1190 466 1169 469 1179 b 415 1243 469 1217 446 1243 l 412 1243 b 370 1218 395 1242 378 1233 l 294 1101 b 285 1071 288 1091 285 1081 b 309 1026 285 1053 294 1036 b 339 1017 319 1020 329 1017 z "},"":{"ha":692,"x_min":0,"x_max":0,"o":"m 341 0 b 578 163 448 0 538 76 b 635 471 618 253 631 358 l 635 527 b 600 782 635 618 629 704 b 361 967 566 876 475 962 b 345 968 355 968 350 968 b 201 924 293 967 241 952 b 107 803 157 892 127 848 b 56 496 68 711 59 607 l 56 449 b 96 184 56 353 66 263 b 330 0 132 91 218 5 z m 125 734 l 123 734 b 116 744 119 735 116 739 l 116 746 b 294 937 136 846 205 929 l 294 937 b 304 927 300 937 304 932 b 295 917 304 922 300 918 b 135 742 218 910 155 836 b 125 734 134 737 130 734 z m 340 199 b 281 256 317 199 301 206 b 254 460 264 300 254 374 l 255 491 b 290 724 258 592 270 679 b 351 772 305 757 322 772 b 413 713 378 772 396 762 b 437 515 429 671 437 600 l 436 477 b 397 245 433 378 418 292 b 340 199 381 212 362 199 z m 108 645 l 106 645 b 98 655 101 646 98 650 l 98 656 b 106 704 100 671 102 688 b 115 712 107 708 111 712 b 125 703 121 712 125 707 l 125 700 b 117 654 122 684 119 668 b 108 645 117 649 113 645 z m 410 195 b 403 197 408 195 405 195 b 399 204 401 199 399 201 b 402 211 399 207 400 210 b 449 366 429 243 445 306 b 458 376 449 372 453 376 l 460 376 b 469 366 465 376 469 372 l 469 365 b 417 198 465 302 450 237 b 410 195 415 196 412 195 z m 432 1017 b 462 1027 442 1017 452 1020 b 486 1071 477 1037 486 1054 b 475 1102 486 1082 482 1093 l 391 1227 b 347 1251 381 1242 365 1251 l 345 1251 b 302 1227 328 1251 311 1242 l 217 1102 b 208 1072 211 1093 208 1082 b 231 1027 208 1054 216 1037 b 261 1017 241 1020 251 1017 b 307 1042 279 1017 296 1026 l 347 1101 l 387 1042 b 432 1017 397 1026 414 1017 z "},"":{"ha":692,"x_min":0,"x_max":0,"o":"m 341 0 b 578 163 448 0 538 76 b 635 471 618 253 631 358 l 635 527 b 600 782 635 618 629 704 b 361 967 566 876 475 962 b 345 968 355 968 350 968 b 201 924 293 967 241 952 b 107 803 157 892 127 848 b 56 496 68 711 59 607 l 56 449 b 96 184 56 353 66 263 b 330 0 132 91 218 5 z m 125 734 l 123 734 b 116 744 119 735 116 739 l 116 746 b 294 937 136 846 205 929 l 294 937 b 304 927 300 937 304 932 b 295 917 304 922 300 918 b 135 742 218 910 155 836 b 125 734 134 737 130 734 z m 340 199 b 281 256 317 199 301 206 b 254 460 264 300 254 374 l 255 491 b 290 724 258 592 270 679 b 351 772 305 757 322 772 b 413 713 378 772 396 762 b 437 515 429 671 437 600 l 436 477 b 397 245 433 378 418 292 b 340 199 381 212 362 199 z m 108 645 l 106 645 b 98 655 101 646 98 650 l 98 656 b 106 704 100 671 102 688 b 115 712 107 708 111 712 b 125 703 121 712 125 707 l 125 700 b 117 654 122 684 119 668 b 108 645 117 649 113 645 z m 410 195 b 403 197 408 195 405 195 b 399 204 401 199 399 201 b 402 211 399 207 400 210 b 449 366 429 243 445 306 b 458 376 449 372 453 376 l 460 376 b 469 366 465 376 469 372 l 469 365 b 417 198 465 302 450 237 b 410 195 415 196 412 195 z m 295 1017 b 370 1043 329 1017 351 1033 b 399 1057 386 1052 393 1055 b 442 1028 406 1039 424 1028 b 456 1030 447 1028 452 1029 b 488 1074 475 1037 488 1055 b 486 1086 488 1078 487 1082 b 454 1137 479 1105 471 1124 b 407 1153 440 1148 422 1153 l 399 1152 b 326 1123 365 1149 345 1133 b 299 1111 311 1114 301 1112 b 294 1122 298 1112 296 1114 b 252 1154 290 1141 272 1154 l 250 1154 b 205 1109 224 1154 205 1133 b 207 1095 205 1105 205 1100 b 237 1042 213 1074 222 1056 b 290 1017 251 1027 272 1019 z "},"":{"ha":692,"x_min":0,"x_max":0,"o":"m 341 0 b 578 163 448 0 538 76 b 635 471 618 253 631 358 l 635 527 b 600 782 635 618 629 704 b 361 967 566 876 475 962 b 345 968 355 968 350 968 b 201 924 293 967 241 952 b 107 803 157 892 127 848 b 56 496 68 711 59 607 l 56 449 b 96 184 56 353 66 263 b 330 0 132 91 218 5 z m 125 734 l 123 734 b 116 744 119 735 116 739 l 116 746 b 294 937 136 846 205 929 l 294 937 b 304 927 300 937 304 932 b 295 917 304 922 300 918 b 135 742 218 910 155 836 b 125 734 134 737 130 734 z m 340 199 b 281 256 317 199 301 206 b 254 460 264 300 254 374 l 255 491 b 290 724 258 592 270 679 b 351 772 305 757 322 772 b 413 713 378 772 396 762 b 437 515 429 671 437 600 l 436 477 b 397 245 433 378 418 292 b 340 199 381 212 362 199 z m 108 645 l 106 645 b 98 655 101 646 98 650 l 98 656 b 106 704 100 671 102 688 b 115 712 107 708 111 712 b 125 703 121 712 125 707 l 125 700 b 117 654 122 684 119 668 b 108 645 117 649 113 645 z m 410 195 b 403 197 408 195 405 195 b 399 204 401 199 399 201 b 402 211 399 207 400 210 b 449 366 429 243 445 306 b 458 376 449 372 453 376 l 460 376 b 469 366 465 376 469 372 l 469 365 b 417 198 465 302 450 237 b 410 195 415 196 412 195 z m 256 1166 b 182 1092 215 1166 182 1133 b 256 1017 182 1050 215 1017 b 331 1092 298 1017 331 1050 b 256 1166 331 1133 298 1166 z m 435 1166 b 360 1092 394 1166 360 1133 b 435 1017 360 1050 394 1017 b 509 1092 476 1017 509 1050 b 435 1166 509 1133 476 1166 z "},"":{"ha":610,"x_min":0,"x_max":0,"o":"m 455 224 b 525 254 480 224 506 234 b 554 324 545 273 554 298 b 524 395 554 350 545 376 l 446 474 l 524 552 b 554 623 544 571 554 597 b 547 662 554 636 552 649 b 455 723 531 699 495 723 l 452 723 b 384 692 426 722 401 711 l 305 614 l 227 692 b 156 723 208 712 182 723 b 64 661 115 723 79 699 b 56 623 59 648 56 635 b 87 552 56 597 67 571 l 165 474 l 87 395 b 56 323 66 376 56 349 b 85 254 56 298 66 273 b 156 224 105 234 130 224 b 227 255 182 224 208 235 l 305 333 l 384 255 b 455 224 403 235 429 224 z m 86 595 l 83 595 b 74 603 79 595 75 598 b 71 626 72 610 71 618 b 81 659 71 637 73 648 b 89 663 83 661 85 663 b 99 652 95 663 99 658 b 97 647 99 650 98 648 b 91 626 92 640 91 633 b 94 608 91 620 92 614 l 94 606 b 86 595 94 601 91 597 z "},"":{"ha":692,"x_min":0,"x_max":0,"o":"m 125 734 l 123 734 b 118 738 121 734 119 736 b 116 744 117 740 116 742 l 116 746 b 180 876 127 798 148 841 b 294 937 211 911 249 932 l 294 937 b 302 934 297 937 300 936 b 304 927 304 932 304 930 b 302 920 304 924 304 922 b 295 917 300 918 298 918 b 194 863 256 913 222 895 b 135 742 165 831 145 790 b 132 736 134 740 134 738 b 125 734 130 734 127 734 z m 410 195 b 403 197 408 195 405 195 b 399 204 401 199 399 201 b 402 211 399 207 400 209 b 435 279 416 228 427 251 b 449 366 442 307 447 336 b 452 373 449 369 450 371 b 458 376 454 375 456 376 l 460 376 b 466 373 462 376 464 375 b 469 366 468 371 469 369 l 469 365 b 454 273 467 333 462 302 b 417 198 446 243 433 218 b 410 195 415 196 412 195 z m 108 645 l 106 645 b 100 649 104 646 102 647 b 98 655 98 651 98 653 l 98 656 b 106 704 100 672 102 688 b 110 710 106 706 108 708 b 115 712 111 711 113 712 b 123 709 119 712 121 711 b 125 703 125 707 125 705 l 125 700 b 117 654 122 684 119 669 b 114 648 117 652 116 650 b 108 645 112 646 110 645 z m 304 215 l 433 425 b 397 245 428 347 416 288 b 371 210 389 229 380 217 b 340 199 361 202 351 199 b 310 210 329 199 319 202 b 304 215 308 211 306 213 z m 256 515 b 290 724 260 609 271 678 b 315 761 297 741 306 753 b 351 772 325 768 336 772 b 386 761 364 772 376 768 b 398 747 390 758 394 753 z m 617 724 l 698 854 b 713 908 708 871 713 889 b 702 954 713 924 709 939 b 618 1007 684 987 655 1004 l 614 1007 b 529 959 578 1007 550 991 l 502 915 b 361 967 462 946 415 963 b 345 968 355 968 350 968 b 201 924 291 967 243 953 b 107 803 158 890 127 850 b 68 657 88 758 75 709 b 56 496 61 606 57 552 l 56 449 b 64 311 56 401 58 355 b 81 231 68 283 73 256 l -6 90 b -22 37 -16 73 -22 56 b -9 -10 -22 20 -18 5 b 26 -47 -1 -26 10 -38 b 77 -62 43 -58 60 -62 b 125 -50 94 -62 110 -58 b 163 -14 140 -41 153 -29 l 200 47 b 330 0 237 20 281 4 l 341 0 b 441 23 377 0 410 7 b 523 82 472 38 499 58 b 578 163 546 106 564 134 b 621 309 597 208 612 256 b 635 471 629 361 633 415 l 635 527 b 629 659 635 572 633 616 b 617 724 626 681 622 703 z "},"":{"ha":694,"x_min":0,"x_max":0,"o":"m 347 0 b 568 114 428 0 516 39 b 638 412 618 189 638 286 b 626 878 638 737 626 878 b 527 970 621 930 578 970 l 517 969 b 427 871 466 964 427 922 l 428 861 b 439 412 428 861 439 732 b 404 226 439 309 420 250 b 347 199 390 206 372 199 b 291 227 322 199 304 206 b 254 412 274 252 254 311 b 267 867 254 713 267 867 l 267 875 b 169 975 267 929 224 974 l 163 975 b 68 882 113 973 71 932 b 56 412 68 882 56 718 b 126 115 56 288 75 191 b 347 0 177 41 265 0 z m 95 716 l 94 716 b 84 726 88 716 84 721 b 99 890 87 809 91 857 b 144 953 107 922 122 939 b 150 955 146 954 148 955 b 160 945 156 955 160 949 b 155 936 160 941 159 938 b 118 884 135 923 125 913 b 104 726 111 856 108 808 b 95 716 104 721 100 716 z m 469 671 b 459 680 464 671 459 675 b 454 861 458 698 454 840 l 454 862 b 463 871 454 867 458 871 b 473 861 469 871 473 867 l 479 680 b 469 671 479 675 474 671 z m 91 625 l 90 625 b 80 635 84 625 80 629 l 82 682 b 92 691 83 686 86 691 l 93 691 b 102 681 98 691 102 686 b 100 634 101 661 101 651 b 91 625 100 629 96 625 z m 359 158 l 354 158 b 344 169 348 159 344 163 b 353 178 345 174 349 178 l 359 178 b 401 193 376 178 390 184 b 429 230 414 203 423 218 b 437 237 430 234 433 237 b 448 227 444 237 448 232 l 447 222 b 414 178 441 207 429 191 b 359 158 399 166 380 158 z m 354 1017 b 383 1025 364 1017 374 1020 b 408 1071 399 1036 408 1054 b 398 1101 408 1082 404 1092 l 323 1218 b 277 1244 313 1234 296 1243 b 223 1190 246 1244 223 1217 b 232 1160 223 1179 226 1169 l 308 1042 b 354 1017 318 1026 336 1017 z "},"":{"ha":694,"x_min":0,"x_max":0,"o":"m 347 0 b 568 114 428 0 516 39 b 638 412 618 189 638 286 b 626 878 638 737 626 878 b 527 970 621 930 578 970 l 517 969 b 427 871 466 964 427 922 l 428 861 b 439 412 428 861 439 732 b 404 226 439 309 420 250 b 347 199 390 206 372 199 b 291 227 322 199 304 206 b 254 412 274 252 254 311 b 267 867 254 713 267 867 l 267 875 b 169 975 267 929 224 974 l 163 975 b 68 882 113 973 71 932 b 56 412 68 882 56 718 b 126 115 56 288 75 191 b 347 0 177 41 265 0 z m 95 716 l 94 716 b 84 726 88 716 84 721 b 99 890 87 809 91 857 b 144 953 107 922 122 939 b 150 955 146 954 148 955 b 160 945 156 955 160 949 b 155 936 160 941 159 938 b 118 884 135 923 125 913 b 104 726 111 856 108 808 b 95 716 104 721 100 716 z m 469 671 b 459 680 464 671 459 675 b 454 861 458 698 454 840 l 454 862 b 463 871 454 867 458 871 b 473 861 469 871 473 867 l 479 680 b 469 671 479 675 474 671 z m 91 625 l 90 625 b 80 635 84 625 80 629 l 82 682 b 92 691 83 686 86 691 l 93 691 b 102 681 98 691 102 686 b 100 634 101 661 101 651 b 91 625 100 629 96 625 z m 359 158 l 354 158 b 344 169 348 159 344 163 b 353 178 345 174 349 178 l 359 178 b 401 193 376 178 390 184 b 429 230 414 203 423 218 b 437 237 430 234 433 237 b 448 227 444 237 448 232 l 447 222 b 414 178 441 207 429 191 b 359 158 399 166 380 158 z m 340 1017 b 385 1042 358 1017 375 1026 l 461 1160 b 470 1190 467 1169 470 1179 b 416 1243 470 1217 448 1243 l 414 1243 b 371 1218 396 1242 380 1233 l 295 1101 b 286 1071 289 1091 286 1081 b 311 1026 286 1053 295 1036 b 340 1017 320 1020 330 1017 z "},"":{"ha":694,"x_min":0,"x_max":0,"o":"m 347 0 b 568 114 428 0 516 39 b 638 412 618 189 638 286 b 626 878 638 737 626 878 b 527 970 621 930 578 970 l 517 969 b 427 871 466 964 427 922 l 428 861 b 439 412 428 861 439 732 b 404 226 439 309 420 250 b 347 199 390 206 372 199 b 291 227 322 199 304 206 b 254 412 274 252 254 311 b 267 867 254 713 267 867 l 267 875 b 169 975 267 929 224 974 l 163 975 b 68 882 113 973 71 932 b 56 412 68 882 56 718 b 126 115 56 288 75 191 b 347 0 177 41 265 0 z m 95 716 l 94 716 b 84 726 88 716 84 721 b 99 890 87 809 91 857 b 144 953 107 922 122 939 b 150 955 146 954 148 955 b 160 945 156 955 160 949 b 155 936 160 941 159 938 b 118 884 135 923 125 913 b 104 726 111 856 108 808 b 95 716 104 721 100 716 z m 469 671 b 459 680 464 671 459 675 b 454 861 458 698 454 840 l 454 862 b 463 871 454 867 458 871 b 473 861 469 871 473 867 l 479 680 b 469 671 479 675 474 671 z m 91 625 l 90 625 b 80 635 84 625 80 629 l 82 682 b 92 691 83 686 86 691 l 93 691 b 102 681 98 691 102 686 b 100 634 101 661 101 651 b 91 625 100 629 96 625 z m 359 158 l 354 158 b 344 169 348 159 344 163 b 353 178 345 174 349 178 l 359 178 b 401 193 376 178 390 184 b 429 230 414 203 423 218 b 437 237 430 234 433 237 b 448 227 444 237 448 232 l 447 222 b 414 178 441 207 429 191 b 359 158 399 166 380 158 z m 433 1017 b 463 1027 444 1017 454 1020 b 487 1071 479 1037 487 1054 b 477 1102 487 1082 484 1093 l 393 1227 b 349 1251 382 1242 366 1251 l 347 1251 b 303 1227 329 1251 313 1242 l 218 1102 b 209 1072 212 1093 209 1082 b 233 1027 209 1054 217 1037 b 262 1017 242 1020 252 1017 b 308 1042 280 1017 297 1026 l 348 1101 l 388 1042 b 433 1017 399 1026 416 1017 z "},"":{"ha":694,"x_min":0,"x_max":0,"o":"m 347 0 b 568 114 428 0 516 39 b 638 412 618 189 638 286 b 626 878 638 737 626 878 b 527 970 621 930 578 970 l 517 969 b 427 871 466 964 427 922 l 428 861 b 439 412 428 861 439 732 b 404 226 439 309 420 250 b 347 199 390 206 372 199 b 291 227 322 199 304 206 b 254 412 274 252 254 311 b 267 867 254 713 267 867 l 267 875 b 169 975 267 929 224 974 l 163 975 b 68 882 113 973 71 932 b 56 412 68 882 56 718 b 126 115 56 288 75 191 b 347 0 177 41 265 0 z m 95 716 l 94 716 b 84 726 88 716 84 721 b 99 890 87 809 91 857 b 144 953 107 922 122 939 b 150 955 146 954 148 955 b 160 945 156 955 160 949 b 155 936 160 941 159 938 b 118 884 135 923 125 913 b 104 726 111 856 108 808 b 95 716 104 721 100 716 z m 469 671 b 459 680 464 671 459 675 b 454 861 458 698 454 840 l 454 862 b 463 871 454 867 458 871 b 473 861 469 871 473 867 l 479 680 b 469 671 479 675 474 671 z m 91 625 l 90 625 b 80 635 84 625 80 629 l 82 682 b 92 691 83 686 86 691 l 93 691 b 102 681 98 691 102 686 b 100 634 101 661 101 651 b 91 625 100 629 96 625 z m 359 158 l 354 158 b 344 169 348 159 344 163 b 353 178 345 174 349 178 l 359 178 b 401 193 376 178 390 184 b 429 230 414 203 423 218 b 437 237 430 234 433 237 b 448 227 444 237 448 232 l 447 222 b 414 178 441 207 429 191 b 359 158 399 166 380 158 z m 258 1166 b 183 1092 216 1166 183 1133 b 258 1017 183 1050 216 1017 b 332 1092 299 1017 332 1050 b 258 1166 332 1133 299 1166 z m 436 1166 b 361 1092 395 1166 361 1133 b 436 1017 361 1050 395 1017 b 511 1092 477 1017 511 1050 b 436 1166 511 1133 477 1166 z "},"":{"ha":765,"x_min":0,"x_max":0,"o":"m 379 -1 b 477 97 433 -1 477 43 l 479 398 b 706 848 579 524 659 674 b 709 874 708 857 709 865 b 614 974 709 926 669 972 l 610 974 b 513 899 565 974 525 943 b 382 602 484 788 438 690 b 334 690 366 629 349 660 b 252 899 295 770 262 857 b 157 974 241 942 202 972 l 155 974 b 56 876 98 974 56 928 b 60 848 56 866 57 857 b 155 604 77 784 111 694 b 280 401 191 529 229 458 l 279 97 b 378 -1 279 43 323 -1 z m 158 693 b 149 699 154 693 150 696 b 91 852 116 776 98 820 b 88 878 89 861 88 870 b 104 930 88 897 94 913 b 113 935 106 932 109 935 b 122 924 119 934 122 930 b 121 919 122 923 121 921 b 108 880 112 905 108 895 b 111 857 108 873 109 865 b 167 707 117 827 134 783 l 168 703 b 162 694 168 699 165 696 z m 463 651 b 458 653 461 651 459 652 b 453 661 454 655 453 659 b 455 667 453 663 454 665 b 494 750 463 677 479 712 b 528 861 509 788 523 831 b 538 869 529 866 533 869 l 538 869 b 548 860 544 869 548 865 l 548 858 b 512 743 542 825 527 781 b 471 656 497 704 482 671 b 463 651 469 653 466 651 z m 199 611 b 191 616 196 611 193 613 l 170 659 l 168 663 b 179 673 168 668 172 673 b 188 667 182 673 186 671 b 209 626 197 649 201 641 l 210 621 b 204 612 210 617 208 614 z m 376 1017 b 421 1042 394 1017 411 1026 l 497 1160 b 506 1190 503 1169 506 1179 b 452 1243 506 1217 484 1243 l 450 1243 b 407 1218 432 1242 416 1233 l 331 1101 b 322 1071 325 1091 322 1081 b 347 1026 322 1053 331 1036 b 376 1017 356 1020 366 1017 z "},"":{"ha":765,"x_min":0,"x_max":0,"o":"m 379 -1 b 477 97 433 -1 477 43 l 479 398 b 706 848 579 524 659 674 b 709 874 708 857 709 865 b 614 974 709 926 669 972 l 610 974 b 513 899 565 974 525 943 b 382 602 484 788 438 690 b 334 690 366 629 349 660 b 252 899 295 770 262 857 b 157 974 241 942 202 972 l 155 974 b 56 876 98 974 56 928 b 60 848 56 866 57 857 b 155 604 77 784 111 694 b 280 401 191 529 229 458 l 279 97 b 378 -1 279 43 323 -1 z m 158 693 b 149 699 154 693 150 696 b 91 852 116 776 98 820 b 88 878 89 861 88 870 b 104 930 88 897 94 913 b 113 935 106 932 109 935 b 122 924 119 934 122 930 b 121 919 122 923 121 921 b 108 880 112 905 108 895 b 111 857 108 873 109 865 b 167 707 117 827 134 783 l 168 703 b 162 694 168 699 165 696 z m 463 651 b 458 653 461 651 459 652 b 453 661 454 655 453 659 b 455 667 453 663 454 665 b 494 750 463 677 479 712 b 528 861 509 788 523 831 b 538 869 529 866 533 869 l 538 869 b 548 860 544 869 548 865 l 548 858 b 512 743 542 825 527 781 b 471 656 497 704 482 671 b 463 651 469 653 466 651 z m 199 611 b 191 616 196 611 193 613 l 170 659 l 168 663 b 179 673 168 668 172 673 b 188 667 182 673 186 671 b 209 626 197 649 201 641 l 210 621 b 204 612 210 617 208 614 z m 294 1166 b 219 1092 252 1166 219 1133 b 294 1017 219 1050 252 1017 b 368 1092 335 1017 368 1050 b 294 1166 368 1133 335 1166 z m 472 1166 b 397 1092 431 1166 397 1133 b 472 1017 397 1050 431 1017 b 547 1092 513 1017 547 1050 b 472 1166 547 1133 513 1166 z "},"":{"ha":664,"x_min":0,"x_max":0,"o":"m 171 -5 b 267 95 225 -3 267 41 l 264 177 b 381 209 298 183 339 193 b 532 309 432 229 487 258 b 608 516 577 360 608 433 b 516 713 608 597 570 672 b 349 774 463 754 402 768 b 286 778 327 777 305 778 l 262 778 l 267 845 l 267 853 b 168 952 267 907 222 952 l 163 952 b 68 859 112 950 71 909 b 56 505 59 721 56 607 b 68 92 56 347 64 221 b 168 -5 69 38 113 -5 z m 96 620 l 95 620 b 85 629 90 620 85 624 l 85 631 l 88 677 b 98 686 89 682 93 686 l 99 686 b 108 677 104 686 108 682 l 108 675 b 105 629 106 655 106 646 b 96 620 105 624 101 620 z m 101 709 l 100 709 b 90 719 94 709 90 713 b 101 857 92 770 92 819 b 126 904 106 876 114 892 b 177 924 138 916 155 924 l 178 924 b 187 915 183 924 187 920 b 178 905 187 909 183 905 b 140 890 160 904 149 899 b 121 852 132 881 125 868 b 110 718 112 818 111 770 b 101 709 110 713 106 709 z m 402 714 b 397 715 400 714 399 715 b 318 732 383 724 349 732 l 304 732 b 294 741 298 732 294 736 l 294 742 b 303 751 294 747 298 751 b 319 752 308 752 313 752 l 332 752 b 407 732 361 751 390 743 b 412 724 410 730 412 727 b 410 719 412 722 412 720 b 402 714 409 715 406 714 z m 256 378 b 254 498 255 416 254 456 l 255 579 b 285 581 264 580 275 581 b 409 516 347 581 409 567 b 383 441 409 477 399 459 b 310 394 367 422 340 406 b 256 378 292 387 273 382 z m 374 366 b 364 372 370 366 366 368 l 363 376 b 368 385 363 380 365 384 b 437 475 397 401 431 432 b 448 484 438 481 442 484 b 457 474 453 484 457 479 l 457 473 b 378 368 450 421 411 385 z "},"":{"ha":726,"x_min":0,"x_max":0,"o":"m 161 2 b 259 102 215 3 259 47 l 254 643 b 283 740 254 688 268 720 b 349 768 300 759 316 768 b 418 701 396 768 418 735 b 395 603 418 670 408 627 b 373 579 383 580 382 579 l 372 579 b 274 479 317 578 274 534 b 372 380 274 425 317 381 l 374 380 b 472 300 439 380 471 355 b 376 202 471 233 440 202 l 375 202 b 275 102 320 202 275 157 b 375 3 275 47 320 3 l 376 3 b 602 107 471 3 553 46 b 671 311 651 168 671 241 b 576 519 671 398 631 475 b 616 701 606 580 616 643 b 349 967 616 840 502 967 b 131 867 262 967 182 928 b 56 642 80 806 56 726 l 60 100 b 159 2 60 46 105 2 z m 108 561 l 106 561 b 97 572 101 562 97 566 l 100 618 b 110 627 100 623 104 627 l 111 627 b 120 618 116 627 120 623 l 117 570 b 108 561 117 566 113 561 z m 113 650 l 111 650 b 102 660 106 650 102 654 b 128 787 103 690 109 740 b 246 899 149 833 185 879 b 250 899 248 899 249 899 b 260 889 256 899 260 894 b 252 880 260 885 257 881 b 146 779 197 862 165 822 b 121 659 128 735 123 688 b 113 650 121 654 117 650 z m 397 556 b 388 562 393 556 389 559 l 387 566 b 393 576 387 570 389 574 b 427 610 407 581 419 594 b 438 655 434 625 438 642 l 438 663 b 448 672 438 667 443 672 b 458 663 453 672 458 668 l 458 654 b 445 602 458 636 454 618 b 401 557 435 582 420 565 z m 425 172 l 423 172 b 414 181 418 172 414 176 b 424 191 414 186 418 191 b 467 213 438 192 454 200 b 494 257 481 226 491 242 b 505 264 496 262 500 264 b 514 254 510 264 514 260 l 514 252 b 481 199 509 233 497 214 b 425 172 465 184 446 172 z "},"":{"ha":660,"x_min":0,"x_max":0,"o":"m 494 0 b 528 5 505 0 517 2 b 593 90 564 20 589 52 b 603 312 600 156 603 234 b 593 610 603 419 598 528 b 496 704 590 661 549 703 b 429 679 472 704 448 696 b 393 696 418 686 406 692 b 342 705 376 701 360 704 l 323 707 b 200 668 278 705 233 692 b 56 335 96 596 56 469 b 121 103 56 244 77 165 b 317 0 165 41 239 0 b 425 29 358 0 395 11 b 494 0 444 9 469 0 z m 126 492 l 122 493 b 115 503 118 494 115 498 l 115 505 b 309 681 144 604 221 679 b 319 669 314 681 319 675 b 309 660 319 664 314 660 b 135 498 232 660 161 591 b 126 492 134 495 130 492 z m 323 199 b 254 334 288 199 254 239 b 335 509 254 447 289 509 b 402 435 379 509 397 450 l 404 303 b 323 199 387 270 361 199 z m 98 405 l 94 406 b 87 414 90 407 87 411 l 87 416 b 100 464 90 432 94 449 b 109 471 100 468 104 471 b 119 461 114 471 119 466 l 118 458 l 107 412 b 98 405 106 408 102 405 z m 358 160 b 350 165 355 160 351 161 l 349 170 b 353 179 349 174 350 178 b 418 265 382 195 410 239 b 427 272 420 269 422 272 b 438 262 433 272 438 267 l 437 260 b 363 161 428 227 400 182 z m 357 780 b 386 788 367 780 377 783 b 410 833 401 799 410 817 b 401 863 410 844 407 854 l 326 981 b 280 1006 315 996 298 1006 b 226 952 249 1006 226 980 b 235 922 226 942 229 932 l 311 805 b 357 780 321 789 338 780 z "},"":{"ha":660,"x_min":0,"x_max":0,"o":"m 494 0 b 528 5 505 0 517 2 b 593 90 564 20 589 52 b 603 312 600 156 603 234 b 593 610 603 419 598 528 b 496 704 590 661 549 703 b 429 679 472 704 448 696 b 393 696 418 686 406 692 b 342 705 376 701 360 704 l 323 707 b 200 668 278 705 233 692 b 56 335 96 596 56 469 b 121 103 56 244 77 165 b 317 0 165 41 239 0 b 425 29 358 0 395 11 b 494 0 444 9 469 0 z m 126 492 l 122 493 b 115 503 118 494 115 498 l 115 505 b 309 681 144 604 221 679 b 319 669 314 681 319 675 b 309 660 319 664 314 660 b 135 498 232 660 161 591 b 126 492 134 495 130 492 z m 323 199 b 254 334 288 199 254 239 b 335 509 254 447 289 509 b 402 435 379 509 397 450 l 404 303 b 323 199 387 270 361 199 z m 98 405 l 94 406 b 87 414 90 407 87 411 l 87 416 b 100 464 90 432 94 449 b 109 471 100 468 104 471 b 119 461 114 471 119 466 l 118 458 l 107 412 b 98 405 106 408 102 405 z m 358 160 b 350 165 355 160 351 161 l 349 170 b 353 179 349 174 350 178 b 418 265 382 195 410 239 b 427 272 420 269 422 272 b 438 262 433 272 438 267 l 437 260 b 363 161 428 227 400 182 z m 323 780 b 368 805 340 780 357 789 l 444 922 b 452 952 450 932 452 942 b 399 1006 452 980 430 1006 l 396 1006 b 353 981 378 1005 362 996 l 277 863 b 269 833 271 854 269 844 b 293 789 269 816 277 799 b 323 780 302 783 313 780 z "},"":{"ha":660,"x_min":0,"x_max":0,"o":"m 494 0 b 528 5 505 0 517 2 b 593 90 564 20 589 52 b 603 312 600 156 603 234 b 593 610 603 419 598 528 b 496 704 590 661 549 703 b 429 679 472 704 448 696 b 393 696 418 686 406 692 b 342 705 376 701 360 704 l 323 707 b 200 668 278 705 233 692 b 56 335 96 596 56 469 b 121 103 56 244 77 165 b 317 0 165 41 239 0 b 425 29 358 0 395 11 b 494 0 444 9 469 0 z m 126 492 l 122 493 b 115 503 118 494 115 498 l 115 505 b 309 681 144 604 221 679 b 319 669 314 681 319 675 b 309 660 319 664 314 660 b 135 498 232 660 161 591 b 126 492 134 495 130 492 z m 323 199 b 254 334 288 199 254 239 b 335 509 254 447 289 509 b 402 435 379 509 397 450 l 404 303 b 323 199 387 270 361 199 z m 98 405 l 94 406 b 87 414 90 407 87 411 l 87 416 b 100 464 90 432 94 449 b 109 471 100 468 104 471 b 119 461 114 471 119 466 l 118 458 l 107 412 b 98 405 106 408 102 405 z m 358 160 b 350 165 355 160 351 161 l 349 170 b 353 179 349 174 350 178 b 418 265 382 195 410 239 b 427 272 420 269 422 272 b 438 262 433 272 438 267 l 437 260 b 363 161 428 227 400 182 z m 442 780 b 472 789 452 780 463 783 b 496 833 488 800 496 817 b 486 865 496 844 492 855 l 401 990 b 357 1013 391 1004 375 1013 l 355 1013 b 312 990 338 1013 321 1004 l 227 865 b 218 834 221 855 218 844 b 241 789 218 817 226 800 b 271 780 251 783 261 780 b 317 804 289 780 306 789 l 357 863 l 397 804 b 442 780 408 789 425 780 z "},"":{"ha":660,"x_min":0,"x_max":0,"o":"m 494 0 b 528 5 505 0 517 2 b 593 90 564 20 589 52 b 603 312 600 156 603 234 b 593 610 603 419 598 528 b 496 704 590 661 549 703 b 429 679 472 704 448 696 b 393 696 418 686 406 692 b 342 705 376 701 360 704 l 323 707 b 200 668 278 705 233 692 b 56 335 96 596 56 469 b 121 103 56 244 77 165 b 317 0 165 41 239 0 b 425 29 358 0 395 11 b 494 0 444 9 469 0 z m 126 492 l 122 493 b 115 503 118 494 115 498 l 115 505 b 309 681 144 604 221 679 b 319 669 314 681 319 675 b 309 660 319 664 314 660 b 135 498 232 660 161 591 b 126 492 134 495 130 492 z m 323 199 b 254 334 288 199 254 239 b 335 509 254 447 289 509 b 402 435 379 509 397 450 l 404 303 b 323 199 387 270 361 199 z m 98 405 l 94 406 b 87 414 90 407 87 411 l 87 416 b 100 464 90 432 94 449 b 109 471 100 468 104 471 b 119 461 114 471 119 466 l 118 458 l 107 412 b 98 405 106 408 102 405 z m 358 160 b 350 165 355 160 351 161 l 349 170 b 353 179 349 174 350 178 b 418 265 382 195 410 239 b 427 272 420 269 422 272 b 438 262 433 272 438 267 l 437 260 b 363 161 428 227 400 182 z m 306 780 b 381 806 340 780 362 795 b 410 820 397 814 404 817 b 453 791 417 802 435 791 b 467 793 458 791 463 791 b 498 836 486 800 498 817 b 496 849 498 840 498 845 b 465 899 490 868 481 886 b 418 916 451 911 433 916 l 410 915 b 337 886 376 911 356 896 b 310 873 321 877 312 874 b 305 884 309 875 307 876 b 262 917 300 903 283 917 l 261 917 b 216 872 235 917 216 896 b 218 858 216 867 216 863 b 248 804 224 837 233 819 b 301 780 262 789 283 781 z "},"":{"ha":660,"x_min":0,"x_max":0,"o":"m 494 0 b 528 5 505 0 517 2 b 593 90 564 20 589 52 b 603 312 600 156 603 234 b 593 610 603 419 598 528 b 496 704 590 661 549 703 b 429 679 472 704 448 696 b 393 696 418 686 406 692 b 342 705 376 701 360 704 l 323 707 b 200 668 278 705 233 692 b 56 335 96 596 56 469 b 121 103 56 244 77 165 b 317 0 165 41 239 0 b 425 29 358 0 395 11 b 494 0 444 9 469 0 z m 126 492 l 122 493 b 115 503 118 494 115 498 l 115 505 b 309 681 144 604 221 679 b 319 669 314 681 319 675 b 309 660 319 664 314 660 b 135 498 232 660 161 591 b 126 492 134 495 130 492 z m 323 199 b 254 334 288 199 254 239 b 335 509 254 447 289 509 b 402 435 379 509 397 450 l 404 303 b 323 199 387 270 361 199 z m 98 405 l 94 406 b 87 414 90 407 87 411 l 87 416 b 100 464 90 432 94 449 b 109 471 100 468 104 471 b 119 461 114 471 119 466 l 118 458 l 107 412 b 98 405 106 408 102 405 z m 358 160 b 350 165 355 160 351 161 l 349 170 b 353 179 349 174 350 178 b 418 265 382 195 410 239 b 427 272 420 269 422 272 b 438 262 433 272 438 267 l 437 260 b 363 161 428 227 400 182 z m 274 929 b 199 854 233 929 199 896 b 274 780 199 813 233 780 b 349 854 315 780 349 813 b 274 929 349 896 315 929 z m 452 929 b 378 854 412 929 378 896 b 452 780 378 813 412 780 b 527 854 494 780 527 813 b 452 929 527 896 494 929 z "},"":{"ha":660,"x_min":0,"x_max":0,"o":"m 494 0 b 528 5 505 0 517 2 b 593 90 564 20 589 52 b 603 312 600 156 603 234 b 593 610 603 419 598 528 b 496 704 590 661 549 703 b 429 679 472 704 448 696 b 393 696 418 686 406 692 b 342 705 376 701 360 704 l 323 707 b 200 668 278 705 233 692 b 56 335 96 596 56 469 b 121 103 56 244 77 165 b 317 0 165 41 239 0 b 425 29 358 0 395 11 b 494 0 444 9 469 0 z m 126 492 l 122 493 b 115 503 118 494 115 498 l 115 505 b 309 681 144 604 221 679 b 319 669 314 681 319 675 b 309 660 319 664 314 660 b 135 498 232 660 161 591 b 126 492 134 495 130 492 z m 323 199 b 254 334 288 199 254 239 b 335 509 254 447 289 509 b 402 435 379 509 397 450 l 404 303 b 323 199 387 270 361 199 z m 98 405 l 94 406 b 87 414 90 407 87 411 l 87 416 b 100 464 90 432 94 449 b 109 471 100 468 104 471 b 119 461 114 471 119 466 l 118 458 l 107 412 b 98 405 106 408 102 405 z m 358 160 b 350 165 355 160 351 161 l 349 170 b 353 179 349 174 350 178 b 418 265 382 195 410 239 b 427 272 420 269 422 272 b 438 262 433 272 438 267 l 437 260 b 363 161 428 227 400 182 z m 435 950 b 356 986 418 972 388 986 b 277 950 324 986 294 972 b 252 873 259 928 252 901 b 277 796 252 846 260 819 b 356 760 295 774 324 760 b 435 796 388 760 417 774 b 460 873 453 819 460 846 b 435 950 460 901 453 928 z m 377 843 b 356 835 373 838 369 835 b 335 843 343 835 340 838 b 327 873 331 848 327 859 b 335 903 327 888 331 899 b 356 912 339 909 343 912 b 377 903 370 912 373 909 b 385 873 381 899 385 888 b 377 843 385 859 381 848 z "},"":{"ha":1030,"x_min":0,"x_max":0,"o":"m 126 492 l 122 493 b 115 503 117 495 115 498 l 115 505 b 190 630 131 556 155 597 b 309 681 224 662 264 679 b 316 677 311 681 314 680 b 319 669 318 675 319 672 b 316 663 319 667 318 665 b 309 660 314 661 311 660 b 203 615 270 660 235 645 b 135 498 172 585 149 546 b 132 494 134 497 133 496 b 126 492 130 493 128 492 z m 908 161 b 901 166 905 161 903 163 b 865 181 892 176 880 181 b 858 184 861 181 859 182 b 855 191 856 186 855 189 b 857 197 855 193 856 195 b 864 201 859 199 861 200 l 865 201 b 892 195 874 200 883 199 b 916 178 901 192 909 186 b 918 172 918 176 918 174 b 914 164 918 169 917 166 b 908 161 912 162 910 161 z m 651 422 b 692 489 660 454 673 476 b 743 509 710 502 727 509 b 766 502 752 509 760 507 b 776 485 772 497 776 491 b 751 448 776 469 768 457 b 697 429 735 439 717 433 b 651 422 677 425 662 422 z m 740 395 l 738 395 b 728 406 732 395 728 399 b 732 412 728 408 730 410 b 739 415 734 414 736 415 l 741 415 b 795 447 763 415 781 426 b 807 484 803 459 807 471 b 802 505 807 492 806 498 l 801 509 b 804 517 801 512 802 515 b 811 520 806 519 808 520 b 817 519 813 520 814 519 b 820 515 818 517 819 516 b 827 484 825 505 827 494 b 812 436 827 467 822 452 b 782 406 804 424 794 414 b 740 395 769 399 755 395 z m 357 160 b 353 161 356 160 355 161 b 350 165 351 162 351 163 l 349 170 b 353 179 349 174 350 177 b 393 218 368 188 381 201 b 418 265 405 235 413 251 b 427 272 420 270 422 272 b 435 269 430 272 433 271 b 437 262 437 267 437 264 l 437 260 b 410 206 433 243 423 224 b 363 161 397 187 381 172 z m 97 405 l 94 406 b 90 409 92 406 90 407 b 87 414 88 411 87 412 l 87 416 b 100 464 90 432 94 448 b 102 469 100 466 100 468 b 109 471 104 470 106 471 b 116 468 111 471 114 470 b 119 461 118 466 119 464 l 118 458 l 107 412 b 97 405 105 408 102 405 z m 323 199 b 275 231 305 199 290 210 b 254 334 261 252 254 286 b 278 465 255 391 262 434 b 335 509 293 494 312 509 b 372 494 350 509 362 505 b 393 461 380 484 388 473 b 401 435 397 450 400 441 l 404 303 b 395 286 401 298 399 292 b 376 248 390 273 384 260 b 353 214 369 235 361 223 b 323 199 344 203 334 199 z m 591 623 b 595 627 592 625 593 625 b 709 671 629 656 667 671 l 710 671 b 722 670 714 671 718 671 b 732 659 728 669 732 665 b 728 652 731 656 730 654 b 722 650 726 650 724 650 l 709 650 b 608 610 673 650 640 637 b 593 597 603 606 598 602 b 593 610 593 602 593 606 b 591 623 593 614 592 619 z m 581 52 b 760 -2 633 16 692 -2 b 893 22 803 -2 848 6 b 943 59 914 29 930 42 b 961 115 955 76 961 95 b 955 149 961 127 959 138 b 918 197 947 170 935 186 b 861 215 901 209 882 215 b 827 210 850 215 839 213 b 753 194 797 199 772 194 b 718 201 739 194 727 196 b 691 218 707 205 699 211 b 688 222 690 219 689 220 b 684 227 687 223 686 224 b 890 308 773 237 842 264 b 956 404 922 337 943 369 b 975 496 968 438 975 469 b 949 594 975 532 966 565 b 886 663 931 623 910 646 b 816 697 863 678 840 690 b 743 708 791 705 767 708 b 595 662 690 708 640 692 b 581 652 590 659 585 656 b 564 675 576 661 570 669 b 496 704 545 693 523 703 b 429 679 472 704 450 696 b 393 696 418 686 406 692 b 342 705 376 701 359 705 l 323 707 b 200 668 276 705 235 692 b 90 524 149 631 112 583 b 56 335 67 465 56 402 b 72 209 56 290 61 248 b 121 103 82 170 98 134 b 207 28 143 72 172 47 b 317 0 241 9 278 0 b 425 29 358 0 395 9 b 494 0 446 9 469 0 b 528 5 506 0 517 2 b 581 52 553 16 570 31 z "},"":{"ha":1070,"x_min":0,"x_max":0,"o":"m 117 490 l 114 491 b 107 501 109 493 107 496 l 107 504 b 186 629 123 555 149 596 b 309 679 222 661 263 677 b 316 676 311 679 314 678 b 319 669 318 674 319 671 b 316 662 319 666 318 664 b 309 659 314 660 311 659 b 200 614 270 659 234 644 b 126 498 165 583 141 545 b 117 490 124 493 121 490 z m 948 161 b 941 166 945 161 943 163 b 905 181 932 176 920 181 b 898 184 901 181 899 182 b 895 191 896 186 895 189 b 897 197 895 193 896 195 b 904 201 899 199 901 200 l 905 201 b 932 195 914 200 923 199 b 956 178 941 192 949 186 b 958 172 958 176 958 174 b 954 164 958 169 957 166 b 948 161 952 162 950 161 z m 691 422 b 732 489 700 454 713 476 b 783 509 750 502 767 509 b 806 502 792 509 800 507 b 816 485 812 497 816 491 b 791 448 816 469 808 457 b 737 429 775 439 757 433 b 691 422 718 425 702 422 z m 780 395 l 778 395 b 768 406 772 395 768 399 b 772 412 768 408 770 410 b 779 415 774 414 776 415 l 781 415 b 836 447 803 415 821 426 b 847 484 843 459 847 471 b 842 505 847 492 846 498 l 841 509 b 844 517 841 512 842 515 b 851 520 846 519 848 520 b 857 519 853 520 854 519 b 860 515 858 517 859 516 b 867 484 865 505 867 494 b 852 436 867 467 862 452 b 822 406 844 424 834 414 b 780 395 809 399 795 395 z m 372 155 b 363 161 369 155 366 157 l 363 165 b 369 174 363 169 365 172 b 439 275 405 193 428 227 b 443 281 440 277 441 279 b 449 283 445 282 447 283 b 456 280 452 283 454 282 b 458 273 458 278 458 275 l 458 271 b 377 157 447 218 420 180 z m 98 404 l 96 404 b 90 406 94 404 92 404 b 87 413 88 408 87 410 l 87 414 b 94 452 89 426 91 439 b 95 462 94 455 94 458 b 98 468 96 464 96 466 b 104 470 100 469 102 470 b 112 467 107 470 110 469 b 115 460 114 465 115 463 l 115 458 b 107 412 111 442 109 427 b 104 406 106 410 106 408 b 98 404 102 404 100 404 z m 332 199 b 288 223 314 199 300 207 b 262 283 277 239 268 259 b 254 357 257 308 254 332 b 263 427 254 380 257 404 b 291 485 269 450 278 469 b 340 507 304 500 320 507 b 386 484 359 507 374 500 b 411 426 397 469 406 450 b 418 353 416 402 418 378 l 418 349 b 410 277 418 324 416 300 b 381 220 404 254 394 235 b 332 199 368 206 352 199 z m 578 559 b 635 627 593 585 612 607 b 749 671 669 656 707 671 l 750 671 b 762 670 754 671 758 671 b 772 659 768 669 772 665 b 768 652 771 656 770 654 b 762 650 766 650 764 650 l 749 650 b 648 610 713 650 680 637 b 588 536 623 590 604 565 b 578 559 585 544 581 551 z m 553 120 b 598 71 566 102 581 86 b 800 -2 654 22 722 -2 b 933 22 843 -2 888 6 b 983 59 954 29 970 42 b 1001 115 995 76 1001 95 b 995 149 1001 127 999 138 b 958 197 987 170 975 186 b 901 215 941 209 922 215 b 867 210 890 215 879 213 b 793 194 837 199 812 194 b 758 201 779 194 767 196 b 731 218 747 205 739 211 b 728 222 730 219 729 220 b 724 227 727 223 726 224 b 930 308 813 237 882 264 b 996 404 962 337 983 369 b 1015 496 1008 438 1015 469 b 989 594 1015 532 1006 565 b 926 663 971 623 950 646 b 856 697 903 678 880 690 b 783 708 831 705 807 708 b 635 662 730 708 680 692 b 559 591 606 643 581 619 b 475 671 538 623 511 649 b 345 706 435 694 392 706 b 216 675 298 706 256 696 b 119 591 176 654 144 625 b 71 479 96 556 80 519 b 56 357 60 439 56 399 b 68 235 56 315 60 275 b 112 124 77 196 91 159 b 202 35 134 88 163 59 b 328 0 240 12 282 0 b 454 31 374 0 415 10 b 549 113 492 52 524 79 b 553 120 550 115 552 118 z "},"":{"ha":642,"x_min":0,"x_max":0,"o":"m 129 492 l 126 492 b 119 503 121 494 119 498 l 119 505 b 194 629 135 555 159 597 b 313 680 229 662 268 679 b 320 677 316 680 318 680 b 323 670 322 675 323 673 b 320 663 323 667 322 665 b 313 660 318 661 316 660 b 208 615 274 660 239 645 b 138 499 176 585 153 546 b 129 492 136 494 134 492 z m 433 248 b 427 250 431 248 429 249 b 424 258 425 252 424 255 b 426 264 424 260 425 262 b 446 284 431 272 437 278 b 473 293 453 290 463 292 l 474 293 b 481 290 477 293 479 292 b 484 283 484 288 484 286 b 481 277 484 281 484 279 b 475 273 479 275 477 273 b 441 252 461 272 450 265 b 433 248 439 250 437 248 z m 98 405 l 97 405 b 92 408 95 406 93 406 b 90 414 90 410 90 412 l 90 417 b 98 448 92 427 94 437 b 102 464 99 453 100 458 b 111 471 104 469 106 471 l 112 471 b 119 468 115 471 117 470 b 121 461 121 466 121 464 l 121 458 b 118 448 120 454 119 451 b 109 413 115 436 111 425 b 105 407 109 410 107 408 b 98 405 103 406 100 405 z m 261 9 l 239 -68 b 237 -81 238 -73 237 -77 b 252 -113 237 -94 242 -104 b 283 -126 260 -122 271 -126 b 305 -121 291 -126 298 -124 b 329 -113 316 -115 324 -113 b 333 -113 330 -113 332 -113 b 335 -114 334 -113 334 -113 b 336 -116 336 -115 336 -115 l 336 -117 l 337 -117 l 334 -121 b 320 -131 332 -123 328 -127 b 287 -142 313 -136 301 -139 b 260 -159 276 -145 267 -151 b 250 -187 254 -168 250 -177 l 252 -197 b 268 -223 254 -208 259 -216 b 296 -233 276 -230 286 -233 l 306 -232 b 404 -180 350 -222 382 -205 b 427 -116 419 -159 427 -138 b 423 -89 427 -106 426 -98 b 345 -26 410 -54 384 -33 l 350 -10 b 352 1 351 -6 352 -3 b 418 17 376 3 399 9 b 490 58 446 28 469 42 b 538 107 509 75 526 91 b 567 148 551 123 561 136 b 576 163 572 156 574 161 b 576 164 576 164 576 164 l 576 165 b 587 208 583 179 587 194 b 572 261 587 227 582 245 b 528 298 562 277 547 290 b 487 307 515 304 501 307 b 434 292 468 307 450 302 b 396 248 417 282 405 267 l 396 248 b 395 247 395 248 395 248 l 394 245 b 391 241 393 244 393 243 b 378 224 388 236 384 230 b 357 206 372 217 365 211 b 328 199 348 201 338 199 b 284 222 310 199 296 207 b 264 264 277 232 271 246 b 255 334 258 283 255 306 l 255 334 b 264 414 255 363 258 390 b 288 472 271 437 279 457 b 312 499 295 484 303 493 b 342 509 321 505 331 509 b 362 504 351 509 357 507 b 374 493 367 500 371 496 b 378 484 376 489 377 486 b 414 429 384 461 396 443 b 474 409 433 416 452 409 b 500 412 483 409 491 410 b 554 449 522 418 541 431 b 574 509 567 467 574 486 b 570 535 574 517 572 526 b 496 652 559 578 534 616 b 345 707 457 686 407 705 l 339 707 b 211 669 292 706 249 693 b 119 578 173 645 142 614 b 72 463 98 542 82 504 b 56 335 62 421 56 379 l 56 331 b 127 101 56 241 80 164 b 216 27 152 70 181 45 b 261 9 231 20 245 14 z "}}}
